<?xml version="1.0" encoding="utf-8" standalone="no"?>
<!DOCTYPE svg PUBLIC "-//W3C//DTD SVG 1.1//EN"
  "http://www.w3.org/Graphics/SVG/1.1/DTD/svg11.dtd">
<svg xmlns:xlink="http://www.w3.org/1999/xlink" width="484.987188pt" height="310.86825pt" viewBox="0 0 484.987188 310.86825" xmlns="http://www.w3.org/2000/svg" version="1.1">
 <metadata>
  <rdf:RDF xmlns:dc="http://purl.org/dc/elements/1.1/" xmlns:cc="http://creativecommons.org/ns#" xmlns:rdf="http://www.w3.org/1999/02/22-rdf-syntax-ns#">
   <cc:Work>
    <dc:type rdf:resource="http://purl.org/dc/dcmitype/StillImage"/>
    <dc:date>2025-02-04T01:17:44.874144</dc:date>
    <dc:format>image/svg+xml</dc:format>
    <dc:creator>
     <cc:Agent>
      <dc:title>Matplotlib v3.10.0, https://matplotlib.org/</dc:title>
     </cc:Agent>
    </dc:creator>
   </cc:Work>
  </rdf:RDF>
 </metadata>
 <defs>
  <style type="text/css">*{stroke-linejoin: round; stroke-linecap: butt}</style>
 </defs>
 <g id="figure_1">
  <g id="patch_1">
   <path d="M -0 310.86825 
L 484.987188 310.86825 
L 484.987188 0 
L -0 0 
z
" style="fill: #ffffff"/>
  </g>
  <g id="axes_1">
   <g id="patch_2">
    <path d="M 111.123438 273.312 
L 468.243438 273.312 
L 468.243438 7.2 
L 111.123438 7.2 
z
" style="fill: #ffffff"/>
   </g>
   <g id="FillBetweenPolyCollection_1">
    <defs>
     <path id="me71be58889" d="M 150.803438 -237.14025 
L 150.803438 -269.011939 
L 153.61392 -274.019482 
L 156.424402 -278.623081 
L 159.234884 -282.602735 
L 162.045367 -285.803266 
L 164.855849 -288.147474 
L 167.666331 -289.636019 
L 170.476814 -290.336068 
L 173.287296 -290.36265 
L 176.097778 -289.857151 
L 178.90826 -288.966724 
L 181.718743 -287.82718 
L 184.529225 -286.550758 
L 187.339707 -285.219263 
L 190.15019 -283.882415 
L 192.960672 -282.560752 
L 195.771154 -281.251981 
L 198.581637 -279.939259 
L 201.392119 -278.599779 
L 204.202601 -277.212202 
L 207.013083 -275.761971 
L 209.823566 -274.244202 
L 212.634048 -272.664356 
L 215.44453 -271.037188 
L 218.255013 -269.384493 
L 221.065495 -267.732081 
L 223.875977 -266.106368 
L 226.686459 -264.531069 
L 229.496942 -263.024551 
L 232.307424 -261.59846 
L 235.117906 -260.257949 
L 237.928389 -259.003379 
L 240.738871 -257.832874 
L 243.549353 -256.74479 
L 246.359836 -255.739262 
L 249.170318 -254.818409 
L 251.9808 -253.985378 
L 254.791282 -253.242874 
L 257.601765 -252.591936 
L 260.412247 -252.031474 
L 263.222729 -251.558574 
L 266.033212 -251.169148 
L 268.843694 -250.858319 
L 271.654176 -250.6201 
L 274.464658 -250.446375 
L 277.275141 -250.325608 
L 280.085623 -250.241983 
L 282.896105 -250.175568 
L 285.706588 -250.103777 
L 288.51707 -250.003902 
L 291.327552 -249.856201 
L 294.138035 -249.646828 
L 296.948517 -249.370041 
L 299.758999 -249.029288 
L 302.569481 -248.63702 
L 305.379964 -248.213201 
L 308.190446 -247.78266 
L 311.000928 -247.371508 
L 313.811411 -247.003054 
L 316.621893 -246.693823 
L 319.432375 -246.450403 
L 322.242857 -246.267824 
L 325.05334 -246.12996 
L 327.863822 -246.012066 
L 330.674304 -245.885086 
L 333.484787 -245.720957 
L 336.295269 -245.497857 
L 339.105751 -245.204273 
L 341.916234 -244.841035 
L 344.726716 -244.420847 
L 347.537198 -243.96548 
L 350.34768 -243.501301 
L 353.158163 -243.054238 
L 355.968645 -242.645358 
L 358.779127 -242.288012 
L 361.58961 -241.987 
L 364.400092 -241.739644 
L 367.210574 -241.538124 
L 370.021057 -241.372214 
L 372.831539 -241.231584 
L 375.642021 -241.107192 
L 378.452503 -240.991716 
L 381.262986 -240.879334 
L 384.073468 -240.765358 
L 386.88395 -240.646089 
L 389.694433 -240.519047 
L 392.504915 -240.383388 
L 395.315397 -240.240174 
L 398.125879 -240.092156 
L 400.936362 -239.942962 
L 403.746844 -239.795844 
L 406.557326 -239.652396 
L 409.367809 -239.511719 
L 412.178291 -239.370399 
L 414.988773 -239.223367 
L 417.799256 -239.065423 
L 420.609738 -238.892954 
L 423.42022 -238.705301 
L 426.230702 -238.505365 
L 429.041185 -238.299278 
L 429.041185 -237.14025 
L 429.041185 -237.14025 
L 426.230702 -237.14025 
L 423.42022 -237.14025 
L 420.609738 -237.14025 
L 417.799256 -237.14025 
L 414.988773 -237.14025 
L 412.178291 -237.14025 
L 409.367809 -237.14025 
L 406.557326 -237.14025 
L 403.746844 -237.14025 
L 400.936362 -237.14025 
L 398.125879 -237.14025 
L 395.315397 -237.14025 
L 392.504915 -237.14025 
L 389.694433 -237.14025 
L 386.88395 -237.14025 
L 384.073468 -237.14025 
L 381.262986 -237.14025 
L 378.452503 -237.14025 
L 375.642021 -237.14025 
L 372.831539 -237.14025 
L 370.021057 -237.14025 
L 367.210574 -237.14025 
L 364.400092 -237.14025 
L 361.58961 -237.14025 
L 358.779127 -237.14025 
L 355.968645 -237.14025 
L 353.158163 -237.14025 
L 350.34768 -237.14025 
L 347.537198 -237.14025 
L 344.726716 -237.14025 
L 341.916234 -237.14025 
L 339.105751 -237.14025 
L 336.295269 -237.14025 
L 333.484787 -237.14025 
L 330.674304 -237.14025 
L 327.863822 -237.14025 
L 325.05334 -237.14025 
L 322.242857 -237.14025 
L 319.432375 -237.14025 
L 316.621893 -237.14025 
L 313.811411 -237.14025 
L 311.000928 -237.14025 
L 308.190446 -237.14025 
L 305.379964 -237.14025 
L 302.569481 -237.14025 
L 299.758999 -237.14025 
L 296.948517 -237.14025 
L 294.138035 -237.14025 
L 291.327552 -237.14025 
L 288.51707 -237.14025 
L 285.706588 -237.14025 
L 282.896105 -237.14025 
L 280.085623 -237.14025 
L 277.275141 -237.14025 
L 274.464658 -237.14025 
L 271.654176 -237.14025 
L 268.843694 -237.14025 
L 266.033212 -237.14025 
L 263.222729 -237.14025 
L 260.412247 -237.14025 
L 257.601765 -237.14025 
L 254.791282 -237.14025 
L 251.9808 -237.14025 
L 249.170318 -237.14025 
L 246.359836 -237.14025 
L 243.549353 -237.14025 
L 240.738871 -237.14025 
L 237.928389 -237.14025 
L 235.117906 -237.14025 
L 232.307424 -237.14025 
L 229.496942 -237.14025 
L 226.686459 -237.14025 
L 223.875977 -237.14025 
L 221.065495 -237.14025 
L 218.255013 -237.14025 
L 215.44453 -237.14025 
L 212.634048 -237.14025 
L 209.823566 -237.14025 
L 207.013083 -237.14025 
L 204.202601 -237.14025 
L 201.392119 -237.14025 
L 198.581637 -237.14025 
L 195.771154 -237.14025 
L 192.960672 -237.14025 
L 190.15019 -237.14025 
L 187.339707 -237.14025 
L 184.529225 -237.14025 
L 181.718743 -237.14025 
L 178.90826 -237.14025 
L 176.097778 -237.14025 
L 173.287296 -237.14025 
L 170.476814 -237.14025 
L 167.666331 -237.14025 
L 164.855849 -237.14025 
L 162.045367 -237.14025 
L 159.234884 -237.14025 
L 156.424402 -237.14025 
L 153.61392 -237.14025 
L 150.803438 -237.14025 
z
" style="stroke: #3f3f3f; stroke-width: 1.25"/>
    </defs>
    <g clip-path="url(#pae4d94e5ec)">
     <use xlink:href="#me71be58889" x="0" y="310.86825" style="fill: #3274a1; stroke: #3f3f3f; stroke-width: 1.25"/>
    </g>
   </g>
   <g id="FillBetweenPolyCollection_2">
    <defs>
     <path id="md605d66fb0" d="M 150.803438 -206.629382 
L 150.803438 -237.14025 
L 153.577558 -237.14025 
L 156.351679 -237.14025 
L 159.1258 -237.14025 
L 161.899921 -237.14025 
L 164.674042 -237.14025 
L 167.448163 -237.14025 
L 170.222284 -237.14025 
L 172.996405 -237.14025 
L 175.770526 -237.14025 
L 178.544647 -237.14025 
L 181.318768 -237.14025 
L 184.092889 -237.14025 
L 186.86701 -237.14025 
L 189.641131 -237.14025 
L 192.415252 -237.14025 
L 195.189373 -237.14025 
L 197.963494 -237.14025 
L 200.737615 -237.14025 
L 203.511736 -237.14025 
L 206.285857 -237.14025 
L 209.059978 -237.14025 
L 211.834099 -237.14025 
L 214.60822 -237.14025 
L 217.382341 -237.14025 
L 220.156462 -237.14025 
L 222.930583 -237.14025 
L 225.704704 -237.14025 
L 228.478825 -237.14025 
L 231.252946 -237.14025 
L 234.027067 -237.14025 
L 236.801188 -237.14025 
L 239.575309 -237.14025 
L 242.34943 -237.14025 
L 245.123551 -237.14025 
L 247.897672 -237.14025 
L 250.671793 -237.14025 
L 253.445914 -237.14025 
L 256.220035 -237.14025 
L 258.994156 -237.14025 
L 261.768277 -237.14025 
L 264.542398 -237.14025 
L 267.316519 -237.14025 
L 270.09064 -237.14025 
L 272.864761 -237.14025 
L 275.638882 -237.14025 
L 278.413003 -237.14025 
L 281.187124 -237.14025 
L 283.961245 -237.14025 
L 286.735366 -237.14025 
L 289.509487 -237.14025 
L 292.283608 -237.14025 
L 295.057729 -237.14025 
L 297.83185 -237.14025 
L 300.605971 -237.14025 
L 303.380092 -237.14025 
L 306.154213 -237.14025 
L 308.928334 -237.14025 
L 311.702455 -237.14025 
L 314.476576 -237.14025 
L 317.250697 -237.14025 
L 320.024818 -237.14025 
L 322.798939 -237.14025 
L 325.57306 -237.14025 
L 328.347181 -237.14025 
L 331.121302 -237.14025 
L 333.895423 -237.14025 
L 336.669544 -237.14025 
L 339.443665 -237.14025 
L 342.217786 -237.14025 
L 344.991907 -237.14025 
L 347.766027 -237.14025 
L 350.540148 -237.14025 
L 353.314269 -237.14025 
L 356.08839 -237.14025 
L 358.862511 -237.14025 
L 361.636632 -237.14025 
L 364.410753 -237.14025 
L 367.184874 -237.14025 
L 369.958995 -237.14025 
L 372.733116 -237.14025 
L 375.507237 -237.14025 
L 378.281358 -237.14025 
L 381.055479 -237.14025 
L 383.8296 -237.14025 
L 386.603721 -237.14025 
L 389.377842 -237.14025 
L 392.151963 -237.14025 
L 394.926084 -237.14025 
L 397.700205 -237.14025 
L 400.474326 -237.14025 
L 403.248447 -237.14025 
L 406.022568 -237.14025 
L 408.796689 -237.14025 
L 411.57081 -237.14025 
L 414.344931 -237.14025 
L 417.119052 -237.14025 
L 419.893173 -237.14025 
L 422.667294 -237.14025 
L 425.441415 -237.14025 
L 425.441415 -236.969335 
L 425.441415 -236.969335 
L 422.667294 -236.936192 
L 419.893173 -236.899201 
L 417.119052 -236.857285 
L 414.344931 -236.809284 
L 411.57081 -236.754212 
L 408.796689 -236.69144 
L 406.022568 -236.620757 
L 403.248447 -236.542314 
L 400.474326 -236.456536 
L 397.700205 -236.36411 
L 394.926084 -236.266122 
L 392.151963 -236.1643 
L 389.377842 -236.061226 
L 386.603721 -235.960312 
L 383.8296 -235.865365 
L 381.055479 -235.779677 
L 378.281358 -235.704823 
L 375.507237 -235.639445 
L 372.733116 -235.578467 
L 369.958995 -235.513053 
L 367.184874 -235.431459 
L 364.410753 -235.320663 
L 361.636632 -235.168456 
L 358.862511 -234.965603 
L 356.08839 -234.707665 
L 353.314269 -234.396172 
L 350.540148 -234.038834 
L 347.766027 -233.648601 
L 344.991907 -233.241495 
L 342.217786 -232.833443 
L 339.443665 -232.436719 
L 336.669544 -232.056862 
L 333.895423 -231.690964 
L 331.121302 -231.327876 
L 328.347181 -230.950341 
L 325.57306 -230.538533 
L 322.798939 -230.074177 
L 320.024818 -229.544467 
L 317.250697 -228.945159 
L 314.476576 -228.282453 
L 311.702455 -227.573352 
L 308.928334 -226.844252 
L 306.154213 -226.127678 
L 303.380092 -225.457468 
L 300.605971 -224.863217 
L 297.83185 -224.365208 
L 295.057729 -223.971113 
L 292.283608 -223.675315 
L 289.509487 -223.460927 
L 286.735366 -223.303785 
L 283.961245 -223.177186 
L 281.187124 -223.056169 
L 278.413003 -222.920486 
L 275.638882 -222.756025 
L 272.864761 -222.55494 
L 270.09064 -222.314981 
L 267.316519 -222.038528 
L 264.542398 -221.731596 
L 261.768277 -221.402798 
L 258.994156 -221.062066 
L 256.220035 -220.7189 
L 253.445914 -220.380199 
L 250.671793 -220.048075 
L 247.897672 -219.718411 
L 245.123551 -219.380861 
L 242.34943 -219.020572 
L 239.575309 -218.621166 
L 236.801188 -218.167923 
L 234.027067 -217.649989 
L 231.252946 -217.060879 
L 228.478825 -216.397412 
L 225.704704 -215.657895 
L 222.930583 -214.840596 
L 220.156462 -213.943153 
L 217.382341 -212.962873 
L 214.60822 -211.897379 
L 211.834099 -210.745006 
L 209.059978 -209.504741 
L 206.285857 -208.176025 
L 203.511736 -206.758966 
L 200.737615 -205.255223 
L 197.963494 -203.669359 
L 195.189373 -202.009971 
L 192.415252 -200.290032 
L 189.641131 -198.526483 
L 186.86701 -196.740028 
L 184.092889 -194.95669 
L 181.318768 -193.21256 
L 178.544647 -191.561987 
L 175.770526 -190.087564 
L 172.996405 -188.908138 
L 170.222284 -188.179736 
L 167.448163 -188.084629 
L 164.674042 -188.806306 
L 161.899921 -190.492763 
L 159.1258 -193.215822 
L 156.351679 -196.938077 
L 153.577558 -201.499259 
L 150.803438 -206.629382 
z
" style="stroke: #3f3f3f; stroke-width: 1.25"/>
    </defs>
    <g clip-path="url(#pae4d94e5ec)">
     <use xlink:href="#md605d66fb0" x="0" y="310.86825" style="fill: #e1812c; stroke: #3f3f3f; stroke-width: 1.25"/>
    </g>
   </g>
   <g id="FillBetweenPolyCollection_3">
    <defs>
     <path id="mfc5a4b410b" d="M 150.803438 -104.08425 
L 150.803438 -132.632013 
L 153.606665 -137.096485 
L 156.409893 -141.272997 
L 159.213121 -144.982019 
L 162.016348 -148.090073 
L 164.819576 -150.519257 
L 167.622804 -152.247067 
L 170.426031 -153.298279 
L 173.229259 -153.732233 
L 176.032487 -153.629223 
L 178.835714 -153.078869 
L 181.638942 -152.171998 
L 184.44217 -150.996003 
L 187.245397 -149.632668 
L 190.048625 -148.157023 
L 192.851853 -146.636054 
L 195.65508 -145.126717 
L 198.458308 -143.673447 
L 201.261536 -142.30587 
L 204.064763 -141.037626 
L 206.867991 -139.867032 
L 209.671219 -138.779763 
L 212.474446 -137.753175 
L 215.277674 -136.761376 
L 218.080902 -135.779981 
L 220.884129 -134.789668 
L 223.687357 -133.778122 
L 226.490585 -132.740461 
L 229.293812 -131.678631 
L 232.09704 -130.600331 
L 234.900268 -129.517849 
L 237.703495 -128.446853 
L 240.506723 -127.404987 
L 243.309951 -126.410081 
L 246.113178 -125.478017 
L 248.916406 -124.620592 
L 251.719634 -123.843977 
L 254.522861 -123.148295 
L 257.326089 -122.528584 
L 260.129317 -121.976921 
L 262.932544 -121.48502 
L 265.735772 -121.046418 
L 268.539 -120.657453 
L 271.342227 -120.316672 
L 274.145455 -120.02288 
L 276.948683 -119.772572 
L 279.75191 -119.557747 
L 282.555138 -119.365001 
L 285.358366 -119.176394 
L 288.161593 -118.971975 
L 290.964821 -118.733289 
L 293.768049 -118.446878 
L 296.571276 -118.10678 
L 299.374504 -117.715399 
L 302.177732 -117.282586 
L 304.980959 -116.82333 
L 307.784187 -116.35475 
L 310.587415 -115.893142 
L 313.390642 -115.451653 
L 316.19387 -115.038863 
L 318.997098 -114.658261 
L 321.800325 -114.308465 
L 324.603553 -113.983998 
L 327.406781 -113.676489 
L 330.210008 -113.376203 
L 333.013236 -113.073779 
L 335.816464 -112.761966 
L 338.619691 -112.437051 
L 341.422919 -112.099653 
L 344.226147 -111.754624 
L 347.029374 -111.410019 
L 349.832602 -111.075324 
L 352.63583 -110.759357 
L 355.439057 -110.468349 
L 358.242285 -110.204683 
L 361.045513 -109.966559 
L 363.84874 -109.748613 
L 366.651968 -109.543278 
L 369.455196 -109.342499 
L 372.258423 -109.139359 
L 375.061651 -108.929261 
L 377.864879 -108.710463 
L 380.668106 -108.483911 
L 383.471334 -108.252534 
L 386.274562 -108.020217 
L 389.077789 -107.790737 
L 391.881017 -107.566897 
L 394.684245 -107.350002 
L 397.487472 -107.139733 
L 400.2907 -106.934394 
L 403.093928 -106.731427 
L 405.897155 -106.528083 
L 408.700383 -106.322106 
L 411.503611 -106.112328 
L 414.306838 -105.899047 
L 417.110066 -105.684143 
L 419.913294 -105.470899 
L 422.716521 -105.26357 
L 425.519749 -105.066793 
L 428.322977 -104.884957 
L 428.322977 -104.08425 
L 428.322977 -104.08425 
L 425.519749 -104.08425 
L 422.716521 -104.08425 
L 419.913294 -104.08425 
L 417.110066 -104.08425 
L 414.306838 -104.08425 
L 411.503611 -104.08425 
L 408.700383 -104.08425 
L 405.897155 -104.08425 
L 403.093928 -104.08425 
L 400.2907 -104.08425 
L 397.487472 -104.08425 
L 394.684245 -104.08425 
L 391.881017 -104.08425 
L 389.077789 -104.08425 
L 386.274562 -104.08425 
L 383.471334 -104.08425 
L 380.668106 -104.08425 
L 377.864879 -104.08425 
L 375.061651 -104.08425 
L 372.258423 -104.08425 
L 369.455196 -104.08425 
L 366.651968 -104.08425 
L 363.84874 -104.08425 
L 361.045513 -104.08425 
L 358.242285 -104.08425 
L 355.439057 -104.08425 
L 352.63583 -104.08425 
L 349.832602 -104.08425 
L 347.029374 -104.08425 
L 344.226147 -104.08425 
L 341.422919 -104.08425 
L 338.619691 -104.08425 
L 335.816464 -104.08425 
L 333.013236 -104.08425 
L 330.210008 -104.08425 
L 327.406781 -104.08425 
L 324.603553 -104.08425 
L 321.800325 -104.08425 
L 318.997098 -104.08425 
L 316.19387 -104.08425 
L 313.390642 -104.08425 
L 310.587415 -104.08425 
L 307.784187 -104.08425 
L 304.980959 -104.08425 
L 302.177732 -104.08425 
L 299.374504 -104.08425 
L 296.571276 -104.08425 
L 293.768049 -104.08425 
L 290.964821 -104.08425 
L 288.161593 -104.08425 
L 285.358366 -104.08425 
L 282.555138 -104.08425 
L 279.75191 -104.08425 
L 276.948683 -104.08425 
L 274.145455 -104.08425 
L 271.342227 -104.08425 
L 268.539 -104.08425 
L 265.735772 -104.08425 
L 262.932544 -104.08425 
L 260.129317 -104.08425 
L 257.326089 -104.08425 
L 254.522861 -104.08425 
L 251.719634 -104.08425 
L 248.916406 -104.08425 
L 246.113178 -104.08425 
L 243.309951 -104.08425 
L 240.506723 -104.08425 
L 237.703495 -104.08425 
L 234.900268 -104.08425 
L 232.09704 -104.08425 
L 229.293812 -104.08425 
L 226.490585 -104.08425 
L 223.687357 -104.08425 
L 220.884129 -104.08425 
L 218.080902 -104.08425 
L 215.277674 -104.08425 
L 212.474446 -104.08425 
L 209.671219 -104.08425 
L 206.867991 -104.08425 
L 204.064763 -104.08425 
L 201.261536 -104.08425 
L 198.458308 -104.08425 
L 195.65508 -104.08425 
L 192.851853 -104.08425 
L 190.048625 -104.08425 
L 187.245397 -104.08425 
L 184.44217 -104.08425 
L 181.638942 -104.08425 
L 178.835714 -104.08425 
L 176.032487 -104.08425 
L 173.229259 -104.08425 
L 170.426031 -104.08425 
L 167.622804 -104.08425 
L 164.819576 -104.08425 
L 162.016348 -104.08425 
L 159.213121 -104.08425 
L 156.409893 -104.08425 
L 153.606665 -104.08425 
L 150.803438 -104.08425 
z
" style="stroke: #3f3f3f; stroke-width: 1.25"/>
    </defs>
    <g clip-path="url(#pae4d94e5ec)">
     <use xlink:href="#mfc5a4b410b" x="0" y="310.86825" style="fill: #3274a1; stroke: #3f3f3f; stroke-width: 1.25"/>
    </g>
   </g>
   <g id="FillBetweenPolyCollection_4">
    <defs>
     <path id="ma171c1198b" d="M 150.803438 -72.797493 
L 150.803438 -104.08425 
L 153.552917 -104.08425 
L 156.302396 -104.08425 
L 159.051875 -104.08425 
L 161.801355 -104.08425 
L 164.550834 -104.08425 
L 167.300313 -104.08425 
L 170.049793 -104.08425 
L 172.799272 -104.08425 
L 175.548751 -104.08425 
L 178.298231 -104.08425 
L 181.04771 -104.08425 
L 183.797189 -104.08425 
L 186.546668 -104.08425 
L 189.296148 -104.08425 
L 192.045627 -104.08425 
L 194.795106 -104.08425 
L 197.544586 -104.08425 
L 200.294065 -104.08425 
L 203.043544 -104.08425 
L 205.793024 -104.08425 
L 208.542503 -104.08425 
L 211.291982 -104.08425 
L 214.041462 -104.08425 
L 216.790941 -104.08425 
L 219.54042 -104.08425 
L 222.289899 -104.08425 
L 225.039379 -104.08425 
L 227.788858 -104.08425 
L 230.538337 -104.08425 
L 233.287817 -104.08425 
L 236.037296 -104.08425 
L 238.786775 -104.08425 
L 241.536255 -104.08425 
L 244.285734 -104.08425 
L 247.035213 -104.08425 
L 249.784692 -104.08425 
L 252.534172 -104.08425 
L 255.283651 -104.08425 
L 258.03313 -104.08425 
L 260.78261 -104.08425 
L 263.532089 -104.08425 
L 266.281568 -104.08425 
L 269.031048 -104.08425 
L 271.780527 -104.08425 
L 274.530006 -104.08425 
L 277.279486 -104.08425 
L 280.028965 -104.08425 
L 282.778444 -104.08425 
L 285.527923 -104.08425 
L 288.277403 -104.08425 
L 291.026882 -104.08425 
L 293.776361 -104.08425 
L 296.525841 -104.08425 
L 299.27532 -104.08425 
L 302.024799 -104.08425 
L 304.774279 -104.08425 
L 307.523758 -104.08425 
L 310.273237 -104.08425 
L 313.022716 -104.08425 
L 315.772196 -104.08425 
L 318.521675 -104.08425 
L 321.271154 -104.08425 
L 324.020634 -104.08425 
L 326.770113 -104.08425 
L 329.519592 -104.08425 
L 332.269072 -104.08425 
L 335.018551 -104.08425 
L 337.76803 -104.08425 
L 340.51751 -104.08425 
L 343.266989 -104.08425 
L 346.016468 -104.08425 
L 348.765947 -104.08425 
L 351.515427 -104.08425 
L 354.264906 -104.08425 
L 357.014385 -104.08425 
L 359.763865 -104.08425 
L 362.513344 -104.08425 
L 365.262823 -104.08425 
L 368.012303 -104.08425 
L 370.761782 -104.08425 
L 373.511261 -104.08425 
L 376.260741 -104.08425 
L 379.01022 -104.08425 
L 381.759699 -104.08425 
L 384.509178 -104.08425 
L 387.258658 -104.08425 
L 390.008137 -104.08425 
L 392.757616 -104.08425 
L 395.507096 -104.08425 
L 398.256575 -104.08425 
L 401.006054 -104.08425 
L 403.755534 -104.08425 
L 406.505013 -104.08425 
L 409.254492 -104.08425 
L 412.003971 -104.08425 
L 414.753451 -104.08425 
L 417.50293 -104.08425 
L 420.252409 -104.08425 
L 423.001889 -104.08425 
L 423.001889 -103.554196 
L 423.001889 -103.554196 
L 420.252409 -103.488985 
L 417.50293 -103.438017 
L 414.753451 -103.401228 
L 412.003971 -103.374875 
L 409.254492 -103.352286 
L 406.505013 -103.325404 
L 403.755534 -103.286675 
L 401.006054 -103.230641 
L 398.256575 -103.154744 
L 395.507096 -103.059134 
L 392.757616 -102.945668 
L 390.008137 -102.816562 
L 387.258658 -102.673322 
L 384.509178 -102.5164 
L 381.759699 -102.345751 
L 379.01022 -102.162046 
L 376.260741 -101.968032 
L 373.511261 -101.769394 
L 370.761782 -101.574656 
L 368.012303 -101.393957 
L 365.262823 -101.236937 
L 362.513344 -101.11024 
L 359.763865 -101.015314 
L 357.014385 -100.947129 
L 354.264906 -100.89423 
L 351.515427 -100.840254 
L 348.765947 -100.766661 
L 346.016468 -100.656141 
L 343.266989 -100.495914 
L 340.51751 -100.280119 
L 337.76803 -100.010714 
L 335.018551 -99.696663 
L 332.269072 -99.351701 
L 329.519592 -98.991309 
L 326.770113 -98.629718 
L 324.020634 -98.277629 
L 321.271154 -97.941037 
L 318.521675 -97.621188 
L 315.772196 -97.315443 
L 313.022716 -97.018657 
L 310.273237 -96.724715 
L 307.523758 -96.427924 
L 304.774279 -96.124032 
L 302.024799 -95.810734 
L 299.27532 -95.487664 
L 296.525841 -95.155956 
L 293.776361 -94.817596 
L 291.026882 -94.47485 
L 288.277403 -94.129941 
L 285.527923 -93.785039 
L 282.778444 -93.442404 
L 280.028965 -93.104416 
L 277.279486 -92.773235 
L 274.530006 -92.450045 
L 271.780527 -92.134078 
L 269.031048 -91.82192 
L 266.281568 -91.507578 
L 263.532089 -91.1836 
L 260.78261 -90.843 
L 258.03313 -90.481264 
L 255.283651 -90.097451 
L 252.534172 -89.693585 
L 249.784692 -89.272186 
L 247.035213 -88.832615 
L 244.285734 -88.367557 
L 241.536255 -87.861156 
L 238.786775 -87.289896 
L 236.037296 -86.626474 
L 233.287817 -85.845777 
L 230.538337 -84.931244 
L 227.788858 -83.879424 
L 225.039379 -82.700922 
L 222.289899 -81.416996 
L 219.54042 -80.052655 
L 216.790941 -78.62855 
L 214.041462 -77.154604 
L 211.291982 -75.627755 
L 208.542503 -74.034554 
L 205.793024 -72.357383 
L 203.043544 -70.581755 
L 200.294065 -68.702105 
L 197.544586 -66.724679 
L 194.795106 -64.667744 
L 192.045627 -62.560437 
L 189.296148 -60.44173 
L 186.546668 -58.360289 
L 183.797189 -56.375217 
L 181.04771 -54.557343 
L 178.298231 -52.990759 
L 175.548751 -51.77434 
L 172.799272 -51.022314 
L 170.049793 -50.86185 
L 167.300313 -51.424753 
L 164.550834 -52.830961 
L 161.801355 -55.164142 
L 159.051875 -58.443693 
L 156.302396 -62.601171 
L 153.552917 -67.470342 
L 150.803438 -72.797493 
z
" style="stroke: #3f3f3f; stroke-width: 1.25"/>
    </defs>
    <g clip-path="url(#pae4d94e5ec)">
     <use xlink:href="#ma171c1198b" x="0" y="310.86825" style="fill: #e1812c; stroke: #3f3f3f; stroke-width: 1.25"/>
    </g>
   </g>
   <g id="patch_3">
    <path d="M 150.803438 73.728 
L 150.803438 73.728 
L 150.803438 73.728 
L 150.803438 73.728 
z
" clip-path="url(#pae4d94e5ec)" style="fill: #3274a1; stroke: #3f3f3f; stroke-width: 1.25; stroke-linejoin: miter"/>
   </g>
   <g id="patch_4">
    <path d="M 150.803438 73.728 
L 150.803438 73.728 
L 150.803438 73.728 
L 150.803438 73.728 
z
" clip-path="url(#pae4d94e5ec)" style="fill: #e1812c; stroke: #3f3f3f; stroke-width: 1.25; stroke-linejoin: miter"/>
   </g>
   <g id="matplotlib.axis_1">
    <g id="xtick_1">
     <g id="line2d_1">
      <defs>
       <path id="m4d4e2786f7" d="M 0 0 
L 0 3.5 
" style="stroke: #000000; stroke-width: 0.8"/>
      </defs>
      <g>
       <use xlink:href="#m4d4e2786f7" x="111.123438" y="273.312" style="stroke: #000000; stroke-width: 0.8"/>
      </g>
     </g>
     <g id="text_1">
      <!-- -50 -->
      <g transform="translate(102.957031 287.910437) scale(0.1 -0.1)">
       <defs>
        <path id="DejaVuSans-2d" d="M 313 2009 
L 1997 2009 
L 1997 1497 
L 313 1497 
L 313 2009 
z
" transform="scale(0.015625)"/>
        <path id="DejaVuSans-35" d="M 691 4666 
L 3169 4666 
L 3169 4134 
L 1269 4134 
L 1269 2991 
Q 1406 3038 1543 3061 
Q 1681 3084 1819 3084 
Q 2600 3084 3056 2656 
Q 3513 2228 3513 1497 
Q 3513 744 3044 326 
Q 2575 -91 1722 -91 
Q 1428 -91 1123 -41 
Q 819 9 494 109 
L 494 744 
Q 775 591 1075 516 
Q 1375 441 1709 441 
Q 2250 441 2565 725 
Q 2881 1009 2881 1497 
Q 2881 1984 2565 2268 
Q 2250 2553 1709 2553 
Q 1456 2553 1204 2497 
Q 953 2441 691 2322 
L 691 4666 
z
" transform="scale(0.015625)"/>
        <path id="DejaVuSans-30" d="M 2034 4250 
Q 1547 4250 1301 3770 
Q 1056 3291 1056 2328 
Q 1056 1369 1301 889 
Q 1547 409 2034 409 
Q 2525 409 2770 889 
Q 3016 1369 3016 2328 
Q 3016 3291 2770 3770 
Q 2525 4250 2034 4250 
z
M 2034 4750 
Q 2819 4750 3233 4129 
Q 3647 3509 3647 2328 
Q 3647 1150 3233 529 
Q 2819 -91 2034 -91 
Q 1250 -91 836 529 
Q 422 1150 422 2328 
Q 422 3509 836 4129 
Q 1250 4750 2034 4750 
z
" transform="scale(0.015625)"/>
       </defs>
       <use xlink:href="#DejaVuSans-2d"/>
       <use xlink:href="#DejaVuSans-35" transform="translate(36.083984 0)"/>
       <use xlink:href="#DejaVuSans-30" transform="translate(99.707031 0)"/>
      </g>
     </g>
    </g>
    <g id="xtick_2">
     <g id="line2d_2">
      <g>
       <use xlink:href="#m4d4e2786f7" x="150.803438" y="273.312" style="stroke: #000000; stroke-width: 0.8"/>
      </g>
     </g>
     <g id="text_2">
      <!-- 0 -->
      <g transform="translate(147.622188 287.910437) scale(0.1 -0.1)">
       <use xlink:href="#DejaVuSans-30"/>
      </g>
     </g>
    </g>
    <g id="xtick_3">
     <g id="line2d_3">
      <g>
       <use xlink:href="#m4d4e2786f7" x="190.483438" y="273.312" style="stroke: #000000; stroke-width: 0.8"/>
      </g>
     </g>
     <g id="text_3">
      <!-- 50 -->
      <g transform="translate(184.120938 287.910437) scale(0.1 -0.1)">
       <use xlink:href="#DejaVuSans-35"/>
       <use xlink:href="#DejaVuSans-30" transform="translate(63.623047 0)"/>
      </g>
     </g>
    </g>
    <g id="xtick_4">
     <g id="line2d_4">
      <g>
       <use xlink:href="#m4d4e2786f7" x="230.163438" y="273.312" style="stroke: #000000; stroke-width: 0.8"/>
      </g>
     </g>
     <g id="text_4">
      <!-- 100 -->
      <g transform="translate(220.619688 287.910437) scale(0.1 -0.1)">
       <defs>
        <path id="DejaVuSans-31" d="M 794 531 
L 1825 531 
L 1825 4091 
L 703 3866 
L 703 4441 
L 1819 4666 
L 2450 4666 
L 2450 531 
L 3481 531 
L 3481 0 
L 794 0 
L 794 531 
z
" transform="scale(0.015625)"/>
       </defs>
       <use xlink:href="#DejaVuSans-31"/>
       <use xlink:href="#DejaVuSans-30" transform="translate(63.623047 0)"/>
       <use xlink:href="#DejaVuSans-30" transform="translate(127.246094 0)"/>
      </g>
     </g>
    </g>
    <g id="xtick_5">
     <g id="line2d_5">
      <g>
       <use xlink:href="#m4d4e2786f7" x="269.843438" y="273.312" style="stroke: #000000; stroke-width: 0.8"/>
      </g>
     </g>
     <g id="text_5">
      <!-- 150 -->
      <g transform="translate(260.299688 287.910437) scale(0.1 -0.1)">
       <use xlink:href="#DejaVuSans-31"/>
       <use xlink:href="#DejaVuSans-35" transform="translate(63.623047 0)"/>
       <use xlink:href="#DejaVuSans-30" transform="translate(127.246094 0)"/>
      </g>
     </g>
    </g>
    <g id="xtick_6">
     <g id="line2d_6">
      <g>
       <use xlink:href="#m4d4e2786f7" x="309.523438" y="273.312" style="stroke: #000000; stroke-width: 0.8"/>
      </g>
     </g>
     <g id="text_6">
      <!-- 200 -->
      <g transform="translate(299.979688 287.910437) scale(0.1 -0.1)">
       <defs>
        <path id="DejaVuSans-32" d="M 1228 531 
L 3431 531 
L 3431 0 
L 469 0 
L 469 531 
Q 828 903 1448 1529 
Q 2069 2156 2228 2338 
Q 2531 2678 2651 2914 
Q 2772 3150 2772 3378 
Q 2772 3750 2511 3984 
Q 2250 4219 1831 4219 
Q 1534 4219 1204 4116 
Q 875 4013 500 3803 
L 500 4441 
Q 881 4594 1212 4672 
Q 1544 4750 1819 4750 
Q 2544 4750 2975 4387 
Q 3406 4025 3406 3419 
Q 3406 3131 3298 2873 
Q 3191 2616 2906 2266 
Q 2828 2175 2409 1742 
Q 1991 1309 1228 531 
z
" transform="scale(0.015625)"/>
       </defs>
       <use xlink:href="#DejaVuSans-32"/>
       <use xlink:href="#DejaVuSans-30" transform="translate(63.623047 0)"/>
       <use xlink:href="#DejaVuSans-30" transform="translate(127.246094 0)"/>
      </g>
     </g>
    </g>
    <g id="xtick_7">
     <g id="line2d_7">
      <g>
       <use xlink:href="#m4d4e2786f7" x="349.203438" y="273.312" style="stroke: #000000; stroke-width: 0.8"/>
      </g>
     </g>
     <g id="text_7">
      <!-- 250 -->
      <g transform="translate(339.659688 287.910437) scale(0.1 -0.1)">
       <use xlink:href="#DejaVuSans-32"/>
       <use xlink:href="#DejaVuSans-35" transform="translate(63.623047 0)"/>
       <use xlink:href="#DejaVuSans-30" transform="translate(127.246094 0)"/>
      </g>
     </g>
    </g>
    <g id="xtick_8">
     <g id="line2d_8">
      <g>
       <use xlink:href="#m4d4e2786f7" x="388.883438" y="273.312" style="stroke: #000000; stroke-width: 0.8"/>
      </g>
     </g>
     <g id="text_8">
      <!-- 300 -->
      <g transform="translate(379.339688 287.910437) scale(0.1 -0.1)">
       <defs>
        <path id="DejaVuSans-33" d="M 2597 2516 
Q 3050 2419 3304 2112 
Q 3559 1806 3559 1356 
Q 3559 666 3084 287 
Q 2609 -91 1734 -91 
Q 1441 -91 1130 -33 
Q 819 25 488 141 
L 488 750 
Q 750 597 1062 519 
Q 1375 441 1716 441 
Q 2309 441 2620 675 
Q 2931 909 2931 1356 
Q 2931 1769 2642 2001 
Q 2353 2234 1838 2234 
L 1294 2234 
L 1294 2753 
L 1863 2753 
Q 2328 2753 2575 2939 
Q 2822 3125 2822 3475 
Q 2822 3834 2567 4026 
Q 2313 4219 1838 4219 
Q 1578 4219 1281 4162 
Q 984 4106 628 3988 
L 628 4550 
Q 988 4650 1302 4700 
Q 1616 4750 1894 4750 
Q 2613 4750 3031 4423 
Q 3450 4097 3450 3541 
Q 3450 3153 3228 2886 
Q 3006 2619 2597 2516 
z
" transform="scale(0.015625)"/>
       </defs>
       <use xlink:href="#DejaVuSans-33"/>
       <use xlink:href="#DejaVuSans-30" transform="translate(63.623047 0)"/>
       <use xlink:href="#DejaVuSans-30" transform="translate(127.246094 0)"/>
      </g>
     </g>
    </g>
    <g id="xtick_9">
     <g id="line2d_9">
      <g>
       <use xlink:href="#m4d4e2786f7" x="428.563438" y="273.312" style="stroke: #000000; stroke-width: 0.8"/>
      </g>
     </g>
     <g id="text_9">
      <!-- 350 -->
      <g transform="translate(419.019688 287.910437) scale(0.1 -0.1)">
       <use xlink:href="#DejaVuSans-33"/>
       <use xlink:href="#DejaVuSans-35" transform="translate(63.623047 0)"/>
       <use xlink:href="#DejaVuSans-30" transform="translate(127.246094 0)"/>
      </g>
     </g>
    </g>
    <g id="xtick_10">
     <g id="line2d_10">
      <g>
       <use xlink:href="#m4d4e2786f7" x="468.243438" y="273.312" style="stroke: #000000; stroke-width: 0.8"/>
      </g>
     </g>
     <g id="text_10">
      <!-- 400 -->
      <g transform="translate(458.699688 287.910437) scale(0.1 -0.1)">
       <defs>
        <path id="DejaVuSans-34" d="M 2419 4116 
L 825 1625 
L 2419 1625 
L 2419 4116 
z
M 2253 4666 
L 3047 4666 
L 3047 1625 
L 3713 1625 
L 3713 1100 
L 3047 1100 
L 3047 0 
L 2419 0 
L 2419 1100 
L 313 1100 
L 313 1709 
L 2253 4666 
z
" transform="scale(0.015625)"/>
       </defs>
       <use xlink:href="#DejaVuSans-34"/>
       <use xlink:href="#DejaVuSans-30" transform="translate(63.623047 0)"/>
       <use xlink:href="#DejaVuSans-30" transform="translate(127.246094 0)"/>
      </g>
     </g>
    </g>
    <g id="text_11">
     <!-- Latency variation (µs) -->
     <g transform="translate(234.944375 301.588562) scale(0.1 -0.1)">
      <defs>
       <path id="DejaVuSans-4c" d="M 628 4666 
L 1259 4666 
L 1259 531 
L 3531 531 
L 3531 0 
L 628 0 
L 628 4666 
z
" transform="scale(0.015625)"/>
       <path id="DejaVuSans-61" d="M 2194 1759 
Q 1497 1759 1228 1600 
Q 959 1441 959 1056 
Q 959 750 1161 570 
Q 1363 391 1709 391 
Q 2188 391 2477 730 
Q 2766 1069 2766 1631 
L 2766 1759 
L 2194 1759 
z
M 3341 1997 
L 3341 0 
L 2766 0 
L 2766 531 
Q 2569 213 2275 61 
Q 1981 -91 1556 -91 
Q 1019 -91 701 211 
Q 384 513 384 1019 
Q 384 1609 779 1909 
Q 1175 2209 1959 2209 
L 2766 2209 
L 2766 2266 
Q 2766 2663 2505 2880 
Q 2244 3097 1772 3097 
Q 1472 3097 1187 3025 
Q 903 2953 641 2809 
L 641 3341 
Q 956 3463 1253 3523 
Q 1550 3584 1831 3584 
Q 2591 3584 2966 3190 
Q 3341 2797 3341 1997 
z
" transform="scale(0.015625)"/>
       <path id="DejaVuSans-74" d="M 1172 4494 
L 1172 3500 
L 2356 3500 
L 2356 3053 
L 1172 3053 
L 1172 1153 
Q 1172 725 1289 603 
Q 1406 481 1766 481 
L 2356 481 
L 2356 0 
L 1766 0 
Q 1100 0 847 248 
Q 594 497 594 1153 
L 594 3053 
L 172 3053 
L 172 3500 
L 594 3500 
L 594 4494 
L 1172 4494 
z
" transform="scale(0.015625)"/>
       <path id="DejaVuSans-65" d="M 3597 1894 
L 3597 1613 
L 953 1613 
Q 991 1019 1311 708 
Q 1631 397 2203 397 
Q 2534 397 2845 478 
Q 3156 559 3463 722 
L 3463 178 
Q 3153 47 2828 -22 
Q 2503 -91 2169 -91 
Q 1331 -91 842 396 
Q 353 884 353 1716 
Q 353 2575 817 3079 
Q 1281 3584 2069 3584 
Q 2775 3584 3186 3129 
Q 3597 2675 3597 1894 
z
M 3022 2063 
Q 3016 2534 2758 2815 
Q 2500 3097 2075 3097 
Q 1594 3097 1305 2825 
Q 1016 2553 972 2059 
L 3022 2063 
z
" transform="scale(0.015625)"/>
       <path id="DejaVuSans-6e" d="M 3513 2113 
L 3513 0 
L 2938 0 
L 2938 2094 
Q 2938 2591 2744 2837 
Q 2550 3084 2163 3084 
Q 1697 3084 1428 2787 
Q 1159 2491 1159 1978 
L 1159 0 
L 581 0 
L 581 3500 
L 1159 3500 
L 1159 2956 
Q 1366 3272 1645 3428 
Q 1925 3584 2291 3584 
Q 2894 3584 3203 3211 
Q 3513 2838 3513 2113 
z
" transform="scale(0.015625)"/>
       <path id="DejaVuSans-63" d="M 3122 3366 
L 3122 2828 
Q 2878 2963 2633 3030 
Q 2388 3097 2138 3097 
Q 1578 3097 1268 2742 
Q 959 2388 959 1747 
Q 959 1106 1268 751 
Q 1578 397 2138 397 
Q 2388 397 2633 464 
Q 2878 531 3122 666 
L 3122 134 
Q 2881 22 2623 -34 
Q 2366 -91 2075 -91 
Q 1284 -91 818 406 
Q 353 903 353 1747 
Q 353 2603 823 3093 
Q 1294 3584 2113 3584 
Q 2378 3584 2631 3529 
Q 2884 3475 3122 3366 
z
" transform="scale(0.015625)"/>
       <path id="DejaVuSans-79" d="M 2059 -325 
Q 1816 -950 1584 -1140 
Q 1353 -1331 966 -1331 
L 506 -1331 
L 506 -850 
L 844 -850 
Q 1081 -850 1212 -737 
Q 1344 -625 1503 -206 
L 1606 56 
L 191 3500 
L 800 3500 
L 1894 763 
L 2988 3500 
L 3597 3500 
L 2059 -325 
z
" transform="scale(0.015625)"/>
       <path id="DejaVuSans-20" transform="scale(0.015625)"/>
       <path id="DejaVuSans-76" d="M 191 3500 
L 800 3500 
L 1894 563 
L 2988 3500 
L 3597 3500 
L 2284 0 
L 1503 0 
L 191 3500 
z
" transform="scale(0.015625)"/>
       <path id="DejaVuSans-72" d="M 2631 2963 
Q 2534 3019 2420 3045 
Q 2306 3072 2169 3072 
Q 1681 3072 1420 2755 
Q 1159 2438 1159 1844 
L 1159 0 
L 581 0 
L 581 3500 
L 1159 3500 
L 1159 2956 
Q 1341 3275 1631 3429 
Q 1922 3584 2338 3584 
Q 2397 3584 2469 3576 
Q 2541 3569 2628 3553 
L 2631 2963 
z
" transform="scale(0.015625)"/>
       <path id="DejaVuSans-69" d="M 603 3500 
L 1178 3500 
L 1178 0 
L 603 0 
L 603 3500 
z
M 603 4863 
L 1178 4863 
L 1178 4134 
L 603 4134 
L 603 4863 
z
" transform="scale(0.015625)"/>
       <path id="DejaVuSans-6f" d="M 1959 3097 
Q 1497 3097 1228 2736 
Q 959 2375 959 1747 
Q 959 1119 1226 758 
Q 1494 397 1959 397 
Q 2419 397 2687 759 
Q 2956 1122 2956 1747 
Q 2956 2369 2687 2733 
Q 2419 3097 1959 3097 
z
M 1959 3584 
Q 2709 3584 3137 3096 
Q 3566 2609 3566 1747 
Q 3566 888 3137 398 
Q 2709 -91 1959 -91 
Q 1206 -91 779 398 
Q 353 888 353 1747 
Q 353 2609 779 3096 
Q 1206 3584 1959 3584 
z
" transform="scale(0.015625)"/>
       <path id="DejaVuSans-28" d="M 1984 4856 
Q 1566 4138 1362 3434 
Q 1159 2731 1159 2009 
Q 1159 1288 1364 580 
Q 1569 -128 1984 -844 
L 1484 -844 
Q 1016 -109 783 600 
Q 550 1309 550 2009 
Q 550 2706 781 3412 
Q 1013 4119 1484 4856 
L 1984 4856 
z
" transform="scale(0.015625)"/>
       <path id="DejaVuSans-b5" d="M 544 -1331 
L 544 3500 
L 1119 3500 
L 1119 1325 
Q 1119 872 1334 640 
Q 1550 409 1972 409 
Q 2434 409 2667 671 
Q 2900 934 2900 1459 
L 2900 3500 
L 3475 3500 
L 3475 806 
Q 3475 619 3529 530 
Q 3584 441 3700 441 
Q 3728 441 3778 458 
Q 3828 475 3916 513 
L 3916 50 
Q 3788 -22 3673 -56 
Q 3559 -91 3450 -91 
Q 3234 -91 3106 31 
Q 2978 153 2931 403 
Q 2775 156 2548 32 
Q 2322 -91 2016 -91 
Q 1697 -91 1473 31 
Q 1250 153 1119 397 
L 1119 -1331 
L 544 -1331 
z
" transform="scale(0.015625)"/>
       <path id="DejaVuSans-73" d="M 2834 3397 
L 2834 2853 
Q 2591 2978 2328 3040 
Q 2066 3103 1784 3103 
Q 1356 3103 1142 2972 
Q 928 2841 928 2578 
Q 928 2378 1081 2264 
Q 1234 2150 1697 2047 
L 1894 2003 
Q 2506 1872 2764 1633 
Q 3022 1394 3022 966 
Q 3022 478 2636 193 
Q 2250 -91 1575 -91 
Q 1294 -91 989 -36 
Q 684 19 347 128 
L 347 722 
Q 666 556 975 473 
Q 1284 391 1588 391 
Q 1994 391 2212 530 
Q 2431 669 2431 922 
Q 2431 1156 2273 1281 
Q 2116 1406 1581 1522 
L 1381 1569 
Q 847 1681 609 1914 
Q 372 2147 372 2553 
Q 372 3047 722 3315 
Q 1072 3584 1716 3584 
Q 2034 3584 2315 3537 
Q 2597 3491 2834 3397 
z
" transform="scale(0.015625)"/>
       <path id="DejaVuSans-29" d="M 513 4856 
L 1013 4856 
Q 1481 4119 1714 3412 
Q 1947 2706 1947 2009 
Q 1947 1309 1714 600 
Q 1481 -109 1013 -844 
L 513 -844 
Q 928 -128 1133 580 
Q 1338 1288 1338 2009 
Q 1338 2731 1133 3434 
Q 928 4138 513 4856 
z
" transform="scale(0.015625)"/>
      </defs>
      <use xlink:href="#DejaVuSans-4c"/>
      <use xlink:href="#DejaVuSans-61" transform="translate(55.712891 0)"/>
      <use xlink:href="#DejaVuSans-74" transform="translate(116.992188 0)"/>
      <use xlink:href="#DejaVuSans-65" transform="translate(156.201172 0)"/>
      <use xlink:href="#DejaVuSans-6e" transform="translate(217.724609 0)"/>
      <use xlink:href="#DejaVuSans-63" transform="translate(281.103516 0)"/>
      <use xlink:href="#DejaVuSans-79" transform="translate(336.083984 0)"/>
      <use xlink:href="#DejaVuSans-20" transform="translate(395.263672 0)"/>
      <use xlink:href="#DejaVuSans-76" transform="translate(427.050781 0)"/>
      <use xlink:href="#DejaVuSans-61" transform="translate(486.230469 0)"/>
      <use xlink:href="#DejaVuSans-72" transform="translate(547.509766 0)"/>
      <use xlink:href="#DejaVuSans-69" transform="translate(588.623047 0)"/>
      <use xlink:href="#DejaVuSans-61" transform="translate(616.40625 0)"/>
      <use xlink:href="#DejaVuSans-74" transform="translate(677.685547 0)"/>
      <use xlink:href="#DejaVuSans-69" transform="translate(716.894531 0)"/>
      <use xlink:href="#DejaVuSans-6f" transform="translate(744.677734 0)"/>
      <use xlink:href="#DejaVuSans-6e" transform="translate(805.859375 0)"/>
      <use xlink:href="#DejaVuSans-20" transform="translate(869.238281 0)"/>
      <use xlink:href="#DejaVuSans-28" transform="translate(901.025391 0)"/>
      <use xlink:href="#DejaVuSans-b5" transform="translate(940.039062 0)"/>
      <use xlink:href="#DejaVuSans-73" transform="translate(1003.662109 0)"/>
      <use xlink:href="#DejaVuSans-29" transform="translate(1055.761719 0)"/>
     </g>
    </g>
   </g>
   <g id="matplotlib.axis_2">
    <g id="ytick_1">
     <g id="line2d_11">
      <defs>
       <path id="m23cb8f3127" d="M 0 0 
L -3.5 0 
" style="stroke: #000000; stroke-width: 0.8"/>
      </defs>
      <g>
       <use xlink:href="#m23cb8f3127" x="111.123438" y="73.728" style="stroke: #000000; stroke-width: 0.8"/>
      </g>
     </g>
     <g id="text_12">
      <!-- No Service Mesh -->
      <g transform="translate(20.878125 77.527219) scale(0.1 -0.1)">
       <defs>
        <path id="DejaVuSans-4e" d="M 628 4666 
L 1478 4666 
L 3547 763 
L 3547 4666 
L 4159 4666 
L 4159 0 
L 3309 0 
L 1241 3903 
L 1241 0 
L 628 0 
L 628 4666 
z
" transform="scale(0.015625)"/>
        <path id="DejaVuSans-53" d="M 3425 4513 
L 3425 3897 
Q 3066 4069 2747 4153 
Q 2428 4238 2131 4238 
Q 1616 4238 1336 4038 
Q 1056 3838 1056 3469 
Q 1056 3159 1242 3001 
Q 1428 2844 1947 2747 
L 2328 2669 
Q 3034 2534 3370 2195 
Q 3706 1856 3706 1288 
Q 3706 609 3251 259 
Q 2797 -91 1919 -91 
Q 1588 -91 1214 -16 
Q 841 59 441 206 
L 441 856 
Q 825 641 1194 531 
Q 1563 422 1919 422 
Q 2459 422 2753 634 
Q 3047 847 3047 1241 
Q 3047 1584 2836 1778 
Q 2625 1972 2144 2069 
L 1759 2144 
Q 1053 2284 737 2584 
Q 422 2884 422 3419 
Q 422 4038 858 4394 
Q 1294 4750 2059 4750 
Q 2388 4750 2728 4690 
Q 3069 4631 3425 4513 
z
" transform="scale(0.015625)"/>
        <path id="DejaVuSans-4d" d="M 628 4666 
L 1569 4666 
L 2759 1491 
L 3956 4666 
L 4897 4666 
L 4897 0 
L 4281 0 
L 4281 4097 
L 3078 897 
L 2444 897 
L 1241 4097 
L 1241 0 
L 628 0 
L 628 4666 
z
" transform="scale(0.015625)"/>
        <path id="DejaVuSans-68" d="M 3513 2113 
L 3513 0 
L 2938 0 
L 2938 2094 
Q 2938 2591 2744 2837 
Q 2550 3084 2163 3084 
Q 1697 3084 1428 2787 
Q 1159 2491 1159 1978 
L 1159 0 
L 581 0 
L 581 4863 
L 1159 4863 
L 1159 2956 
Q 1366 3272 1645 3428 
Q 1925 3584 2291 3584 
Q 2894 3584 3203 3211 
Q 3513 2838 3513 2113 
z
" transform="scale(0.015625)"/>
       </defs>
       <use xlink:href="#DejaVuSans-4e"/>
       <use xlink:href="#DejaVuSans-6f" transform="translate(74.804688 0)"/>
       <use xlink:href="#DejaVuSans-20" transform="translate(135.986328 0)"/>
       <use xlink:href="#DejaVuSans-53" transform="translate(167.773438 0)"/>
       <use xlink:href="#DejaVuSans-65" transform="translate(231.25 0)"/>
       <use xlink:href="#DejaVuSans-72" transform="translate(292.773438 0)"/>
       <use xlink:href="#DejaVuSans-76" transform="translate(333.886719 0)"/>
       <use xlink:href="#DejaVuSans-69" transform="translate(393.066406 0)"/>
       <use xlink:href="#DejaVuSans-63" transform="translate(420.849609 0)"/>
       <use xlink:href="#DejaVuSans-65" transform="translate(475.830078 0)"/>
       <use xlink:href="#DejaVuSans-20" transform="translate(537.353516 0)"/>
       <use xlink:href="#DejaVuSans-4d" transform="translate(569.140625 0)"/>
       <use xlink:href="#DejaVuSans-65" transform="translate(655.419922 0)"/>
       <use xlink:href="#DejaVuSans-73" transform="translate(716.943359 0)"/>
       <use xlink:href="#DejaVuSans-68" transform="translate(769.042969 0)"/>
      </g>
     </g>
    </g>
    <g id="ytick_2">
     <g id="line2d_12">
      <g>
       <use xlink:href="#m23cb8f3127" x="111.123438" y="206.784" style="stroke: #000000; stroke-width: 0.8"/>
      </g>
     </g>
     <g id="text_13">
      <!-- Ambient Mesh -->
      <g transform="translate(32.498438 210.583219) scale(0.1 -0.1)">
       <defs>
        <path id="DejaVuSans-41" d="M 2188 4044 
L 1331 1722 
L 3047 1722 
L 2188 4044 
z
M 1831 4666 
L 2547 4666 
L 4325 0 
L 3669 0 
L 3244 1197 
L 1141 1197 
L 716 0 
L 50 0 
L 1831 4666 
z
" transform="scale(0.015625)"/>
        <path id="DejaVuSans-6d" d="M 3328 2828 
Q 3544 3216 3844 3400 
Q 4144 3584 4550 3584 
Q 5097 3584 5394 3201 
Q 5691 2819 5691 2113 
L 5691 0 
L 5113 0 
L 5113 2094 
Q 5113 2597 4934 2840 
Q 4756 3084 4391 3084 
Q 3944 3084 3684 2787 
Q 3425 2491 3425 1978 
L 3425 0 
L 2847 0 
L 2847 2094 
Q 2847 2600 2669 2842 
Q 2491 3084 2119 3084 
Q 1678 3084 1418 2786 
Q 1159 2488 1159 1978 
L 1159 0 
L 581 0 
L 581 3500 
L 1159 3500 
L 1159 2956 
Q 1356 3278 1631 3431 
Q 1906 3584 2284 3584 
Q 2666 3584 2933 3390 
Q 3200 3197 3328 2828 
z
" transform="scale(0.015625)"/>
        <path id="DejaVuSans-62" d="M 3116 1747 
Q 3116 2381 2855 2742 
Q 2594 3103 2138 3103 
Q 1681 3103 1420 2742 
Q 1159 2381 1159 1747 
Q 1159 1113 1420 752 
Q 1681 391 2138 391 
Q 2594 391 2855 752 
Q 3116 1113 3116 1747 
z
M 1159 2969 
Q 1341 3281 1617 3432 
Q 1894 3584 2278 3584 
Q 2916 3584 3314 3078 
Q 3713 2572 3713 1747 
Q 3713 922 3314 415 
Q 2916 -91 2278 -91 
Q 1894 -91 1617 61 
Q 1341 213 1159 525 
L 1159 0 
L 581 0 
L 581 4863 
L 1159 4863 
L 1159 2969 
z
" transform="scale(0.015625)"/>
       </defs>
       <use xlink:href="#DejaVuSans-41"/>
       <use xlink:href="#DejaVuSans-6d" transform="translate(68.408203 0)"/>
       <use xlink:href="#DejaVuSans-62" transform="translate(165.820312 0)"/>
       <use xlink:href="#DejaVuSans-69" transform="translate(229.296875 0)"/>
       <use xlink:href="#DejaVuSans-65" transform="translate(257.080078 0)"/>
       <use xlink:href="#DejaVuSans-6e" transform="translate(318.603516 0)"/>
       <use xlink:href="#DejaVuSans-74" transform="translate(381.982422 0)"/>
       <use xlink:href="#DejaVuSans-20" transform="translate(421.191406 0)"/>
       <use xlink:href="#DejaVuSans-4d" transform="translate(452.978516 0)"/>
       <use xlink:href="#DejaVuSans-65" transform="translate(539.257812 0)"/>
       <use xlink:href="#DejaVuSans-73" transform="translate(600.78125 0)"/>
       <use xlink:href="#DejaVuSans-68" transform="translate(652.880859 0)"/>
      </g>
     </g>
    </g>
    <g id="text_14">
     <!-- Mode -->
     <g transform="translate(14.798438 153.880219) rotate(-90) scale(0.1 -0.1)">
      <defs>
       <path id="DejaVuSans-64" d="M 2906 2969 
L 2906 4863 
L 3481 4863 
L 3481 0 
L 2906 0 
L 2906 525 
Q 2725 213 2448 61 
Q 2172 -91 1784 -91 
Q 1150 -91 751 415 
Q 353 922 353 1747 
Q 353 2572 751 3078 
Q 1150 3584 1784 3584 
Q 2172 3584 2448 3432 
Q 2725 3281 2906 2969 
z
M 947 1747 
Q 947 1113 1208 752 
Q 1469 391 1925 391 
Q 2381 391 2643 752 
Q 2906 1113 2906 1747 
Q 2906 2381 2643 2742 
Q 2381 3103 1925 3103 
Q 1469 3103 1208 2742 
Q 947 2381 947 1747 
z
" transform="scale(0.015625)"/>
      </defs>
      <use xlink:href="#DejaVuSans-4d"/>
      <use xlink:href="#DejaVuSans-6f" transform="translate(86.279297 0)"/>
      <use xlink:href="#DejaVuSans-64" transform="translate(147.460938 0)"/>
      <use xlink:href="#DejaVuSans-65" transform="translate(210.9375 0)"/>
     </g>
    </g>
   </g>
   <g id="line2d_13">
    <path d="M 172.419514 20.513808 
L 172.419514 73.728 
" clip-path="url(#pae4d94e5ec)" style="fill: none; stroke-dasharray: 1.5625,0.9375; stroke-dashoffset: 0; stroke: #3f3f3f; stroke-width: 1.25"/>
   </g>
   <g id="line2d_14">
    <path d="M 201.157358 32.156583 
L 201.157358 73.728 
" clip-path="url(#pae4d94e5ec)" style="fill: none; stroke-dasharray: 3.125,1.25; stroke-dashoffset: 0; stroke: #3f3f3f; stroke-width: 1.25"/>
   </g>
   <g id="line2d_15">
    <path d="M 250.931751 56.571932 
L 250.931751 73.728 
" clip-path="url(#pae4d94e5ec)" style="fill: none; stroke-dasharray: 1.5625,0.9375; stroke-dashoffset: 0; stroke: #3f3f3f; stroke-width: 1.25"/>
   </g>
   <g id="line2d_16">
    <path d="M 169.92523 73.728 
L 169.92523 122.698698 
" clip-path="url(#pae4d94e5ec)" style="fill: none; stroke-dasharray: 1.5625,0.9375; stroke-dashoffset: 0; stroke: #3f3f3f; stroke-width: 1.25"/>
   </g>
   <g id="line2d_17">
    <path d="M 198.442452 73.728 
L 198.442452 106.925088 
" clip-path="url(#pae4d94e5ec)" style="fill: none; stroke-dasharray: 3.125,1.25; stroke-dashoffset: 0; stroke: #3f3f3f; stroke-width: 1.25"/>
   </g>
   <g id="line2d_18">
    <path d="M 250.113748 73.728 
L 250.113748 90.886491 
" clip-path="url(#pae4d94e5ec)" style="fill: none; stroke-dasharray: 1.5625,0.9375; stroke-dashoffset: 0; stroke: #3f3f3f; stroke-width: 1.25"/>
   </g>
   <g id="line2d_19">
    <path d="M 175.731604 157.227971 
L 175.731604 206.784 
" clip-path="url(#pae4d94e5ec)" style="fill: none; stroke-dasharray: 1.5625,0.9375; stroke-dashoffset: 0; stroke: #3f3f3f; stroke-width: 1.25"/>
   </g>
   <g id="line2d_20">
    <path d="M 207.754158 171.344929 
L 207.754158 206.784 
" clip-path="url(#pae4d94e5ec)" style="fill: none; stroke-dasharray: 3.125,1.25; stroke-dashoffset: 0; stroke: #3f3f3f; stroke-width: 1.25"/>
   </g>
   <g id="line2d_21">
    <path d="M 261.475918 189.127626 
L 261.475918 206.784 
" clip-path="url(#pae4d94e5ec)" style="fill: none; stroke-dasharray: 1.5625,0.9375; stroke-dashoffset: 0; stroke: #3f3f3f; stroke-width: 1.25"/>
   </g>
   <g id="line2d_22">
    <path d="M 169.648263 206.784 
L 169.648263 259.924195 
" clip-path="url(#pae4d94e5ec)" style="fill: none; stroke-dasharray: 1.5625,0.9375; stroke-dashoffset: 0; stroke: #3f3f3f; stroke-width: 1.25"/>
   </g>
   <g id="line2d_23">
    <path d="M 193.371348 206.784 
L 193.371348 247.291729 
" clip-path="url(#pae4d94e5ec)" style="fill: none; stroke-dasharray: 3.125,1.25; stroke-dashoffset: 0; stroke: #3f3f3f; stroke-width: 1.25"/>
   </g>
   <g id="line2d_24">
    <path d="M 237.295918 206.784 
L 237.295918 223.938083 
" clip-path="url(#pae4d94e5ec)" style="fill: none; stroke-dasharray: 1.5625,0.9375; stroke-dashoffset: 0; stroke: #3f3f3f; stroke-width: 1.25"/>
   </g>
   <g id="patch_5">
    <path d="M 111.123438 273.312 
L 111.123438 7.2 
" style="fill: none; stroke: #000000; stroke-width: 0.8; stroke-linejoin: miter; stroke-linecap: square"/>
   </g>
   <g id="patch_6">
    <path d="M 468.243438 273.312 
L 468.243438 7.2 
" style="fill: none; stroke: #000000; stroke-width: 0.8; stroke-linejoin: miter; stroke-linecap: square"/>
   </g>
   <g id="patch_7">
    <path d="M 111.123438 273.312 
L 468.243438 273.312 
" style="fill: none; stroke: #000000; stroke-width: 0.8; stroke-linejoin: miter; stroke-linecap: square"/>
   </g>
   <g id="patch_8">
    <path d="M 111.123438 7.2 
L 468.243438 7.2 
" style="fill: none; stroke: #000000; stroke-width: 0.8; stroke-linejoin: miter; stroke-linecap: square"/>
   </g>
   <g id="legend_1">
    <g id="patch_9">
     <path d="M 365.274688 59.234375 
L 461.243438 59.234375 
Q 463.243438 59.234375 463.243438 57.234375 
L 463.243438 14.2 
Q 463.243438 12.2 461.243438 12.2 
L 365.274688 12.2 
Q 363.274688 12.2 363.274688 14.2 
L 363.274688 57.234375 
Q 363.274688 59.234375 365.274688 59.234375 
z
" style="fill: #ffffff; opacity: 0.8; stroke: #cccccc; stroke-linejoin: miter"/>
    </g>
    <g id="text_15">
     <!-- Scenario -->
     <g transform="translate(391.522344 23.798437) scale(0.1 -0.1)">
      <use xlink:href="#DejaVuSans-53"/>
      <use xlink:href="#DejaVuSans-63" transform="translate(63.476562 0)"/>
      <use xlink:href="#DejaVuSans-65" transform="translate(118.457031 0)"/>
      <use xlink:href="#DejaVuSans-6e" transform="translate(179.980469 0)"/>
      <use xlink:href="#DejaVuSans-61" transform="translate(243.359375 0)"/>
      <use xlink:href="#DejaVuSans-72" transform="translate(304.638672 0)"/>
      <use xlink:href="#DejaVuSans-69" transform="translate(345.751953 0)"/>
      <use xlink:href="#DejaVuSans-6f" transform="translate(373.535156 0)"/>
     </g>
    </g>
    <g id="patch_10">
     <path d="M 367.274688 38.476562 
L 387.274688 38.476562 
L 387.274688 31.476562 
L 367.274688 31.476562 
z
" style="fill: #3274a1; stroke: #3f3f3f; stroke-width: 1.25; stroke-linejoin: miter"/>
    </g>
    <g id="text_16">
     <!-- Baseline -->
     <g transform="translate(395.274688 38.476562) scale(0.1 -0.1)">
      <defs>
       <path id="DejaVuSans-42" d="M 1259 2228 
L 1259 519 
L 2272 519 
Q 2781 519 3026 730 
Q 3272 941 3272 1375 
Q 3272 1813 3026 2020 
Q 2781 2228 2272 2228 
L 1259 2228 
z
M 1259 4147 
L 1259 2741 
L 2194 2741 
Q 2656 2741 2882 2914 
Q 3109 3088 3109 3444 
Q 3109 3797 2882 3972 
Q 2656 4147 2194 4147 
L 1259 4147 
z
M 628 4666 
L 2241 4666 
Q 2963 4666 3353 4366 
Q 3744 4066 3744 3513 
Q 3744 3084 3544 2831 
Q 3344 2578 2956 2516 
Q 3422 2416 3680 2098 
Q 3938 1781 3938 1306 
Q 3938 681 3513 340 
Q 3088 0 2303 0 
L 628 0 
L 628 4666 
z
" transform="scale(0.015625)"/>
       <path id="DejaVuSans-6c" d="M 603 4863 
L 1178 4863 
L 1178 0 
L 603 0 
L 603 4863 
z
" transform="scale(0.015625)"/>
      </defs>
      <use xlink:href="#DejaVuSans-42"/>
      <use xlink:href="#DejaVuSans-61" transform="translate(68.603516 0)"/>
      <use xlink:href="#DejaVuSans-73" transform="translate(129.882812 0)"/>
      <use xlink:href="#DejaVuSans-65" transform="translate(181.982422 0)"/>
      <use xlink:href="#DejaVuSans-6c" transform="translate(243.505859 0)"/>
      <use xlink:href="#DejaVuSans-69" transform="translate(271.289062 0)"/>
      <use xlink:href="#DejaVuSans-6e" transform="translate(299.072266 0)"/>
      <use xlink:href="#DejaVuSans-65" transform="translate(362.451172 0)"/>
     </g>
    </g>
    <g id="patch_11">
     <path d="M 367.274688 53.154688 
L 387.274688 53.154688 
L 387.274688 46.154688 
L 367.274688 46.154688 
z
" style="fill: #e1812c; stroke: #3f3f3f; stroke-width: 1.25; stroke-linejoin: miter"/>
    </g>
    <g id="text_17">
     <!-- Optimization -->
     <g transform="translate(395.274688 53.154688) scale(0.1 -0.1)">
      <defs>
       <path id="DejaVuSans-4f" d="M 2522 4238 
Q 1834 4238 1429 3725 
Q 1025 3213 1025 2328 
Q 1025 1447 1429 934 
Q 1834 422 2522 422 
Q 3209 422 3611 934 
Q 4013 1447 4013 2328 
Q 4013 3213 3611 3725 
Q 3209 4238 2522 4238 
z
M 2522 4750 
Q 3503 4750 4090 4092 
Q 4678 3434 4678 2328 
Q 4678 1225 4090 567 
Q 3503 -91 2522 -91 
Q 1538 -91 948 565 
Q 359 1222 359 2328 
Q 359 3434 948 4092 
Q 1538 4750 2522 4750 
z
" transform="scale(0.015625)"/>
       <path id="DejaVuSans-70" d="M 1159 525 
L 1159 -1331 
L 581 -1331 
L 581 3500 
L 1159 3500 
L 1159 2969 
Q 1341 3281 1617 3432 
Q 1894 3584 2278 3584 
Q 2916 3584 3314 3078 
Q 3713 2572 3713 1747 
Q 3713 922 3314 415 
Q 2916 -91 2278 -91 
Q 1894 -91 1617 61 
Q 1341 213 1159 525 
z
M 3116 1747 
Q 3116 2381 2855 2742 
Q 2594 3103 2138 3103 
Q 1681 3103 1420 2742 
Q 1159 2381 1159 1747 
Q 1159 1113 1420 752 
Q 1681 391 2138 391 
Q 2594 391 2855 752 
Q 3116 1113 3116 1747 
z
" transform="scale(0.015625)"/>
       <path id="DejaVuSans-7a" d="M 353 3500 
L 3084 3500 
L 3084 2975 
L 922 459 
L 3084 459 
L 3084 0 
L 275 0 
L 275 525 
L 2438 3041 
L 353 3041 
L 353 3500 
z
" transform="scale(0.015625)"/>
      </defs>
      <use xlink:href="#DejaVuSans-4f"/>
      <use xlink:href="#DejaVuSans-70" transform="translate(78.710938 0)"/>
      <use xlink:href="#DejaVuSans-74" transform="translate(142.1875 0)"/>
      <use xlink:href="#DejaVuSans-69" transform="translate(181.396484 0)"/>
      <use xlink:href="#DejaVuSans-6d" transform="translate(209.179688 0)"/>
      <use xlink:href="#DejaVuSans-69" transform="translate(306.591797 0)"/>
      <use xlink:href="#DejaVuSans-7a" transform="translate(334.375 0)"/>
      <use xlink:href="#DejaVuSans-61" transform="translate(386.865234 0)"/>
      <use xlink:href="#DejaVuSans-74" transform="translate(448.144531 0)"/>
      <use xlink:href="#DejaVuSans-69" transform="translate(487.353516 0)"/>
      <use xlink:href="#DejaVuSans-6f" transform="translate(515.136719 0)"/>
      <use xlink:href="#DejaVuSans-6e" transform="translate(576.318359 0)"/>
     </g>
    </g>
   </g>
  </g>
 </g>
 <defs>
  <clipPath id="pae4d94e5ec">
   <rect x="111.123438" y="7.2" width="357.12" height="266.112"/>
  </clipPath>
 </defs>
</svg>
