<?xml version="1.0" encoding="utf-8" standalone="no"?>
<!DOCTYPE svg PUBLIC "-//W3C//DTD SVG 1.1//EN"
  "http://www.w3.org/Graphics/SVG/1.1/DTD/svg11.dtd">
<svg xmlns:xlink="http://www.w3.org/1999/xlink" width="469.831589pt" height="314.667469pt" viewBox="0 0 469.831589 314.667469" xmlns="http://www.w3.org/2000/svg" version="1.1">
 <metadata>
  <rdf:RDF xmlns:dc="http://purl.org/dc/elements/1.1/" xmlns:cc="http://creativecommons.org/ns#" xmlns:rdf="http://www.w3.org/1999/02/22-rdf-syntax-ns#">
   <cc:Work>
    <dc:type rdf:resource="http://purl.org/dc/dcmitype/StillImage"/>
    <dc:date>2025-02-04T01:17:40.201126</dc:date>
    <dc:format>image/svg+xml</dc:format>
    <dc:creator>
     <cc:Agent>
      <dc:title>Matplotlib v3.10.0, https://matplotlib.org/</dc:title>
     </cc:Agent>
    </dc:creator>
   </cc:Work>
  </rdf:RDF>
 </metadata>
 <defs>
  <style type="text/css">*{stroke-linejoin: round; stroke-linecap: butt}</style>
 </defs>
 <g id="figure_1">
  <g id="patch_1">
   <path d="M 0 314.667469 
L 469.831589 314.667469 
L 469.831589 0 
L 0 0 
z
" style="fill: #ffffff"/>
  </g>
  <g id="axes_1">
   <g id="patch_2">
    <path d="M 94.980938 277.111219 
L 452.100938 277.111219 
L 452.100938 10.999219 
L 94.980938 10.999219 
z
" style="fill: #ffffff"/>
   </g>
   <g id="PathCollection_1">
    <path d="M 117.892117 253.372729 
C 118.687726 253.372729 119.450857 253.05663 120.013437 252.494049 
C 120.576018 251.931468 120.892117 251.168338 120.892117 250.372729 
C 120.892117 249.577119 120.576018 248.813989 120.013437 248.251408 
C 119.450857 247.688827 118.687726 247.372729 117.892117 247.372729 
C 117.096508 247.372729 116.333377 247.688827 115.770797 248.251408 
C 115.208216 248.813989 114.892117 249.577119 114.892117 250.372729 
C 114.892117 251.168338 115.208216 251.931468 115.770797 252.494049 
C 116.333377 253.05663 117.096508 253.372729 117.892117 253.372729 
z
" clip-path="url(#pf43169f485)" style="fill: #1f77b4; stroke: #ffffff; stroke-width: 0.48"/>
    <path d="M 118.301002 247.23929 
C 119.096611 247.23929 119.859741 246.923192 120.422322 246.360611 
C 120.984903 245.79803 121.301002 245.0349 121.301002 244.23929 
C 121.301002 243.443681 120.984903 242.680551 120.422322 242.11797 
C 119.859741 241.555389 119.096611 241.23929 118.301002 241.23929 
C 117.505393 241.23929 116.742262 241.555389 116.179681 242.11797 
C 115.617101 242.680551 115.301002 243.443681 115.301002 244.23929 
C 115.301002 245.0349 115.617101 245.79803 116.179681 246.360611 
C 116.742262 246.923192 117.505393 247.23929 118.301002 247.23929 
z
" clip-path="url(#pf43169f485)" style="fill: #1f77b4; stroke: #ffffff; stroke-width: 0.48"/>
    <path d="M 119.118771 258.297575 
C 119.914381 258.297575 120.677511 257.981476 121.240092 257.418895 
C 121.802673 256.856314 122.118771 256.093184 122.118771 255.297575 
C 122.118771 254.501965 121.802673 253.738835 121.240092 253.176254 
C 120.677511 252.613674 119.914381 252.297575 119.118771 252.297575 
C 118.323162 252.297575 117.560032 252.613674 116.997451 253.176254 
C 116.43487 253.738835 116.118771 254.501965 116.118771 255.297575 
C 116.118771 256.093184 116.43487 256.856314 116.997451 257.418895 
C 117.560032 257.981476 118.323162 258.297575 119.118771 258.297575 
z
" clip-path="url(#pf43169f485)" style="fill: #1f77b4; stroke: #ffffff; stroke-width: 0.48"/>
    <path d="M 121.980965 214.033392 
C 122.776574 214.033392 123.539705 213.717293 124.102286 213.154712 
C 124.664866 212.592131 124.980965 211.829001 124.980965 211.033392 
C 124.980965 210.237782 124.664866 209.474652 124.102286 208.912071 
C 123.539705 208.34949 122.776574 208.033392 121.980965 208.033392 
C 121.185356 208.033392 120.422226 208.34949 119.859645 208.912071 
C 119.297064 209.474652 118.980965 210.237782 118.980965 211.033392 
C 118.980965 211.829001 119.297064 212.592131 119.859645 213.154712 
C 120.422226 213.717293 121.185356 214.033392 121.980965 214.033392 
z
" clip-path="url(#pf43169f485)" style="fill: #1f77b4; stroke: #ffffff; stroke-width: 0.48"/>
    <path d="M 123.616504 256.872988 
C 124.412114 256.872988 125.175244 256.556889 125.737825 255.994309 
C 126.300406 255.431728 126.616504 254.668598 126.616504 253.872988 
C 126.616504 253.077379 126.300406 252.314249 125.737825 251.751668 
C 125.175244 251.189087 124.412114 250.872988 123.616504 250.872988 
C 122.820895 250.872988 122.057765 251.189087 121.495184 251.751668 
C 120.932603 252.314249 120.616504 253.077379 120.616504 253.872988 
C 120.616504 254.668598 120.932603 255.431728 121.495184 255.994309 
C 122.057765 256.556889 122.820895 256.872988 123.616504 256.872988 
z
" clip-path="url(#pf43169f485)" style="fill: #1f77b4; stroke: #ffffff; stroke-width: 0.48"/>
    <path d="M 126.614993 257.337354 
C 127.410602 257.337354 128.173733 257.021255 128.736313 256.458674 
C 129.298894 255.896093 129.614993 255.132963 129.614993 254.337354 
C 129.614993 253.541744 129.298894 252.778614 128.736313 252.216033 
C 128.173733 251.653453 127.410602 251.337354 126.614993 251.337354 
C 125.819384 251.337354 125.056254 251.653453 124.493673 252.216033 
C 123.931092 252.778614 123.614993 253.541744 123.614993 254.337354 
C 123.614993 255.132963 123.931092 255.896093 124.493673 256.458674 
C 125.056254 257.021255 125.819384 257.337354 126.614993 257.337354 
z
" clip-path="url(#pf43169f485)" style="fill: #1f77b4; stroke: #ffffff; stroke-width: 0.48"/>
    <path d="M 133.42974 233.827246 
C 134.225349 233.827246 134.98848 233.511147 135.55106 232.948566 
C 136.113641 232.385985 136.42974 231.622855 136.42974 230.827246 
C 136.42974 230.031636 136.113641 229.268506 135.55106 228.705925 
C 134.98848 228.143345 134.225349 227.827246 133.42974 227.827246 
C 132.634131 227.827246 131.871 228.143345 131.30842 228.705925 
C 130.745839 229.268506 130.42974 230.031636 130.42974 230.827246 
C 130.42974 231.622855 130.745839 232.385985 131.30842 232.948566 
C 131.871 233.511147 132.634131 233.827246 133.42974 233.827246 
z
" clip-path="url(#pf43169f485)" style="fill: #1f77b4; stroke: #ffffff; stroke-width: 0.48"/>
    <path d="M 183.586278 207.679524 
C 184.381887 207.679524 185.145017 207.363425 185.707598 206.800844 
C 186.270179 206.238264 186.586278 205.475133 186.586278 204.679524 
C 186.586278 203.883915 186.270179 203.120784 185.707598 202.558204 
C 185.145017 201.995623 184.381887 201.679524 183.586278 201.679524 
C 182.790668 201.679524 182.027538 201.995623 181.464957 202.558204 
C 180.902377 203.120784 180.586278 203.883915 180.586278 204.679524 
C 180.586278 205.475133 180.902377 206.238264 181.464957 206.800844 
C 182.027538 207.363425 182.790668 207.679524 183.586278 207.679524 
z
" clip-path="url(#pf43169f485)" style="fill: #1f77b4; stroke: #ffffff; stroke-width: 0.48"/>
    <path d="M 187.947716 239.615625 
C 188.743325 239.615625 189.506455 239.299526 190.069036 238.736945 
C 190.631617 238.174365 190.947716 237.411234 190.947716 236.615625 
C 190.947716 235.820016 190.631617 235.056886 190.069036 234.494305 
C 189.506455 233.931724 188.743325 233.615625 187.947716 233.615625 
C 187.152107 233.615625 186.388976 233.931724 185.826395 234.494305 
C 185.263815 235.056886 184.947716 235.820016 184.947716 236.615625 
C 184.947716 237.411234 185.263815 238.174365 185.826395 238.736945 
C 186.388976 239.299526 187.152107 239.615625 187.947716 239.615625 
z
" clip-path="url(#pf43169f485)" style="fill: #1f77b4; stroke: #ffffff; stroke-width: 0.48"/>
    <path d="M 191.900269 191.416533 
C 192.695878 191.416533 193.459009 191.100434 194.021589 190.537853 
C 194.58417 189.975272 194.900269 189.212142 194.900269 188.416533 
C 194.900269 187.620923 194.58417 186.857793 194.021589 186.295212 
C 193.459009 185.732632 192.695878 185.416533 191.900269 185.416533 
C 191.10466 185.416533 190.341529 185.732632 189.778949 186.295212 
C 189.216368 186.857793 188.900269 187.620923 188.900269 188.416533 
C 188.900269 189.212142 189.216368 189.975272 189.778949 190.537853 
C 190.341529 191.100434 191.10466 191.416533 191.900269 191.416533 
z
" clip-path="url(#pf43169f485)" style="fill: #1f77b4; stroke: #ffffff; stroke-width: 0.48"/>
    <path d="M 199.123901 229.765489 
C 199.91951 229.765489 200.68264 229.449391 201.245221 228.88681 
C 201.807802 228.324229 202.123901 227.561099 202.123901 226.765489 
C 202.123901 225.96988 201.807802 225.20675 201.245221 224.644169 
C 200.68264 224.081588 199.91951 223.765489 199.123901 223.765489 
C 198.328292 223.765489 197.565161 224.081588 197.002581 224.644169 
C 196.44 225.20675 196.123901 225.96988 196.123901 226.765489 
C 196.123901 227.561099 196.44 228.324229 197.002581 228.88681 
C 197.565161 229.449391 198.328292 229.765489 199.123901 229.765489 
z
" clip-path="url(#pf43169f485)" style="fill: #1f77b4; stroke: #ffffff; stroke-width: 0.48"/>
    <path d="M 208.391957 202.320472 
C 209.187566 202.320472 209.950696 202.004373 210.513277 201.441792 
C 211.075858 200.879211 211.391957 200.116081 211.391957 199.320472 
C 211.391957 198.524863 211.075858 197.761732 210.513277 197.199152 
C 209.950696 196.636571 209.187566 196.320472 208.391957 196.320472 
C 207.596347 196.320472 206.833217 196.636571 206.270636 197.199152 
C 205.708056 197.761732 205.391957 198.524863 205.391957 199.320472 
C 205.391957 200.116081 205.708056 200.879211 206.270636 201.441792 
C 206.833217 202.004373 207.596347 202.320472 208.391957 202.320472 
z
" clip-path="url(#pf43169f485)" style="fill: #1f77b4; stroke: #ffffff; stroke-width: 0.48"/>
    <path d="M 210.436381 250.643306 
C 211.23199 250.643306 211.99512 250.327208 212.557701 249.764627 
C 213.120282 249.202046 213.436381 248.438916 213.436381 247.643306 
C 213.436381 246.847697 213.120282 246.084567 212.557701 245.521986 
C 211.99512 244.959405 211.23199 244.643306 210.436381 244.643306 
C 209.640772 244.643306 208.877641 244.959405 208.31506 245.521986 
C 207.75248 246.084567 207.436381 246.847697 207.436381 247.643306 
C 207.436381 248.438916 207.75248 249.202046 208.31506 249.764627 
C 208.877641 250.327208 209.640772 250.643306 210.436381 250.643306 
z
" clip-path="url(#pf43169f485)" style="fill: #1f77b4; stroke: #ffffff; stroke-width: 0.48"/>
    <path d="M 218.750372 225.955209 
C 219.545981 225.955209 220.309112 225.63911 220.871692 225.076529 
C 221.434273 224.513949 221.750372 223.750818 221.750372 222.955209 
C 221.750372 222.1596 221.434273 221.39647 220.871692 220.833889 
C 220.309112 220.271308 219.545981 219.955209 218.750372 219.955209 
C 217.954763 219.955209 217.191632 220.271308 216.629052 220.833889 
C 216.066471 221.39647 215.750372 222.1596 215.750372 222.955209 
C 215.750372 223.750818 216.066471 224.513949 216.629052 225.076529 
C 217.191632 225.63911 217.954763 225.955209 218.750372 225.955209 
z
" clip-path="url(#pf43169f485)" style="fill: #1f77b4; stroke: #ffffff; stroke-width: 0.48"/>
    <path d="M 229.108787 253.43083 
C 229.904397 253.43083 230.667527 253.114731 231.230108 252.55215 
C 231.792689 251.989569 232.108787 251.226439 232.108787 250.43083 
C 232.108787 249.63522 231.792689 248.87209 231.230108 248.309509 
C 230.667527 247.746929 229.904397 247.43083 229.108787 247.43083 
C 228.313178 247.43083 227.550048 247.746929 226.987467 248.309509 
C 226.424886 248.87209 226.108787 249.63522 226.108787 250.43083 
C 226.108787 251.226439 226.424886 251.989569 226.987467 252.55215 
C 227.550048 253.114731 228.313178 253.43083 229.108787 253.43083 
z
" clip-path="url(#pf43169f485)" style="fill: #1f77b4; stroke: #ffffff; stroke-width: 0.48"/>
    <path d="M 233.333931 249.373509 
C 234.12954 249.373509 234.89267 249.05741 235.455251 248.494829 
C 236.017832 247.932248 236.333931 247.169118 236.333931 246.373509 
C 236.333931 245.577899 236.017832 244.814769 235.455251 244.252188 
C 234.89267 243.689608 234.12954 243.373509 233.333931 243.373509 
C 232.538321 243.373509 231.775191 243.689608 231.21261 244.252188 
C 230.65003 244.814769 230.333931 245.577899 230.333931 246.373509 
C 230.333931 247.169118 230.65003 247.932248 231.21261 248.494829 
C 231.775191 249.05741 232.538321 249.373509 233.333931 249.373509 
z
" clip-path="url(#pf43169f485)" style="fill: #1f77b4; stroke: #ffffff; stroke-width: 0.48"/>
    <path d="M 233.470226 246.926165 
C 234.265835 246.926165 235.028965 246.610066 235.591546 246.047486 
C 236.154127 245.484905 236.470226 244.721775 236.470226 243.926165 
C 236.470226 243.130556 236.154127 242.367426 235.591546 241.804845 
C 235.028965 241.242264 234.265835 240.926165 233.470226 240.926165 
C 232.674616 240.926165 231.911486 241.242264 231.348905 241.804845 
C 230.786324 242.367426 230.470226 243.130556 230.470226 243.926165 
C 230.470226 244.721775 230.786324 245.484905 231.348905 246.047486 
C 231.911486 246.610066 232.674616 246.926165 233.470226 246.926165 
z
" clip-path="url(#pf43169f485)" style="fill: #1f77b4; stroke: #ffffff; stroke-width: 0.48"/>
    <path d="M 280.628275 227.039172 
C 281.423884 227.039172 282.187014 226.723073 282.749595 226.160492 
C 283.312176 225.597912 283.628275 224.834781 283.628275 224.039172 
C 283.628275 223.243563 283.312176 222.480432 282.749595 221.917852 
C 282.187014 221.355271 281.423884 221.039172 280.628275 221.039172 
C 279.832665 221.039172 279.069535 221.355271 278.506954 221.917852 
C 277.944373 222.480432 277.628275 223.243563 277.628275 224.039172 
C 277.628275 224.834781 277.944373 225.597912 278.506954 226.160492 
C 279.069535 226.723073 279.832665 227.039172 280.628275 227.039172 
z
" clip-path="url(#pf43169f485)" style="fill: #1f77b4; stroke: #ffffff; stroke-width: 0.48"/>
    <path d="M 296.983667 250.395379 
C 297.779277 250.395379 298.542407 250.07928 299.104988 249.516699 
C 299.667568 248.954118 299.983667 248.190988 299.983667 247.395379 
C 299.983667 246.599769 299.667568 245.836639 299.104988 245.274058 
C 298.542407 244.711478 297.779277 244.395379 296.983667 244.395379 
C 296.188058 244.395379 295.424928 244.711478 294.862347 245.274058 
C 294.299766 245.836639 293.983667 246.599769 293.983667 247.395379 
C 293.983667 248.190988 294.299766 248.954118 294.862347 249.516699 
C 295.424928 250.07928 296.188058 250.395379 296.983667 250.395379 
z
" clip-path="url(#pf43169f485)" style="fill: #1f77b4; stroke: #ffffff; stroke-width: 0.48"/>
    <path d="M 305.297659 257.643826 
C 306.093268 257.643826 306.856398 257.327727 307.418979 256.765146 
C 307.98156 256.202566 308.297659 255.439435 308.297659 254.643826 
C 308.297659 253.848217 307.98156 253.085086 307.418979 252.522506 
C 306.856398 251.959925 306.093268 251.643826 305.297659 251.643826 
C 304.502049 251.643826 303.738919 251.959925 303.176338 252.522506 
C 302.613758 253.085086 302.297659 253.848217 302.297659 254.643826 
C 302.297659 255.439435 302.613758 256.202566 303.176338 256.765146 
C 303.738919 257.327727 304.502049 257.643826 305.297659 257.643826 
z
" clip-path="url(#pf43169f485)" style="fill: #1f77b4; stroke: #ffffff; stroke-width: 0.48"/>
    <path d="M 311.022046 249.373065 
C 311.817655 249.373065 312.580786 249.056966 313.143366 248.494385 
C 313.705947 247.931805 314.022046 247.168674 314.022046 246.373065 
C 314.022046 245.577456 313.705947 244.814326 313.143366 244.251745 
C 312.580786 243.689164 311.817655 243.373065 311.022046 243.373065 
C 310.226437 243.373065 309.463306 243.689164 308.900726 244.251745 
C 308.338145 244.814326 308.022046 245.577456 308.022046 246.373065 
C 308.022046 247.168674 308.338145 247.931805 308.900726 248.494385 
C 309.463306 249.056966 310.226437 249.373065 311.022046 249.373065 
z
" clip-path="url(#pf43169f485)" style="fill: #1f77b4; stroke: #ffffff; stroke-width: 0.48"/>
    <path d="M 334.601071 259.223644 
C 335.39668 259.223644 336.15981 258.907545 336.722391 258.344965 
C 337.284972 257.782384 337.601071 257.019254 337.601071 256.223644 
C 337.601071 255.428035 337.284972 254.664905 336.722391 254.102324 
C 336.15981 253.539743 335.39668 253.223644 334.601071 253.223644 
C 333.805461 253.223644 333.042331 253.539743 332.47975 254.102324 
C 331.917169 254.664905 331.601071 255.428035 331.601071 256.223644 
C 331.601071 257.019254 331.917169 257.782384 332.47975 258.344965 
C 333.042331 258.907545 333.805461 259.223644 334.601071 259.223644 
z
" clip-path="url(#pf43169f485)" style="fill: #1f77b4; stroke: #ffffff; stroke-width: 0.48"/>
    <path d="M 345.640961 257.489038 
C 346.43657 257.489038 347.1997 257.172939 347.762281 256.610358 
C 348.324862 256.047777 348.640961 255.284647 348.640961 254.489038 
C 348.640961 253.693428 348.324862 252.930298 347.762281 252.367717 
C 347.1997 251.805137 346.43657 251.489038 345.640961 251.489038 
C 344.845351 251.489038 344.082221 251.805137 343.51964 252.367717 
C 342.95706 252.930298 342.640961 253.693428 342.640961 254.489038 
C 342.640961 255.284647 342.95706 256.047777 343.51964 256.610358 
C 344.082221 257.172939 344.845351 257.489038 345.640961 257.489038 
z
" clip-path="url(#pf43169f485)" style="fill: #1f77b4; stroke: #ffffff; stroke-width: 0.48"/>
    <path d="M 350.547578 245.005724 
C 351.343188 245.005724 352.106318 244.689625 352.668899 244.127044 
C 353.23148 243.564463 353.547578 242.801333 353.547578 242.005724 
C 353.547578 241.210114 353.23148 240.446984 352.668899 239.884403 
C 352.106318 239.321823 351.343188 239.005724 350.547578 239.005724 
C 349.751969 239.005724 348.988839 239.321823 348.426258 239.884403 
C 347.863677 240.446984 347.547578 241.210114 347.547578 242.005724 
C 347.547578 242.801333 347.863677 243.564463 348.426258 244.127044 
C 348.988839 244.689625 349.751969 245.005724 350.547578 245.005724 
z
" clip-path="url(#pf43169f485)" style="fill: #1f77b4; stroke: #ffffff; stroke-width: 0.48"/>
    <path d="M 353.546067 250.767049 
C 354.341676 250.767049 355.104807 250.45095 355.667387 249.888369 
C 356.229968 249.325788 356.546067 248.562658 356.546067 247.767049 
C 356.546067 246.971439 356.229968 246.208309 355.667387 245.645728 
C 355.104807 245.083147 354.341676 244.767049 353.546067 244.767049 
C 352.750458 244.767049 351.987327 245.083147 351.424747 245.645728 
C 350.862166 246.208309 350.546067 246.971439 350.546067 247.767049 
C 350.546067 248.562658 350.862166 249.325788 351.424747 249.888369 
C 351.987327 250.45095 352.750458 250.767049 353.546067 250.767049 
z
" clip-path="url(#pf43169f485)" style="fill: #1f77b4; stroke: #ffffff; stroke-width: 0.48"/>
    <path d="M 354.772722 249.713689 
C 355.568331 249.713689 356.331461 249.39759 356.894042 248.835009 
C 357.456623 248.272428 357.772722 247.509298 357.772722 246.713689 
C 357.772722 245.918079 357.456623 245.154949 356.894042 244.592368 
C 356.331461 244.029787 355.568331 243.713689 354.772722 243.713689 
C 353.977112 243.713689 353.213982 244.029787 352.651401 244.592368 
C 352.08882 245.154949 351.772722 245.918079 351.772722 246.713689 
C 351.772722 247.509298 352.08882 248.272428 352.651401 248.835009 
C 353.213982 249.39759 353.977112 249.713689 354.772722 249.713689 
z
" clip-path="url(#pf43169f485)" style="fill: #1f77b4; stroke: #ffffff; stroke-width: 0.48"/>
    <path d="M 356.271966 236.796169 
C 357.067575 236.796169 357.830705 236.48007 358.393286 235.917489 
C 358.955867 235.354908 359.271966 234.591778 359.271966 233.796169 
C 359.271966 233.000559 358.955867 232.237429 358.393286 231.674848 
C 357.830705 231.112267 357.067575 230.796169 356.271966 230.796169 
C 355.476357 230.796169 354.713226 231.112267 354.150646 231.674848 
C 353.588065 232.237429 353.271966 233.000559 353.271966 233.796169 
C 353.271966 234.591778 353.588065 235.354908 354.150646 235.917489 
C 354.713226 236.48007 355.476357 236.796169 356.271966 236.796169 
z
" clip-path="url(#pf43169f485)" style="fill: #1f77b4; stroke: #ffffff; stroke-width: 0.48"/>
    <path d="M 367.993331 254.886462 
C 368.78894 254.886462 369.55207 254.570363 370.114651 254.007783 
C 370.677232 253.445202 370.993331 252.682072 370.993331 251.886462 
C 370.993331 251.090853 370.677232 250.327723 370.114651 249.765142 
C 369.55207 249.202561 368.78894 248.886462 367.993331 248.886462 
C 367.197721 248.886462 366.434591 249.202561 365.87201 249.765142 
C 365.30943 250.327723 364.993331 251.090853 364.993331 251.886462 
C 364.993331 252.682072 365.30943 253.445202 365.87201 254.007783 
C 366.434591 254.570363 367.197721 254.886462 367.993331 254.886462 
z
" clip-path="url(#pf43169f485)" style="fill: #1f77b4; stroke: #ffffff; stroke-width: 0.48"/>
    <path d="M 376.579912 246.708841 
C 377.375521 246.708841 378.138651 246.392742 378.701232 245.830161 
C 379.263813 245.26758 379.579912 244.50445 379.579912 243.708841 
C 379.579912 242.913231 379.263813 242.150101 378.701232 241.58752 
C 378.138651 241.024939 377.375521 240.708841 376.579912 240.708841 
C 375.784303 240.708841 375.021172 241.024939 374.458591 241.58752 
C 373.896011 242.150101 373.579912 242.913231 373.579912 243.708841 
C 373.579912 244.50445 373.896011 245.26758 374.458591 245.830161 
C 375.021172 246.392742 375.784303 246.708841 376.579912 246.708841 
z
" clip-path="url(#pf43169f485)" style="fill: #1f77b4; stroke: #ffffff; stroke-width: 0.48"/>
    <path d="M 381.077645 251.913104 
C 381.873254 251.913104 382.636384 251.597005 383.198965 251.034425 
C 383.761546 250.471844 384.077645 249.708713 384.077645 248.913104 
C 384.077645 248.117495 383.761546 247.354365 383.198965 246.791784 
C 382.636384 246.229203 381.873254 245.913104 381.077645 245.913104 
C 380.282036 245.913104 379.518905 246.229203 378.956324 246.791784 
C 378.393744 247.354365 378.077645 248.117495 378.077645 248.913104 
C 378.077645 249.708713 378.393744 250.471844 378.956324 251.034425 
C 379.518905 251.597005 380.282036 251.913104 381.077645 251.913104 
z
" clip-path="url(#pf43169f485)" style="fill: #1f77b4; stroke: #ffffff; stroke-width: 0.48"/>
    <path d="M 388.846456 253.244551 
C 389.642066 253.244551 390.405196 252.928452 390.967777 252.365872 
C 391.530357 251.803291 391.846456 251.040161 391.846456 250.244551 
C 391.846456 249.448942 391.530357 248.685812 390.967777 248.123231 
C 390.405196 247.56065 389.642066 247.244551 388.846456 247.244551 
C 388.050847 247.244551 387.287717 247.56065 386.725136 248.123231 
C 386.162555 248.685812 385.846456 249.448942 385.846456 250.244551 
C 385.846456 251.040161 386.162555 251.803291 386.725136 252.365872 
C 387.287717 252.928452 388.050847 253.244551 388.846456 253.244551 
z
" clip-path="url(#pf43169f485)" style="fill: #1f77b4; stroke: #ffffff; stroke-width: 0.48"/>
    <path d="M 388.982751 252.284774 
C 389.778361 252.284774 390.541491 251.968675 391.104072 251.406094 
C 391.666652 250.843514 391.982751 250.080383 391.982751 249.284774 
C 391.982751 248.489165 391.666652 247.726034 391.104072 247.163454 
C 390.541491 246.600873 389.778361 246.284774 388.982751 246.284774 
C 388.187142 246.284774 387.424012 246.600873 386.861431 247.163454 
C 386.29885 247.726034 385.982751 248.489165 385.982751 249.284774 
C 385.982751 250.080383 386.29885 250.843514 386.861431 251.406094 
C 387.424012 251.968675 388.187142 252.284774 388.982751 252.284774 
z
" clip-path="url(#pf43169f485)" style="fill: #1f77b4; stroke: #ffffff; stroke-width: 0.48"/>
    <path d="M 395.116024 222.826176 
C 395.911633 222.826176 396.674763 222.510077 397.237344 221.947496 
C 397.799925 221.384915 398.116024 220.621785 398.116024 219.826176 
C 398.116024 219.030566 397.799925 218.267436 397.237344 217.704855 
C 396.674763 217.142274 395.911633 216.826176 395.116024 216.826176 
C 394.320414 216.826176 393.557284 217.142274 392.994703 217.704855 
C 392.432123 218.267436 392.116024 219.030566 392.116024 219.826176 
C 392.116024 220.621785 392.432123 221.384915 392.994703 221.947496 
C 393.557284 222.510077 394.320414 222.826176 395.116024 222.826176 
z
" clip-path="url(#pf43169f485)" style="fill: #1f77b4; stroke: #ffffff; stroke-width: 0.48"/>
    <path d="M 397.296743 252.903928 
C 398.092352 252.903928 398.855482 252.587829 399.418063 252.025248 
C 399.980644 251.462667 400.296743 250.699537 400.296743 249.903928 
C 400.296743 249.108319 399.980644 248.345188 399.418063 247.782608 
C 398.855482 247.220027 398.092352 246.903928 397.296743 246.903928 
C 396.501133 246.903928 395.738003 247.220027 395.175422 247.782608 
C 394.612842 248.345188 394.296743 249.108319 394.296743 249.903928 
C 394.296743 250.699537 394.612842 251.462667 395.175422 252.025248 
C 395.738003 252.587829 396.501133 252.903928 397.296743 252.903928 
z
" clip-path="url(#pf43169f485)" style="fill: #1f77b4; stroke: #ffffff; stroke-width: 0.48"/>
    <path d="M 397.978217 220.596157 
C 398.773827 220.596157 399.536957 220.280058 400.099538 219.717477 
C 400.662118 219.154897 400.978217 218.391766 400.978217 217.596157 
C 400.978217 216.800548 400.662118 216.037417 400.099538 215.474837 
C 399.536957 214.912256 398.773827 214.596157 397.978217 214.596157 
C 397.182608 214.596157 396.419478 214.912256 395.856897 215.474837 
C 395.294316 216.037417 394.978217 216.800548 394.978217 217.596157 
C 394.978217 218.391766 395.294316 219.154897 395.856897 219.717477 
C 396.419478 220.280058 397.182608 220.596157 397.978217 220.596157 
z
" clip-path="url(#pf43169f485)" style="fill: #1f77b4; stroke: #ffffff; stroke-width: 0.48"/>
    <path d="M 410.789942 254.948555 
C 411.585551 254.948555 412.348681 254.632456 412.911262 254.069875 
C 413.473843 253.507295 413.789942 252.744164 413.789942 251.948555 
C 413.789942 251.152946 413.473843 250.389815 412.911262 249.827235 
C 412.348681 249.264654 411.585551 248.948555 410.789942 248.948555 
C 409.994332 248.948555 409.231202 249.264654 408.668621 249.827235 
C 408.106041 250.389815 407.789942 251.152946 407.789942 251.948555 
C 407.789942 252.744164 408.106041 253.507295 408.668621 254.069875 
C 409.231202 254.632456 409.994332 254.948555 410.789942 254.948555 
z
" clip-path="url(#pf43169f485)" style="fill: #1f77b4; stroke: #ffffff; stroke-width: 0.48"/>
    <path d="M 414.87879 259.409036 
C 415.674399 259.409036 416.437529 259.092937 417.00011 258.530356 
C 417.562691 257.967775 417.87879 257.204645 417.87879 256.409036 
C 417.87879 255.613426 417.562691 254.850296 417.00011 254.287715 
C 416.437529 253.725135 415.674399 253.409036 414.87879 253.409036 
C 414.08318 253.409036 413.32005 253.725135 412.757469 254.287715 
C 412.194889 254.850296 411.87879 255.613426 411.87879 256.409036 
C 411.87879 257.204645 412.194889 257.967775 412.757469 258.530356 
C 413.32005 259.092937 414.08318 259.409036 414.87879 259.409036 
z
" clip-path="url(#pf43169f485)" style="fill: #1f77b4; stroke: #ffffff; stroke-width: 0.48"/>
    <path d="M 415.560264 250.736002 
C 416.355874 250.736002 417.119004 250.419903 417.681585 249.857322 
C 418.244166 249.294742 418.560264 248.531611 418.560264 247.736002 
C 418.560264 246.940393 418.244166 246.177262 417.681585 245.614682 
C 417.119004 245.052101 416.355874 244.736002 415.560264 244.736002 
C 414.764655 244.736002 414.001525 245.052101 413.438944 245.614682 
C 412.876363 246.177262 412.560264 246.940393 412.560264 247.736002 
C 412.560264 248.531611 412.876363 249.294742 413.438944 249.857322 
C 414.001525 250.419903 414.764655 250.736002 415.560264 250.736002 
z
" clip-path="url(#pf43169f485)" style="fill: #1f77b4; stroke: #ffffff; stroke-width: 0.48"/>
    <path d="M 424.010551 258.63465 
C 424.80616 258.63465 425.56929 258.318551 426.131871 257.75597 
C 426.694452 257.193389 427.010551 256.430259 427.010551 255.63465 
C 427.010551 254.83904 426.694452 254.07591 426.131871 253.513329 
C 425.56929 252.950749 424.80616 252.63465 424.010551 252.63465 
C 423.214941 252.63465 422.451811 252.950749 421.88923 253.513329 
C 421.32665 254.07591 421.010551 254.83904 421.010551 255.63465 
C 421.010551 256.430259 421.32665 257.193389 421.88923 257.75597 
C 422.451811 258.318551 423.214941 258.63465 424.010551 258.63465 
z
" clip-path="url(#pf43169f485)" style="fill: #1f77b4; stroke: #ffffff; stroke-width: 0.48"/>
    <path d="M 428.780874 259.96654 
C 429.576483 259.96654 430.339613 259.650441 430.902194 259.087861 
C 431.464775 258.52528 431.780874 257.76215 431.780874 256.96654 
C 431.780874 256.170931 431.464775 255.407801 430.902194 254.84522 
C 430.339613 254.282639 429.576483 253.96654 428.780874 253.96654 
C 427.985264 253.96654 427.222134 254.282639 426.659553 254.84522 
C 426.096973 255.407801 425.780874 256.170931 425.780874 256.96654 
C 425.780874 257.76215 426.096973 258.52528 426.659553 259.087861 
C 427.222134 259.650441 427.985264 259.96654 428.780874 259.96654 
z
" clip-path="url(#pf43169f485)" style="fill: #1f77b4; stroke: #ffffff; stroke-width: 0.48"/>
    <path d="M 433.142312 258.727789 
C 433.937921 258.727789 434.701051 258.41169 435.263632 257.849109 
C 435.826213 257.286529 436.142312 256.523398 436.142312 255.727789 
C 436.142312 254.93218 435.826213 254.169049 435.263632 253.606469 
C 434.701051 253.043888 433.937921 252.727789 433.142312 252.727789 
C 432.346702 252.727789 431.583572 253.043888 431.020991 253.606469 
C 430.458411 254.169049 430.142312 254.93218 430.142312 255.727789 
C 430.142312 256.523398 430.458411 257.286529 431.020991 257.849109 
C 431.583572 258.41169 432.346702 258.727789 433.142312 258.727789 
z
" clip-path="url(#pf43169f485)" style="fill: #1f77b4; stroke: #ffffff; stroke-width: 0.48"/>
    <path d="M 435.86821 166.666786 
C 436.66382 166.666786 437.42695 166.350687 437.989531 165.788106 
C 438.552112 165.225526 438.86821 164.462395 438.86821 163.666786 
C 438.86821 162.871177 438.552112 162.108046 437.989531 161.545466 
C 437.42695 160.982885 436.66382 160.666786 435.86821 160.666786 
C 435.072601 160.666786 434.309471 160.982885 433.74689 161.545466 
C 433.184309 162.108046 432.86821 162.871177 432.86821 163.666786 
C 432.86821 164.462395 433.184309 165.225526 433.74689 165.788106 
C 434.309471 166.350687 435.072601 166.666786 435.86821 166.666786 
z
" clip-path="url(#pf43169f485)" style="fill: #1f77b4; stroke: #ffffff; stroke-width: 0.48"/>
    <path d="M 122.38985 256.439226 
C 123.185459 256.439226 123.94859 256.123127 124.51117 255.560546 
C 125.073751 254.997965 125.38985 254.234835 125.38985 253.439226 
C 125.38985 252.643616 125.073751 251.880486 124.51117 251.317905 
C 123.94859 250.755325 123.185459 250.439226 122.38985 250.439226 
C 121.594241 250.439226 120.83111 250.755325 120.26853 251.317905 
C 119.705949 251.880486 119.38985 252.643616 119.38985 253.439226 
C 119.38985 254.234835 119.705949 254.997965 120.26853 255.560546 
C 120.83111 256.123127 121.594241 256.439226 122.38985 256.439226 
z
" clip-path="url(#pf43169f485)" style="fill: #ff7f0e; stroke: #ffffff; stroke-width: 0.48"/>
    <path d="M 136.564524 197.368128 
C 137.360133 197.368128 138.123263 197.052029 138.685844 196.489448 
C 139.248425 195.926867 139.564524 195.163737 139.564524 194.368128 
C 139.564524 193.572518 139.248425 192.809388 138.685844 192.246807 
C 138.123263 191.684226 137.360133 191.368128 136.564524 191.368128 
C 135.768914 191.368128 135.005784 191.684226 134.443203 192.246807 
C 133.880623 192.809388 133.564524 193.572518 133.564524 194.368128 
C 133.564524 195.163737 133.880623 195.926867 134.443203 196.489448 
C 135.005784 197.052029 135.768914 197.368128 136.564524 197.368128 
z
" clip-path="url(#pf43169f485)" style="fill: #ff7f0e; stroke: #ffffff; stroke-width: 0.48"/>
    <path d="M 202.531274 215.516079 
C 203.326884 215.516079 204.090014 215.19998 204.652595 214.637399 
C 205.215175 214.074819 205.531274 213.311688 205.531274 212.516079 
C 205.531274 211.72047 205.215175 210.957339 204.652595 210.394759 
C 204.090014 209.832178 203.326884 209.516079 202.531274 209.516079 
C 201.735665 209.516079 200.972535 209.832178 200.409954 210.394759 
C 199.847373 210.957339 199.531274 211.72047 199.531274 212.516079 
C 199.531274 213.311688 199.847373 214.074819 200.409954 214.637399 
C 200.972535 215.19998 201.735665 215.516079 202.531274 215.516079 
z
" clip-path="url(#pf43169f485)" style="fill: #ff7f0e; stroke: #ffffff; stroke-width: 0.48"/>
    <path d="M 288.397086 254.638978 
C 289.192695 254.638978 289.955826 254.322879 290.518406 253.760298 
C 291.080987 253.197718 291.397086 252.434587 291.397086 251.638978 
C 291.397086 250.843369 291.080987 250.080238 290.518406 249.517658 
C 289.955826 248.955077 289.192695 248.638978 288.397086 248.638978 
C 287.601477 248.638978 286.838346 248.955077 286.275766 249.517658 
C 285.713185 250.080238 285.397086 250.843369 285.397086 251.638978 
C 285.397086 252.434587 285.713185 253.197718 286.275766 253.760298 
C 286.838346 254.322879 287.601477 254.638978 288.397086 254.638978 
z
" clip-path="url(#pf43169f485)" style="fill: #ff7f0e; stroke: #ffffff; stroke-width: 0.48"/>
    <path d="M 354.636427 212.97604 
C 355.432036 212.97604 356.195166 212.659941 356.757747 212.09736 
C 357.320328 211.534779 357.636427 210.771649 357.636427 209.97604 
C 357.636427 209.180431 357.320328 208.4173 356.757747 207.85472 
C 356.195166 207.292139 355.432036 206.97604 354.636427 206.97604 
C 353.840817 206.97604 353.077687 207.292139 352.515106 207.85472 
C 351.952526 208.4173 351.636427 209.180431 351.636427 209.97604 
C 351.636427 210.771649 351.952526 211.534779 352.515106 212.09736 
C 353.077687 212.659941 353.840817 212.97604 354.636427 212.97604 
z
" clip-path="url(#pf43169f485)" style="fill: #ff7f0e; stroke: #ffffff; stroke-width: 0.48"/>
    <path d="M 378.215451 239.832063 
C 379.01106 239.832063 379.774191 239.515964 380.336771 238.953383 
C 380.899352 238.390803 381.215451 237.627672 381.215451 236.832063 
C 381.215451 236.036454 380.899352 235.273323 380.336771 234.710743 
C 379.774191 234.148162 379.01106 233.832063 378.215451 233.832063 
C 377.419842 233.832063 376.656711 234.148162 376.094131 234.710743 
C 375.53155 235.273323 375.215451 236.036454 375.215451 236.832063 
C 375.215451 237.627672 375.53155 238.390803 376.094131 238.953383 
C 376.656711 239.515964 377.419842 239.832063 378.215451 239.832063 
z
" clip-path="url(#pf43169f485)" style="fill: #ff7f0e; stroke: #ffffff; stroke-width: 0.48"/>
    <path d="M 109.713665 242.805865 
L 111.213665 241.305865 
L 112.713665 242.805865 
L 114.213665 241.305865 
L 112.713665 239.805865 
L 114.213665 238.305865 
L 112.713665 236.805865 
L 111.213665 238.305865 
L 109.713665 236.805865 
L 108.213665 238.305865 
L 109.713665 239.805865 
L 108.213665 241.305865 
z
" clip-path="url(#pf43169f485)" style="fill: #1f77b4; stroke: #ffffff; stroke-width: 0.48"/>
    <path d="M 112.712154 248.443891 
L 114.212154 246.943891 
L 115.712154 248.443891 
L 117.212154 246.943891 
L 115.712154 245.443891 
L 117.212154 243.943891 
L 115.712154 242.443891 
L 114.212154 243.943891 
L 112.712154 242.443891 
L 111.212154 243.943891 
L 112.712154 245.443891 
L 111.212154 246.943891 
z
" clip-path="url(#pf43169f485)" style="fill: #1f77b4; stroke: #ffffff; stroke-width: 0.48"/>
    <path d="M 116.255822 170.972478 
L 117.755822 169.472478 
L 119.255822 170.972478 
L 120.755822 169.472478 
L 119.255822 167.972478 
L 120.755822 166.472478 
L 119.255822 164.972478 
L 117.755822 166.472478 
L 116.255822 164.972478 
L 114.755822 166.472478 
L 116.255822 167.972478 
L 114.755822 169.472478 
z
" clip-path="url(#pf43169f485)" style="fill: #1f77b4; stroke: #ffffff; stroke-width: 0.48"/>
    <path d="M 118.163951 178.190323 
L 119.663951 176.690323 
L 121.163951 178.190323 
L 122.663951 176.690323 
L 121.163951 175.190323 
L 122.663951 173.690323 
L 121.163951 172.190323 
L 119.663951 173.690323 
L 118.163951 172.190323 
L 116.663951 173.690323 
L 118.163951 175.190323 
L 116.663951 176.690323 
z
" clip-path="url(#pf43169f485)" style="fill: #1f77b4; stroke: #ffffff; stroke-width: 0.48"/>
    <path d="M 119.935785 251.541434 
L 121.435785 250.041434 
L 122.935785 251.541434 
L 124.435785 250.041434 
L 122.935785 248.541434 
L 124.435785 247.041434 
L 122.935785 245.541434 
L 121.435785 247.041434 
L 119.935785 245.541434 
L 118.435785 247.041434 
L 119.935785 248.541434 
L 118.435785 250.041434 
z
" clip-path="url(#pf43169f485)" style="fill: #1f77b4; stroke: #ffffff; stroke-width: 0.48"/>
    <path d="M 120.34467 239.708321 
L 121.84467 238.208321 
L 123.34467 239.708321 
L 124.84467 238.208321 
L 123.34467 236.708321 
L 124.84467 235.208321 
L 123.34467 233.708321 
L 121.84467 235.208321 
L 120.34467 233.708321 
L 118.84467 235.208321 
L 120.34467 236.708321 
L 118.84467 238.208321 
z
" clip-path="url(#pf43169f485)" style="fill: #1f77b4; stroke: #ffffff; stroke-width: 0.48"/>
    <path d="M 120.88985 244.354636 
L 122.38985 242.854636 
L 123.88985 244.354636 
L 125.38985 242.854636 
L 123.88985 241.354636 
L 125.38985 239.854636 
L 123.88985 238.354636 
L 122.38985 239.854636 
L 120.88985 238.354636 
L 119.38985 239.854636 
L 120.88985 241.354636 
L 119.38985 242.854636 
z
" clip-path="url(#pf43169f485)" style="fill: #1f77b4; stroke: #ffffff; stroke-width: 0.48"/>
    <path d="M 121.026145 239.832506 
L 122.526145 238.332506 
L 124.026145 239.832506 
L 125.526145 238.332506 
L 124.026145 236.832506 
L 125.526145 235.332506 
L 124.026145 233.832506 
L 122.526145 235.332506 
L 121.026145 233.832506 
L 119.526145 235.332506 
L 121.026145 236.832506 
L 119.526145 238.332506 
z
" clip-path="url(#pf43169f485)" style="fill: #1f77b4; stroke: #ffffff; stroke-width: 0.48"/>
    <path d="M 121.70762 252.408516 
L 123.20762 250.908516 
L 124.70762 252.408516 
L 126.20762 250.908516 
L 124.70762 249.408516 
L 126.20762 247.908516 
L 124.70762 246.408516 
L 123.20762 247.908516 
L 121.70762 246.408516 
L 120.20762 247.908516 
L 121.70762 249.408516 
L 120.20762 250.908516 
z
" clip-path="url(#pf43169f485)" style="fill: #1f77b4; stroke: #ffffff; stroke-width: 0.48"/>
    <path d="M 122.797979 243.394416 
L 124.297979 241.894416 
L 125.797979 243.394416 
L 127.297979 241.894416 
L 125.797979 240.394416 
L 127.297979 238.894416 
L 125.797979 237.394416 
L 124.297979 238.894416 
L 122.797979 237.394416 
L 121.297979 238.894416 
L 122.797979 240.394416 
L 121.297979 241.894416 
z
" clip-path="url(#pf43169f485)" style="fill: #1f77b4; stroke: #ffffff; stroke-width: 0.48"/>
    <path d="M 135.064524 208.205982 
L 136.564524 206.705982 
L 138.064524 208.205982 
L 139.564524 206.705982 
L 138.064524 205.205982 
L 139.564524 203.705982 
L 138.064524 202.205982 
L 136.564524 203.705982 
L 135.064524 202.205982 
L 133.564524 203.705982 
L 135.064524 205.205982 
L 133.564524 206.705982 
z
" clip-path="url(#pf43169f485)" style="fill: #1f77b4; stroke: #ffffff; stroke-width: 0.48"/>
    <path d="M 148.148838 257.643826 
L 149.648838 256.143826 
L 151.148838 257.643826 
L 152.648838 256.143826 
L 151.148838 254.643826 
L 152.648838 253.143826 
L 151.148838 251.643826 
L 149.648838 253.143826 
L 148.148838 251.643826 
L 146.648838 253.143826 
L 148.148838 254.643826 
L 146.648838 256.143826 
z
" clip-path="url(#pf43169f485)" style="fill: #1f77b4; stroke: #ffffff; stroke-width: 0.48"/>
    <path d="M 177.17966 232.150297 
L 178.67966 230.650297 
L 180.17966 232.150297 
L 181.67966 230.650297 
L 180.17966 229.150297 
L 181.67966 227.650297 
L 180.17966 226.150297 
L 178.67966 227.650297 
L 177.17966 226.150297 
L 175.67966 227.650297 
L 177.17966 229.150297 
L 175.67966 230.650297 
z
" clip-path="url(#pf43169f485)" style="fill: #1f77b4; stroke: #ffffff; stroke-width: 0.48"/>
    <path d="M 180.178149 225.521447 
L 181.678149 224.021447 
L 183.178149 225.521447 
L 184.678149 224.021447 
L 183.178149 222.521447 
L 184.678149 221.021447 
L 183.178149 219.521447 
L 181.678149 221.021447 
L 180.178149 219.521447 
L 178.678149 221.021447 
L 180.178149 222.521447 
L 178.678149 224.021447 
z
" clip-path="url(#pf43169f485)" style="fill: #1f77b4; stroke: #ffffff; stroke-width: 0.48"/>
    <path d="M 182.495163 221.154105 
L 183.995163 219.654105 
L 185.495163 221.154105 
L 186.995163 219.654105 
L 185.495163 218.154105 
L 186.995163 216.654105 
L 185.495163 215.154105 
L 183.995163 216.654105 
L 182.495163 215.154105 
L 180.995163 216.654105 
L 182.495163 218.154105 
L 180.995163 219.654105 
z
" clip-path="url(#pf43169f485)" style="fill: #1f77b4; stroke: #ffffff; stroke-width: 0.48"/>
    <path d="M 187.129191 218.644669 
L 188.629191 217.144669 
L 190.129191 218.644669 
L 191.629191 217.144669 
L 190.129191 215.644669 
L 191.629191 214.144669 
L 190.129191 212.644669 
L 188.629191 214.144669 
L 187.129191 212.644669 
L 185.629191 214.144669 
L 187.129191 215.644669 
L 185.629191 217.144669 
z
" clip-path="url(#pf43169f485)" style="fill: #1f77b4; stroke: #ffffff; stroke-width: 0.48"/>
    <path d="M 191.899513 247.762201 
L 193.399513 246.262201 
L 194.899513 247.762201 
L 196.399513 246.262201 
L 194.899513 244.762201 
L 196.399513 243.262201 
L 194.899513 241.762201 
L 193.399513 243.262201 
L 191.899513 241.762201 
L 190.399513 243.262201 
L 191.899513 244.762201 
L 190.399513 246.262201 
z
" clip-path="url(#pf43169f485)" style="fill: #1f77b4; stroke: #ffffff; stroke-width: 0.48"/>
    <path d="M 199.940915 224.034768 
L 201.440915 222.534768 
L 202.940915 224.034768 
L 204.440915 222.534768 
L 202.940915 221.034768 
L 204.440915 219.534768 
L 202.940915 218.034768 
L 201.440915 219.534768 
L 199.940915 218.034768 
L 198.440915 219.534768 
L 199.940915 221.034768 
L 198.440915 222.534768 
z
" clip-path="url(#pf43169f485)" style="fill: #1f77b4; stroke: #ffffff; stroke-width: 0.48"/>
    <path d="M 209.208971 243.425905 
L 210.708971 241.925905 
L 212.208971 243.425905 
L 213.708971 241.925905 
L 212.208971 240.425905 
L 213.708971 238.925905 
L 212.208971 237.425905 
L 210.708971 238.925905 
L 209.208971 237.425905 
L 207.708971 238.925905 
L 209.208971 240.425905 
L 207.708971 241.925905 
z
" clip-path="url(#pf43169f485)" style="fill: #1f77b4; stroke: #ffffff; stroke-width: 0.48"/>
    <path d="M 238.784973 251.417692 
L 240.284973 249.917692 
L 241.784973 251.417692 
L 243.284973 249.917692 
L 241.784973 248.417692 
L 243.284973 246.917692 
L 241.784973 245.417692 
L 240.284973 246.917692 
L 238.784973 245.417692 
L 237.284973 246.917692 
L 238.784973 248.417692 
L 237.284973 249.917692 
z
" clip-path="url(#pf43169f485)" style="fill: #1f77b4; stroke: #ffffff; stroke-width: 0.48"/>
    <path d="M 243.419 236.487035 
L 244.919 234.987035 
L 246.419 236.487035 
L 247.919 234.987035 
L 246.419 233.487035 
L 247.919 231.987035 
L 246.419 230.487035 
L 244.919 231.987035 
L 243.419 230.487035 
L 241.919 231.987035 
L 243.419 233.487035 
L 241.919 234.987035 
z
" clip-path="url(#pf43169f485)" style="fill: #1f77b4; stroke: #ffffff; stroke-width: 0.48"/>
    <path d="M 244.100475 244.231338 
L 245.600475 242.731338 
L 247.100475 244.231338 
L 248.600475 242.731338 
L 247.100475 241.231338 
L 248.600475 239.731338 
L 247.100475 238.231338 
L 245.600475 239.731338 
L 244.100475 238.231338 
L 242.600475 239.731338 
L 244.100475 241.231338 
L 242.600475 242.731338 
z
" clip-path="url(#pf43169f485)" style="fill: #1f77b4; stroke: #ffffff; stroke-width: 0.48"/>
    <path d="M 286.215611 256.188193 
L 287.715611 254.688193 
L 289.215611 256.188193 
L 290.715611 254.688193 
L 289.215611 253.188193 
L 290.715611 251.688193 
L 289.215611 250.188193 
L 287.715611 251.688193 
L 286.215611 250.188193 
L 284.715611 251.688193 
L 286.215611 253.188193 
L 284.715611 254.688193 
z
" clip-path="url(#pf43169f485)" style="fill: #1f77b4; stroke: #ffffff; stroke-width: 0.48"/>
    <path d="M 306.932442 224.994988 
L 308.432442 223.494988 
L 309.932442 224.994988 
L 311.432442 223.494988 
L 309.932442 221.994988 
L 311.432442 220.494988 
L 309.932442 218.994988 
L 308.432442 220.494988 
L 306.932442 218.994988 
L 305.432442 220.494988 
L 306.932442 221.994988 
L 305.432442 223.494988 
z
" clip-path="url(#pf43169f485)" style="fill: #1f77b4; stroke: #ffffff; stroke-width: 0.48"/>
    <path d="M 308.567981 258.913624 
L 310.067981 257.413624 
L 311.567981 258.913624 
L 313.067981 257.413624 
L 311.567981 255.913624 
L 313.067981 254.413624 
L 311.567981 252.913624 
L 310.067981 254.413624 
L 308.567981 252.913624 
L 307.067981 254.413624 
L 308.567981 255.913624 
L 307.067981 257.413624 
z
" clip-path="url(#pf43169f485)" style="fill: #1f77b4; stroke: #ffffff; stroke-width: 0.48"/>
    <path d="M 318.790102 157.683732 
L 320.290102 156.183732 
L 321.790102 157.683732 
L 323.290102 156.183732 
L 321.790102 154.683732 
L 323.290102 153.183732 
L 321.790102 151.683732 
L 320.290102 153.183732 
L 318.790102 151.683732 
L 317.290102 153.183732 
L 318.790102 154.683732 
L 317.290102 156.183732 
z
" clip-path="url(#pf43169f485)" style="fill: #1f77b4; stroke: #ffffff; stroke-width: 0.48"/>
    <path d="M 322.742655 253.678757 
L 324.242655 252.178757 
L 325.742655 253.678757 
L 327.242655 252.178757 
L 325.742655 250.678757 
L 327.242655 249.178757 
L 325.742655 247.678757 
L 324.242655 249.178757 
L 322.742655 247.678757 
L 321.242655 249.178757 
L 322.742655 250.678757 
L 321.242655 252.178757 
z
" clip-path="url(#pf43169f485)" style="fill: #1f77b4; stroke: #ffffff; stroke-width: 0.48"/>
    <path d="M 357.770455 62.308304 
L 359.270455 60.808304 
L 360.770455 62.308304 
L 362.270455 60.808304 
L 360.770455 59.308304 
L 362.270455 57.808304 
L 360.770455 56.308304 
L 359.270455 57.808304 
L 357.770455 56.308304 
L 356.270455 57.808304 
L 357.770455 59.308304 
L 356.270455 60.808304 
z
" clip-path="url(#pf43169f485)" style="fill: #1f77b4; stroke: #ffffff; stroke-width: 0.48"/>
    <path d="M 368.12887 199.687737 
L 369.62887 198.187737 
L 371.12887 199.687737 
L 372.62887 198.187737 
L 371.12887 196.687737 
L 372.62887 195.187737 
L 371.12887 193.687737 
L 369.62887 195.187737 
L 368.12887 193.687737 
L 366.62887 195.187737 
L 368.12887 196.687737 
L 366.62887 198.187737 
z
" clip-path="url(#pf43169f485)" style="fill: #1f77b4; stroke: #ffffff; stroke-width: 0.48"/>
    <path d="M 371.399948 216.848413 
L 372.899948 215.348413 
L 374.399948 216.848413 
L 375.899948 215.348413 
L 374.399948 213.848413 
L 375.899948 212.348413 
L 374.399948 210.848413 
L 372.899948 212.348413 
L 371.399948 210.848413 
L 369.899948 212.348413 
L 371.399948 213.848413 
L 369.899948 215.348413 
z
" clip-path="url(#pf43169f485)" style="fill: #1f77b4; stroke: #ffffff; stroke-width: 0.48"/>
    <path d="M 154.418405 223.508309 
L 155.918405 222.008309 
L 157.418405 223.508309 
L 158.918405 222.008309 
L 157.418405 220.508309 
L 158.918405 219.008309 
L 157.418405 217.508309 
L 155.918405 219.008309 
L 154.418405 217.508309 
L 152.918405 219.008309 
L 154.418405 220.508309 
L 152.918405 222.008309 
z
" clip-path="url(#pf43169f485)" style="fill: #ff7f0e; stroke: #ffffff; stroke-width: 0.48"/>
    <path d="M 163.004986 146.501706 
L 164.504986 145.001706 
L 166.004986 146.501706 
L 167.504986 145.001706 
L 166.004986 143.501706 
L 167.504986 142.001706 
L 166.004986 140.501706 
L 164.504986 142.001706 
L 163.004986 140.501706 
L 161.504986 142.001706 
L 163.004986 143.501706 
L 161.504986 145.001706 
z
" clip-path="url(#pf43169f485)" style="fill: #ff7f0e; stroke: #ffffff; stroke-width: 0.48"/>
    <path d="M 223.383644 189.465488 
L 224.883644 187.965488 
L 226.383644 189.465488 
L 227.883644 187.965488 
L 226.383644 186.465488 
L 227.883644 184.965488 
L 226.383644 183.465488 
L 224.883644 184.965488 
L 223.383644 183.465488 
L 221.883644 184.965488 
L 223.383644 186.465488 
L 221.883644 187.965488 
z
" clip-path="url(#pf43169f485)" style="fill: #ff7f0e; stroke: #ffffff; stroke-width: 0.48"/>
    <path d="M 250.915222 253.338134 
L 252.415222 251.838134 
L 253.915222 253.338134 
L 255.415222 251.838134 
L 253.915222 250.338134 
L 255.415222 248.838134 
L 253.915222 247.338134 
L 252.415222 248.838134 
L 250.915222 247.338134 
L 249.415222 248.838134 
L 250.915222 250.338134 
L 249.415222 251.838134 
z
" clip-path="url(#pf43169f485)" style="fill: #ff7f0e; stroke: #ffffff; stroke-width: 0.48"/>
    <path d="M 264.953601 226.295833 
L 266.453601 224.795833 
L 267.953601 226.295833 
L 269.453601 224.795833 
L 267.953601 223.295833 
L 269.453601 221.795833 
L 267.953601 220.295833 
L 266.453601 221.795833 
L 264.953601 220.295833 
L 263.453601 221.795833 
L 264.953601 223.295833 
L 263.453601 224.795833 
z
" clip-path="url(#pf43169f485)" style="fill: #ff7f0e; stroke: #ffffff; stroke-width: 0.48"/>
    <path d="M 268.497269 196.744982 
L 269.997269 195.244982 
L 271.497269 196.744982 
L 272.997269 195.244982 
L 271.497269 193.744982 
L 272.997269 192.244982 
L 271.497269 190.744982 
L 269.997269 192.244982 
L 268.497269 190.744982 
L 266.997269 192.244982 
L 268.497269 193.744982 
L 266.997269 195.244982 
z
" clip-path="url(#pf43169f485)" style="fill: #ff7f0e; stroke: #ffffff; stroke-width: 0.48"/>
    <path d="M 311.702765 150.776352 
L 313.202765 149.276352 
L 314.702765 150.776352 
L 316.202765 149.276352 
L 314.702765 147.776352 
L 316.202765 146.276352 
L 314.702765 144.776352 
L 313.202765 146.276352 
L 311.702765 144.776352 
L 310.202765 146.276352 
L 311.702765 147.776352 
L 310.202765 149.276352 
z
" clip-path="url(#pf43169f485)" style="fill: #ff7f0e; stroke: #ffffff; stroke-width: 0.48"/>
    <path d="M 316.745678 204.055079 
L 318.245678 202.555079 
L 319.745678 204.055079 
L 321.245678 202.555079 
L 319.745678 201.055079 
L 321.245678 199.555079 
L 319.745678 198.055079 
L 318.245678 199.555079 
L 316.745678 198.055079 
L 315.245678 199.555079 
L 316.745678 201.055079 
L 315.245678 202.555079 
z
" clip-path="url(#pf43169f485)" style="fill: #ff7f0e; stroke: #ffffff; stroke-width: 0.48"/>
    <path d="M 325.741144 240.730634 
L 327.241144 239.230634 
L 328.741144 240.730634 
L 330.241144 239.230634 
L 328.741144 237.730634 
L 330.241144 236.230634 
L 328.741144 234.730634 
L 327.241144 236.230634 
L 325.741144 234.730634 
L 324.241144 236.230634 
L 325.741144 237.730634 
L 324.241144 239.230634 
z
" clip-path="url(#pf43169f485)" style="fill: #ff7f0e; stroke: #ffffff; stroke-width: 0.48"/>
    <path d="M 387.482751 256.993626 
L 388.982751 255.493626 
L 390.482751 256.993626 
L 391.982751 255.493626 
L 390.482751 253.993626 
L 391.982751 252.493626 
L 390.482751 250.993626 
L 388.982751 252.493626 
L 387.482751 250.993626 
L 385.982751 252.493626 
L 387.482751 253.993626 
L 385.982751 255.493626 
z
" clip-path="url(#pf43169f485)" style="fill: #ff7f0e; stroke: #ffffff; stroke-width: 0.48"/>
   </g>
   <g id="matplotlib.axis_1">
    <g id="xtick_1">
     <g id="line2d_1">
      <defs>
       <path id="m97edbedcd5" d="M 0 0 
L 0 3.5 
" style="stroke: #000000; stroke-width: 0.8"/>
      </defs>
      <g>
       <use xlink:href="#m97edbedcd5" x="109.169241" y="277.111219" style="stroke: #000000; stroke-width: 0.8"/>
      </g>
     </g>
     <g id="text_1">
      <!-- 0 -->
      <g transform="translate(105.987991 291.709656) scale(0.1 -0.1)">
       <defs>
        <path id="DejaVuSans-30" d="M 2034 4250 
Q 1547 4250 1301 3770 
Q 1056 3291 1056 2328 
Q 1056 1369 1301 889 
Q 1547 409 2034 409 
Q 2525 409 2770 889 
Q 3016 1369 3016 2328 
Q 3016 3291 2770 3770 
Q 2525 4250 2034 4250 
z
M 2034 4750 
Q 2819 4750 3233 4129 
Q 3647 3509 3647 2328 
Q 3647 1150 3233 529 
Q 2819 -91 2034 -91 
Q 1250 -91 836 529 
Q 422 1150 422 2328 
Q 422 3509 836 4129 
Q 1250 4750 2034 4750 
z
" transform="scale(0.015625)"/>
       </defs>
       <use xlink:href="#DejaVuSans-30"/>
      </g>
     </g>
    </g>
    <g id="xtick_2">
     <g id="line2d_2">
      <g>
       <use xlink:href="#m97edbedcd5" x="177.316711" y="277.111219" style="stroke: #000000; stroke-width: 0.8"/>
      </g>
     </g>
     <g id="text_2">
      <!-- 500 -->
      <g transform="translate(167.772961 291.709656) scale(0.1 -0.1)">
       <defs>
        <path id="DejaVuSans-35" d="M 691 4666 
L 3169 4666 
L 3169 4134 
L 1269 4134 
L 1269 2991 
Q 1406 3038 1543 3061 
Q 1681 3084 1819 3084 
Q 2600 3084 3056 2656 
Q 3513 2228 3513 1497 
Q 3513 744 3044 326 
Q 2575 -91 1722 -91 
Q 1428 -91 1123 -41 
Q 819 9 494 109 
L 494 744 
Q 775 591 1075 516 
Q 1375 441 1709 441 
Q 2250 441 2565 725 
Q 2881 1009 2881 1497 
Q 2881 1984 2565 2268 
Q 2250 2553 1709 2553 
Q 1456 2553 1204 2497 
Q 953 2441 691 2322 
L 691 4666 
z
" transform="scale(0.015625)"/>
       </defs>
       <use xlink:href="#DejaVuSans-35"/>
       <use xlink:href="#DejaVuSans-30" transform="translate(63.623047 0)"/>
       <use xlink:href="#DejaVuSans-30" transform="translate(127.246094 0)"/>
      </g>
     </g>
    </g>
    <g id="xtick_3">
     <g id="line2d_3">
      <g>
       <use xlink:href="#m97edbedcd5" x="245.46418" y="277.111219" style="stroke: #000000; stroke-width: 0.8"/>
      </g>
     </g>
     <g id="text_3">
      <!-- 1000 -->
      <g transform="translate(232.73918 291.709656) scale(0.1 -0.1)">
       <defs>
        <path id="DejaVuSans-31" d="M 794 531 
L 1825 531 
L 1825 4091 
L 703 3866 
L 703 4441 
L 1819 4666 
L 2450 4666 
L 2450 531 
L 3481 531 
L 3481 0 
L 794 0 
L 794 531 
z
" transform="scale(0.015625)"/>
       </defs>
       <use xlink:href="#DejaVuSans-31"/>
       <use xlink:href="#DejaVuSans-30" transform="translate(63.623047 0)"/>
       <use xlink:href="#DejaVuSans-30" transform="translate(127.246094 0)"/>
       <use xlink:href="#DejaVuSans-30" transform="translate(190.869141 0)"/>
      </g>
     </g>
    </g>
    <g id="xtick_4">
     <g id="line2d_4">
      <g>
       <use xlink:href="#m97edbedcd5" x="313.61165" y="277.111219" style="stroke: #000000; stroke-width: 0.8"/>
      </g>
     </g>
     <g id="text_4">
      <!-- 1500 -->
      <g transform="translate(300.88665 291.709656) scale(0.1 -0.1)">
       <use xlink:href="#DejaVuSans-31"/>
       <use xlink:href="#DejaVuSans-35" transform="translate(63.623047 0)"/>
       <use xlink:href="#DejaVuSans-30" transform="translate(127.246094 0)"/>
       <use xlink:href="#DejaVuSans-30" transform="translate(190.869141 0)"/>
      </g>
     </g>
    </g>
    <g id="xtick_5">
     <g id="line2d_5">
      <g>
       <use xlink:href="#m97edbedcd5" x="381.75912" y="277.111219" style="stroke: #000000; stroke-width: 0.8"/>
      </g>
     </g>
     <g id="text_5">
      <!-- 2000 -->
      <g transform="translate(369.03412 291.709656) scale(0.1 -0.1)">
       <defs>
        <path id="DejaVuSans-32" d="M 1228 531 
L 3431 531 
L 3431 0 
L 469 0 
L 469 531 
Q 828 903 1448 1529 
Q 2069 2156 2228 2338 
Q 2531 2678 2651 2914 
Q 2772 3150 2772 3378 
Q 2772 3750 2511 3984 
Q 2250 4219 1831 4219 
Q 1534 4219 1204 4116 
Q 875 4013 500 3803 
L 500 4441 
Q 881 4594 1212 4672 
Q 1544 4750 1819 4750 
Q 2544 4750 2975 4387 
Q 3406 4025 3406 3419 
Q 3406 3131 3298 2873 
Q 3191 2616 2906 2266 
Q 2828 2175 2409 1742 
Q 1991 1309 1228 531 
z
" transform="scale(0.015625)"/>
       </defs>
       <use xlink:href="#DejaVuSans-32"/>
       <use xlink:href="#DejaVuSans-30" transform="translate(63.623047 0)"/>
       <use xlink:href="#DejaVuSans-30" transform="translate(127.246094 0)"/>
       <use xlink:href="#DejaVuSans-30" transform="translate(190.869141 0)"/>
      </g>
     </g>
    </g>
    <g id="xtick_6">
     <g id="line2d_6">
      <g>
       <use xlink:href="#m97edbedcd5" x="449.906589" y="277.111219" style="stroke: #000000; stroke-width: 0.8"/>
      </g>
     </g>
     <g id="text_6">
      <!-- 2500 -->
      <g transform="translate(437.181589 291.709656) scale(0.1 -0.1)">
       <use xlink:href="#DejaVuSans-32"/>
       <use xlink:href="#DejaVuSans-35" transform="translate(63.623047 0)"/>
       <use xlink:href="#DejaVuSans-30" transform="translate(127.246094 0)"/>
       <use xlink:href="#DejaVuSans-30" transform="translate(190.869141 0)"/>
      </g>
     </g>
    </g>
    <g id="text_7">
     <!-- Sequence -->
     <g transform="translate(248.876094 305.387781) scale(0.1 -0.1)">
      <defs>
       <path id="DejaVuSans-53" d="M 3425 4513 
L 3425 3897 
Q 3066 4069 2747 4153 
Q 2428 4238 2131 4238 
Q 1616 4238 1336 4038 
Q 1056 3838 1056 3469 
Q 1056 3159 1242 3001 
Q 1428 2844 1947 2747 
L 2328 2669 
Q 3034 2534 3370 2195 
Q 3706 1856 3706 1288 
Q 3706 609 3251 259 
Q 2797 -91 1919 -91 
Q 1588 -91 1214 -16 
Q 841 59 441 206 
L 441 856 
Q 825 641 1194 531 
Q 1563 422 1919 422 
Q 2459 422 2753 634 
Q 3047 847 3047 1241 
Q 3047 1584 2836 1778 
Q 2625 1972 2144 2069 
L 1759 2144 
Q 1053 2284 737 2584 
Q 422 2884 422 3419 
Q 422 4038 858 4394 
Q 1294 4750 2059 4750 
Q 2388 4750 2728 4690 
Q 3069 4631 3425 4513 
z
" transform="scale(0.015625)"/>
       <path id="DejaVuSans-65" d="M 3597 1894 
L 3597 1613 
L 953 1613 
Q 991 1019 1311 708 
Q 1631 397 2203 397 
Q 2534 397 2845 478 
Q 3156 559 3463 722 
L 3463 178 
Q 3153 47 2828 -22 
Q 2503 -91 2169 -91 
Q 1331 -91 842 396 
Q 353 884 353 1716 
Q 353 2575 817 3079 
Q 1281 3584 2069 3584 
Q 2775 3584 3186 3129 
Q 3597 2675 3597 1894 
z
M 3022 2063 
Q 3016 2534 2758 2815 
Q 2500 3097 2075 3097 
Q 1594 3097 1305 2825 
Q 1016 2553 972 2059 
L 3022 2063 
z
" transform="scale(0.015625)"/>
       <path id="DejaVuSans-71" d="M 947 1747 
Q 947 1113 1208 752 
Q 1469 391 1925 391 
Q 2381 391 2643 752 
Q 2906 1113 2906 1747 
Q 2906 2381 2643 2742 
Q 2381 3103 1925 3103 
Q 1469 3103 1208 2742 
Q 947 2381 947 1747 
z
M 2906 525 
Q 2725 213 2448 61 
Q 2172 -91 1784 -91 
Q 1150 -91 751 415 
Q 353 922 353 1747 
Q 353 2572 751 3078 
Q 1150 3584 1784 3584 
Q 2172 3584 2448 3432 
Q 2725 3281 2906 2969 
L 2906 3500 
L 3481 3500 
L 3481 -1331 
L 2906 -1331 
L 2906 525 
z
" transform="scale(0.015625)"/>
       <path id="DejaVuSans-75" d="M 544 1381 
L 544 3500 
L 1119 3500 
L 1119 1403 
Q 1119 906 1312 657 
Q 1506 409 1894 409 
Q 2359 409 2629 706 
Q 2900 1003 2900 1516 
L 2900 3500 
L 3475 3500 
L 3475 0 
L 2900 0 
L 2900 538 
Q 2691 219 2414 64 
Q 2138 -91 1772 -91 
Q 1169 -91 856 284 
Q 544 659 544 1381 
z
M 1991 3584 
L 1991 3584 
z
" transform="scale(0.015625)"/>
       <path id="DejaVuSans-6e" d="M 3513 2113 
L 3513 0 
L 2938 0 
L 2938 2094 
Q 2938 2591 2744 2837 
Q 2550 3084 2163 3084 
Q 1697 3084 1428 2787 
Q 1159 2491 1159 1978 
L 1159 0 
L 581 0 
L 581 3500 
L 1159 3500 
L 1159 2956 
Q 1366 3272 1645 3428 
Q 1925 3584 2291 3584 
Q 2894 3584 3203 3211 
Q 3513 2838 3513 2113 
z
" transform="scale(0.015625)"/>
       <path id="DejaVuSans-63" d="M 3122 3366 
L 3122 2828 
Q 2878 2963 2633 3030 
Q 2388 3097 2138 3097 
Q 1578 3097 1268 2742 
Q 959 2388 959 1747 
Q 959 1106 1268 751 
Q 1578 397 2138 397 
Q 2388 397 2633 464 
Q 2878 531 3122 666 
L 3122 134 
Q 2881 22 2623 -34 
Q 2366 -91 2075 -91 
Q 1284 -91 818 406 
Q 353 903 353 1747 
Q 353 2603 823 3093 
Q 1294 3584 2113 3584 
Q 2378 3584 2631 3529 
Q 2884 3475 3122 3366 
z
" transform="scale(0.015625)"/>
      </defs>
      <use xlink:href="#DejaVuSans-53"/>
      <use xlink:href="#DejaVuSans-65" transform="translate(63.476562 0)"/>
      <use xlink:href="#DejaVuSans-71" transform="translate(125 0)"/>
      <use xlink:href="#DejaVuSans-75" transform="translate(188.476562 0)"/>
      <use xlink:href="#DejaVuSans-65" transform="translate(251.855469 0)"/>
      <use xlink:href="#DejaVuSans-6e" transform="translate(313.378906 0)"/>
      <use xlink:href="#DejaVuSans-63" transform="translate(376.757812 0)"/>
      <use xlink:href="#DejaVuSans-65" transform="translate(431.738281 0)"/>
     </g>
    </g>
   </g>
   <g id="matplotlib.axis_2">
    <g id="ytick_1">
     <g id="line2d_7">
      <defs>
       <path id="m2af4d0606b" d="M 0 0 
L -3.5 0 
" style="stroke: #000000; stroke-width: 0.8"/>
      </defs>
      <g>
       <use xlink:href="#m2af4d0606b" x="94.980938" y="277.111219" style="stroke: #000000; stroke-width: 0.8"/>
      </g>
     </g>
     <g id="text_8">
      <!-- 0.7 -->
      <g transform="translate(72.077813 280.910437) scale(0.1 -0.1)">
       <defs>
        <path id="DejaVuSans-2e" d="M 684 794 
L 1344 794 
L 1344 0 
L 684 0 
L 684 794 
z
" transform="scale(0.015625)"/>
        <path id="DejaVuSans-37" d="M 525 4666 
L 3525 4666 
L 3525 4397 
L 1831 0 
L 1172 0 
L 2766 4134 
L 525 4134 
L 525 4666 
z
" transform="scale(0.015625)"/>
       </defs>
       <use xlink:href="#DejaVuSans-30"/>
       <use xlink:href="#DejaVuSans-2e" transform="translate(63.623047 0)"/>
       <use xlink:href="#DejaVuSans-37" transform="translate(95.410156 0)"/>
      </g>
     </g>
    </g>
    <g id="ytick_2">
     <g id="line2d_8">
      <g>
       <use xlink:href="#m2af4d0606b" x="94.980938" y="232.759219" style="stroke: #000000; stroke-width: 0.8"/>
      </g>
     </g>
     <g id="text_9">
      <!-- 0.800000 -->
      <g transform="translate(40.265313 236.558437) scale(0.1 -0.1)">
       <defs>
        <path id="DejaVuSans-38" d="M 2034 2216 
Q 1584 2216 1326 1975 
Q 1069 1734 1069 1313 
Q 1069 891 1326 650 
Q 1584 409 2034 409 
Q 2484 409 2743 651 
Q 3003 894 3003 1313 
Q 3003 1734 2745 1975 
Q 2488 2216 2034 2216 
z
M 1403 2484 
Q 997 2584 770 2862 
Q 544 3141 544 3541 
Q 544 4100 942 4425 
Q 1341 4750 2034 4750 
Q 2731 4750 3128 4425 
Q 3525 4100 3525 3541 
Q 3525 3141 3298 2862 
Q 3072 2584 2669 2484 
Q 3125 2378 3379 2068 
Q 3634 1759 3634 1313 
Q 3634 634 3220 271 
Q 2806 -91 2034 -91 
Q 1263 -91 848 271 
Q 434 634 434 1313 
Q 434 1759 690 2068 
Q 947 2378 1403 2484 
z
M 1172 3481 
Q 1172 3119 1398 2916 
Q 1625 2713 2034 2713 
Q 2441 2713 2670 2916 
Q 2900 3119 2900 3481 
Q 2900 3844 2670 4047 
Q 2441 4250 2034 4250 
Q 1625 4250 1398 4047 
Q 1172 3844 1172 3481 
z
" transform="scale(0.015625)"/>
       </defs>
       <use xlink:href="#DejaVuSans-30"/>
       <use xlink:href="#DejaVuSans-2e" transform="translate(63.623047 0)"/>
       <use xlink:href="#DejaVuSans-38" transform="translate(95.410156 0)"/>
       <use xlink:href="#DejaVuSans-30" transform="translate(159.033203 0)"/>
       <use xlink:href="#DejaVuSans-30" transform="translate(222.65625 0)"/>
       <use xlink:href="#DejaVuSans-30" transform="translate(286.279297 0)"/>
       <use xlink:href="#DejaVuSans-30" transform="translate(349.902344 0)"/>
       <use xlink:href="#DejaVuSans-30" transform="translate(413.525391 0)"/>
      </g>
     </g>
    </g>
    <g id="ytick_3">
     <g id="line2d_9">
      <g>
       <use xlink:href="#m2af4d0606b" x="94.980938" y="188.407219" style="stroke: #000000; stroke-width: 0.8"/>
      </g>
     </g>
     <g id="text_10">
      <!-- 0.900000 -->
      <g transform="translate(40.265313 192.206437) scale(0.1 -0.1)">
       <defs>
        <path id="DejaVuSans-39" d="M 703 97 
L 703 672 
Q 941 559 1184 500 
Q 1428 441 1663 441 
Q 2288 441 2617 861 
Q 2947 1281 2994 2138 
Q 2813 1869 2534 1725 
Q 2256 1581 1919 1581 
Q 1219 1581 811 2004 
Q 403 2428 403 3163 
Q 403 3881 828 4315 
Q 1253 4750 1959 4750 
Q 2769 4750 3195 4129 
Q 3622 3509 3622 2328 
Q 3622 1225 3098 567 
Q 2575 -91 1691 -91 
Q 1453 -91 1209 -44 
Q 966 3 703 97 
z
M 1959 2075 
Q 2384 2075 2632 2365 
Q 2881 2656 2881 3163 
Q 2881 3666 2632 3958 
Q 2384 4250 1959 4250 
Q 1534 4250 1286 3958 
Q 1038 3666 1038 3163 
Q 1038 2656 1286 2365 
Q 1534 2075 1959 2075 
z
" transform="scale(0.015625)"/>
       </defs>
       <use xlink:href="#DejaVuSans-30"/>
       <use xlink:href="#DejaVuSans-2e" transform="translate(63.623047 0)"/>
       <use xlink:href="#DejaVuSans-39" transform="translate(95.410156 0)"/>
       <use xlink:href="#DejaVuSans-30" transform="translate(159.033203 0)"/>
       <use xlink:href="#DejaVuSans-30" transform="translate(222.65625 0)"/>
       <use xlink:href="#DejaVuSans-30" transform="translate(286.279297 0)"/>
       <use xlink:href="#DejaVuSans-30" transform="translate(349.902344 0)"/>
       <use xlink:href="#DejaVuSans-30" transform="translate(413.525391 0)"/>
      </g>
     </g>
    </g>
    <g id="ytick_4">
     <g id="line2d_10">
      <g>
       <use xlink:href="#m2af4d0606b" x="94.980938" y="144.055219" style="stroke: #000000; stroke-width: 0.8"/>
      </g>
     </g>
     <g id="text_11">
      <!-- 1 -->
      <g transform="translate(81.618438 147.854437) scale(0.1 -0.1)">
       <use xlink:href="#DejaVuSans-31"/>
      </g>
     </g>
    </g>
    <g id="ytick_5">
     <g id="line2d_11">
      <g>
       <use xlink:href="#m2af4d0606b" x="94.980938" y="99.703219" style="stroke: #000000; stroke-width: 0.8"/>
      </g>
     </g>
     <g id="text_12">
      <!-- 1.100000 -->
      <g transform="translate(40.265313 103.502437) scale(0.1 -0.1)">
       <use xlink:href="#DejaVuSans-31"/>
       <use xlink:href="#DejaVuSans-2e" transform="translate(63.623047 0)"/>
       <use xlink:href="#DejaVuSans-31" transform="translate(95.410156 0)"/>
       <use xlink:href="#DejaVuSans-30" transform="translate(159.033203 0)"/>
       <use xlink:href="#DejaVuSans-30" transform="translate(222.65625 0)"/>
       <use xlink:href="#DejaVuSans-30" transform="translate(286.279297 0)"/>
       <use xlink:href="#DejaVuSans-30" transform="translate(349.902344 0)"/>
       <use xlink:href="#DejaVuSans-30" transform="translate(413.525391 0)"/>
      </g>
     </g>
    </g>
    <g id="ytick_6">
     <g id="line2d_12">
      <g>
       <use xlink:href="#m2af4d0606b" x="94.980938" y="55.351219" style="stroke: #000000; stroke-width: 0.8"/>
      </g>
     </g>
     <g id="text_13">
      <!-- 1.2 -->
      <g transform="translate(72.077813 59.150437) scale(0.1 -0.1)">
       <use xlink:href="#DejaVuSans-31"/>
       <use xlink:href="#DejaVuSans-2e" transform="translate(63.623047 0)"/>
       <use xlink:href="#DejaVuSans-32" transform="translate(95.410156 0)"/>
      </g>
     </g>
    </g>
    <g id="ytick_7">
     <g id="line2d_13">
      <g>
       <use xlink:href="#m2af4d0606b" x="94.980938" y="10.999219" style="stroke: #000000; stroke-width: 0.8"/>
      </g>
     </g>
     <g id="text_14">
      <!-- 1.3 -->
      <g transform="translate(72.077813 14.798437) scale(0.1 -0.1)">
       <defs>
        <path id="DejaVuSans-33" d="M 2597 2516 
Q 3050 2419 3304 2112 
Q 3559 1806 3559 1356 
Q 3559 666 3084 287 
Q 2609 -91 1734 -91 
Q 1441 -91 1130 -33 
Q 819 25 488 141 
L 488 750 
Q 750 597 1062 519 
Q 1375 441 1716 441 
Q 2309 441 2620 675 
Q 2931 909 2931 1356 
Q 2931 1769 2642 2001 
Q 2353 2234 1838 2234 
L 1294 2234 
L 1294 2753 
L 1863 2753 
Q 2328 2753 2575 2939 
Q 2822 3125 2822 3475 
Q 2822 3834 2567 4026 
Q 2313 4219 1838 4219 
Q 1578 4219 1281 4162 
Q 984 4106 628 3988 
L 628 4550 
Q 988 4650 1302 4700 
Q 1616 4750 1894 4750 
Q 2613 4750 3031 4423 
Q 3450 4097 3450 3541 
Q 3450 3153 3228 2886 
Q 3006 2619 2597 2516 
z
" transform="scale(0.015625)"/>
       </defs>
       <use xlink:href="#DejaVuSans-31"/>
       <use xlink:href="#DejaVuSans-2e" transform="translate(63.623047 0)"/>
       <use xlink:href="#DejaVuSans-33" transform="translate(95.410156 0)"/>
      </g>
     </g>
    </g>
    <g id="text_15">
     <!-- Latency (ms) -->
     <g transform="translate(34.185625 176.784906) rotate(-90) scale(0.1 -0.1)">
      <defs>
       <path id="DejaVuSans-4c" d="M 628 4666 
L 1259 4666 
L 1259 531 
L 3531 531 
L 3531 0 
L 628 0 
L 628 4666 
z
" transform="scale(0.015625)"/>
       <path id="DejaVuSans-61" d="M 2194 1759 
Q 1497 1759 1228 1600 
Q 959 1441 959 1056 
Q 959 750 1161 570 
Q 1363 391 1709 391 
Q 2188 391 2477 730 
Q 2766 1069 2766 1631 
L 2766 1759 
L 2194 1759 
z
M 3341 1997 
L 3341 0 
L 2766 0 
L 2766 531 
Q 2569 213 2275 61 
Q 1981 -91 1556 -91 
Q 1019 -91 701 211 
Q 384 513 384 1019 
Q 384 1609 779 1909 
Q 1175 2209 1959 2209 
L 2766 2209 
L 2766 2266 
Q 2766 2663 2505 2880 
Q 2244 3097 1772 3097 
Q 1472 3097 1187 3025 
Q 903 2953 641 2809 
L 641 3341 
Q 956 3463 1253 3523 
Q 1550 3584 1831 3584 
Q 2591 3584 2966 3190 
Q 3341 2797 3341 1997 
z
" transform="scale(0.015625)"/>
       <path id="DejaVuSans-74" d="M 1172 4494 
L 1172 3500 
L 2356 3500 
L 2356 3053 
L 1172 3053 
L 1172 1153 
Q 1172 725 1289 603 
Q 1406 481 1766 481 
L 2356 481 
L 2356 0 
L 1766 0 
Q 1100 0 847 248 
Q 594 497 594 1153 
L 594 3053 
L 172 3053 
L 172 3500 
L 594 3500 
L 594 4494 
L 1172 4494 
z
" transform="scale(0.015625)"/>
       <path id="DejaVuSans-79" d="M 2059 -325 
Q 1816 -950 1584 -1140 
Q 1353 -1331 966 -1331 
L 506 -1331 
L 506 -850 
L 844 -850 
Q 1081 -850 1212 -737 
Q 1344 -625 1503 -206 
L 1606 56 
L 191 3500 
L 800 3500 
L 1894 763 
L 2988 3500 
L 3597 3500 
L 2059 -325 
z
" transform="scale(0.015625)"/>
       <path id="DejaVuSans-20" transform="scale(0.015625)"/>
       <path id="DejaVuSans-28" d="M 1984 4856 
Q 1566 4138 1362 3434 
Q 1159 2731 1159 2009 
Q 1159 1288 1364 580 
Q 1569 -128 1984 -844 
L 1484 -844 
Q 1016 -109 783 600 
Q 550 1309 550 2009 
Q 550 2706 781 3412 
Q 1013 4119 1484 4856 
L 1984 4856 
z
" transform="scale(0.015625)"/>
       <path id="DejaVuSans-6d" d="M 3328 2828 
Q 3544 3216 3844 3400 
Q 4144 3584 4550 3584 
Q 5097 3584 5394 3201 
Q 5691 2819 5691 2113 
L 5691 0 
L 5113 0 
L 5113 2094 
Q 5113 2597 4934 2840 
Q 4756 3084 4391 3084 
Q 3944 3084 3684 2787 
Q 3425 2491 3425 1978 
L 3425 0 
L 2847 0 
L 2847 2094 
Q 2847 2600 2669 2842 
Q 2491 3084 2119 3084 
Q 1678 3084 1418 2786 
Q 1159 2488 1159 1978 
L 1159 0 
L 581 0 
L 581 3500 
L 1159 3500 
L 1159 2956 
Q 1356 3278 1631 3431 
Q 1906 3584 2284 3584 
Q 2666 3584 2933 3390 
Q 3200 3197 3328 2828 
z
" transform="scale(0.015625)"/>
       <path id="DejaVuSans-73" d="M 2834 3397 
L 2834 2853 
Q 2591 2978 2328 3040 
Q 2066 3103 1784 3103 
Q 1356 3103 1142 2972 
Q 928 2841 928 2578 
Q 928 2378 1081 2264 
Q 1234 2150 1697 2047 
L 1894 2003 
Q 2506 1872 2764 1633 
Q 3022 1394 3022 966 
Q 3022 478 2636 193 
Q 2250 -91 1575 -91 
Q 1294 -91 989 -36 
Q 684 19 347 128 
L 347 722 
Q 666 556 975 473 
Q 1284 391 1588 391 
Q 1994 391 2212 530 
Q 2431 669 2431 922 
Q 2431 1156 2273 1281 
Q 2116 1406 1581 1522 
L 1381 1569 
Q 847 1681 609 1914 
Q 372 2147 372 2553 
Q 372 3047 722 3315 
Q 1072 3584 1716 3584 
Q 2034 3584 2315 3537 
Q 2597 3491 2834 3397 
z
" transform="scale(0.015625)"/>
       <path id="DejaVuSans-29" d="M 513 4856 
L 1013 4856 
Q 1481 4119 1714 3412 
Q 1947 2706 1947 2009 
Q 1947 1309 1714 600 
Q 1481 -109 1013 -844 
L 513 -844 
Q 928 -128 1133 580 
Q 1338 1288 1338 2009 
Q 1338 2731 1133 3434 
Q 928 4138 513 4856 
z
" transform="scale(0.015625)"/>
      </defs>
      <use xlink:href="#DejaVuSans-4c"/>
      <use xlink:href="#DejaVuSans-61" transform="translate(55.712891 0)"/>
      <use xlink:href="#DejaVuSans-74" transform="translate(116.992188 0)"/>
      <use xlink:href="#DejaVuSans-65" transform="translate(156.201172 0)"/>
      <use xlink:href="#DejaVuSans-6e" transform="translate(217.724609 0)"/>
      <use xlink:href="#DejaVuSans-63" transform="translate(281.103516 0)"/>
      <use xlink:href="#DejaVuSans-79" transform="translate(336.083984 0)"/>
      <use xlink:href="#DejaVuSans-20" transform="translate(395.263672 0)"/>
      <use xlink:href="#DejaVuSans-28" transform="translate(427.050781 0)"/>
      <use xlink:href="#DejaVuSans-6d" transform="translate(466.064453 0)"/>
      <use xlink:href="#DejaVuSans-73" transform="translate(563.476562 0)"/>
      <use xlink:href="#DejaVuSans-29" transform="translate(615.576172 0)"/>
     </g>
    </g>
   </g>
   <g id="line2d_14"/>
   <g id="line2d_15"/>
   <g id="line2d_16"/>
   <g id="line2d_17"/>
   <g id="line2d_18"/>
   <g id="line2d_19"/>
   <g id="line2d_20">
    <path d="M 94.980938 257.024287 
L 452.100938 257.024287 
" clip-path="url(#pf43169f485)" style="fill: none; stroke-dasharray: 1.5,2.475; stroke-dashoffset: 0; stroke: #808080; stroke-width: 1.5"/>
   </g>
   <g id="patch_3">
    <path d="M 94.980938 277.111219 
L 94.980938 10.999219 
" style="fill: none; stroke: #000000; stroke-width: 0.8; stroke-linejoin: miter; stroke-linecap: square"/>
   </g>
   <g id="patch_4">
    <path d="M 452.100938 277.111219 
L 452.100938 10.999219 
" style="fill: none; stroke: #000000; stroke-width: 0.8; stroke-linejoin: miter; stroke-linecap: square"/>
   </g>
   <g id="patch_5">
    <path d="M 94.980938 277.111219 
L 452.100938 277.111219 
" style="fill: none; stroke: #000000; stroke-width: 0.8; stroke-linejoin: miter; stroke-linecap: square"/>
   </g>
   <g id="patch_6">
    <path d="M 94.980938 10.999219 
L 452.100938 10.999219 
" style="fill: none; stroke: #000000; stroke-width: 0.8; stroke-linejoin: miter; stroke-linecap: square"/>
   </g>
   <g id="text_16">
    <!-- p99 = 0.745290 -->
    <g transform="translate(7.2 259.783662) scale(0.1 -0.1)">
     <defs>
      <path id="DejaVuSans-70" d="M 1159 525 
L 1159 -1331 
L 581 -1331 
L 581 3500 
L 1159 3500 
L 1159 2969 
Q 1341 3281 1617 3432 
Q 1894 3584 2278 3584 
Q 2916 3584 3314 3078 
Q 3713 2572 3713 1747 
Q 3713 922 3314 415 
Q 2916 -91 2278 -91 
Q 1894 -91 1617 61 
Q 1341 213 1159 525 
z
M 3116 1747 
Q 3116 2381 2855 2742 
Q 2594 3103 2138 3103 
Q 1681 3103 1420 2742 
Q 1159 2381 1159 1747 
Q 1159 1113 1420 752 
Q 1681 391 2138 391 
Q 2594 391 2855 752 
Q 3116 1113 3116 1747 
z
" transform="scale(0.015625)"/>
      <path id="DejaVuSans-3d" d="M 678 2906 
L 4684 2906 
L 4684 2381 
L 678 2381 
L 678 2906 
z
M 678 1631 
L 4684 1631 
L 4684 1100 
L 678 1100 
L 678 1631 
z
" transform="scale(0.015625)"/>
      <path id="DejaVuSans-34" d="M 2419 4116 
L 825 1625 
L 2419 1625 
L 2419 4116 
z
M 2253 4666 
L 3047 4666 
L 3047 1625 
L 3713 1625 
L 3713 1100 
L 3047 1100 
L 3047 0 
L 2419 0 
L 2419 1100 
L 313 1100 
L 313 1709 
L 2253 4666 
z
" transform="scale(0.015625)"/>
     </defs>
     <use xlink:href="#DejaVuSans-70"/>
     <use xlink:href="#DejaVuSans-39" transform="translate(63.476562 0)"/>
     <use xlink:href="#DejaVuSans-39" transform="translate(127.099609 0)"/>
     <use xlink:href="#DejaVuSans-20" transform="translate(190.722656 0)"/>
     <use xlink:href="#DejaVuSans-3d" transform="translate(222.509766 0)"/>
     <use xlink:href="#DejaVuSans-20" transform="translate(306.298828 0)"/>
     <use xlink:href="#DejaVuSans-30" transform="translate(338.085938 0)"/>
     <use xlink:href="#DejaVuSans-2e" transform="translate(401.708984 0)"/>
     <use xlink:href="#DejaVuSans-37" transform="translate(433.496094 0)"/>
     <use xlink:href="#DejaVuSans-34" transform="translate(497.119141 0)"/>
     <use xlink:href="#DejaVuSans-35" transform="translate(560.742188 0)"/>
     <use xlink:href="#DejaVuSans-32" transform="translate(624.365234 0)"/>
     <use xlink:href="#DejaVuSans-39" transform="translate(687.988281 0)"/>
     <use xlink:href="#DejaVuSans-30" transform="translate(751.611328 0)"/>
    </g>
   </g>
   <g id="legend_1">
    <g id="patch_7">
     <path d="M 101.980938 107.067969 
L 217.22625 107.067969 
Q 219.22625 107.067969 219.22625 105.067969 
L 219.22625 17.999219 
Q 219.22625 15.999219 217.22625 15.999219 
L 101.980938 15.999219 
Q 99.980938 15.999219 99.980938 17.999219 
L 99.980938 105.067969 
Q 99.980938 107.067969 101.980938 107.067969 
z
" style="fill: #ffffff; opacity: 0.8; stroke: #cccccc; stroke-linejoin: miter"/>
    </g>
    <g id="line2d_21"/>
    <g id="text_17">
     <!-- Scenario -->
     <g transform="translate(131.980938 27.597656) scale(0.1 -0.1)">
      <defs>
       <path id="DejaVuSans-72" d="M 2631 2963 
Q 2534 3019 2420 3045 
Q 2306 3072 2169 3072 
Q 1681 3072 1420 2755 
Q 1159 2438 1159 1844 
L 1159 0 
L 581 0 
L 581 3500 
L 1159 3500 
L 1159 2956 
Q 1341 3275 1631 3429 
Q 1922 3584 2338 3584 
Q 2397 3584 2469 3576 
Q 2541 3569 2628 3553 
L 2631 2963 
z
" transform="scale(0.015625)"/>
       <path id="DejaVuSans-69" d="M 603 3500 
L 1178 3500 
L 1178 0 
L 603 0 
L 603 3500 
z
M 603 4863 
L 1178 4863 
L 1178 4134 
L 603 4134 
L 603 4863 
z
" transform="scale(0.015625)"/>
       <path id="DejaVuSans-6f" d="M 1959 3097 
Q 1497 3097 1228 2736 
Q 959 2375 959 1747 
Q 959 1119 1226 758 
Q 1494 397 1959 397 
Q 2419 397 2687 759 
Q 2956 1122 2956 1747 
Q 2956 2369 2687 2733 
Q 2419 3097 1959 3097 
z
M 1959 3584 
Q 2709 3584 3137 3096 
Q 3566 2609 3566 1747 
Q 3566 888 3137 398 
Q 2709 -91 1959 -91 
Q 1206 -91 779 398 
Q 353 888 353 1747 
Q 353 2609 779 3096 
Q 1206 3584 1959 3584 
z
" transform="scale(0.015625)"/>
      </defs>
      <use xlink:href="#DejaVuSans-53"/>
      <use xlink:href="#DejaVuSans-63" transform="translate(63.476562 0)"/>
      <use xlink:href="#DejaVuSans-65" transform="translate(118.457031 0)"/>
      <use xlink:href="#DejaVuSans-6e" transform="translate(179.980469 0)"/>
      <use xlink:href="#DejaVuSans-61" transform="translate(243.359375 0)"/>
      <use xlink:href="#DejaVuSans-72" transform="translate(304.638672 0)"/>
      <use xlink:href="#DejaVuSans-69" transform="translate(345.751953 0)"/>
      <use xlink:href="#DejaVuSans-6f" transform="translate(373.535156 0)"/>
     </g>
    </g>
    <g id="line2d_22">
     <defs>
      <path id="m37577c7b06" d="M 0 3 
C 0.795609 3 1.55874 2.683901 2.12132 2.12132 
C 2.683901 1.55874 3 0.795609 3 0 
C 3 -0.795609 2.683901 -1.55874 2.12132 -2.12132 
C 1.55874 -2.683901 0.795609 -3 0 -3 
C -0.795609 -3 -1.55874 -2.683901 -2.12132 -2.12132 
C -2.683901 -1.55874 -3 -0.795609 -3 0 
C -3 0.795609 -2.683901 1.55874 -2.12132 2.12132 
C -1.55874 2.683901 -0.795609 3 0 3 
z
" style="stroke: #ffffff; stroke-width: 0.48"/>
     </defs>
     <g>
      <use xlink:href="#m37577c7b06" x="113.980938" y="38.775781" style="fill: #1f77b4; stroke: #ffffff; stroke-width: 0.48"/>
     </g>
    </g>
    <g id="text_18">
     <!-- Baseline -->
     <g transform="translate(131.980938 42.275781) scale(0.1 -0.1)">
      <defs>
       <path id="DejaVuSans-42" d="M 1259 2228 
L 1259 519 
L 2272 519 
Q 2781 519 3026 730 
Q 3272 941 3272 1375 
Q 3272 1813 3026 2020 
Q 2781 2228 2272 2228 
L 1259 2228 
z
M 1259 4147 
L 1259 2741 
L 2194 2741 
Q 2656 2741 2882 2914 
Q 3109 3088 3109 3444 
Q 3109 3797 2882 3972 
Q 2656 4147 2194 4147 
L 1259 4147 
z
M 628 4666 
L 2241 4666 
Q 2963 4666 3353 4366 
Q 3744 4066 3744 3513 
Q 3744 3084 3544 2831 
Q 3344 2578 2956 2516 
Q 3422 2416 3680 2098 
Q 3938 1781 3938 1306 
Q 3938 681 3513 340 
Q 3088 0 2303 0 
L 628 0 
L 628 4666 
z
" transform="scale(0.015625)"/>
       <path id="DejaVuSans-6c" d="M 603 4863 
L 1178 4863 
L 1178 0 
L 603 0 
L 603 4863 
z
" transform="scale(0.015625)"/>
      </defs>
      <use xlink:href="#DejaVuSans-42"/>
      <use xlink:href="#DejaVuSans-61" transform="translate(68.603516 0)"/>
      <use xlink:href="#DejaVuSans-73" transform="translate(129.882812 0)"/>
      <use xlink:href="#DejaVuSans-65" transform="translate(181.982422 0)"/>
      <use xlink:href="#DejaVuSans-6c" transform="translate(243.505859 0)"/>
      <use xlink:href="#DejaVuSans-69" transform="translate(271.289062 0)"/>
      <use xlink:href="#DejaVuSans-6e" transform="translate(299.072266 0)"/>
      <use xlink:href="#DejaVuSans-65" transform="translate(362.451172 0)"/>
     </g>
    </g>
    <g id="line2d_23">
     <defs>
      <path id="m9cb156ef4e" d="M 0 3 
C 0.795609 3 1.55874 2.683901 2.12132 2.12132 
C 2.683901 1.55874 3 0.795609 3 0 
C 3 -0.795609 2.683901 -1.55874 2.12132 -2.12132 
C 1.55874 -2.683901 0.795609 -3 0 -3 
C -0.795609 -3 -1.55874 -2.683901 -2.12132 -2.12132 
C -2.683901 -1.55874 -3 -0.795609 -3 0 
C -3 0.795609 -2.683901 1.55874 -2.12132 2.12132 
C -1.55874 2.683901 -0.795609 3 0 3 
z
" style="stroke: #ffffff; stroke-width: 0.48"/>
     </defs>
     <g>
      <use xlink:href="#m9cb156ef4e" x="113.980938" y="53.453906" style="fill: #ff7f0e; stroke: #ffffff; stroke-width: 0.48"/>
     </g>
    </g>
    <g id="text_19">
     <!-- Optimization -->
     <g transform="translate(131.980938 56.953906) scale(0.1 -0.1)">
      <defs>
       <path id="DejaVuSans-4f" d="M 2522 4238 
Q 1834 4238 1429 3725 
Q 1025 3213 1025 2328 
Q 1025 1447 1429 934 
Q 1834 422 2522 422 
Q 3209 422 3611 934 
Q 4013 1447 4013 2328 
Q 4013 3213 3611 3725 
Q 3209 4238 2522 4238 
z
M 2522 4750 
Q 3503 4750 4090 4092 
Q 4678 3434 4678 2328 
Q 4678 1225 4090 567 
Q 3503 -91 2522 -91 
Q 1538 -91 948 565 
Q 359 1222 359 2328 
Q 359 3434 948 4092 
Q 1538 4750 2522 4750 
z
" transform="scale(0.015625)"/>
       <path id="DejaVuSans-7a" d="M 353 3500 
L 3084 3500 
L 3084 2975 
L 922 459 
L 3084 459 
L 3084 0 
L 275 0 
L 275 525 
L 2438 3041 
L 353 3041 
L 353 3500 
z
" transform="scale(0.015625)"/>
      </defs>
      <use xlink:href="#DejaVuSans-4f"/>
      <use xlink:href="#DejaVuSans-70" transform="translate(78.710938 0)"/>
      <use xlink:href="#DejaVuSans-74" transform="translate(142.1875 0)"/>
      <use xlink:href="#DejaVuSans-69" transform="translate(181.396484 0)"/>
      <use xlink:href="#DejaVuSans-6d" transform="translate(209.179688 0)"/>
      <use xlink:href="#DejaVuSans-69" transform="translate(306.591797 0)"/>
      <use xlink:href="#DejaVuSans-7a" transform="translate(334.375 0)"/>
      <use xlink:href="#DejaVuSans-61" transform="translate(386.865234 0)"/>
      <use xlink:href="#DejaVuSans-74" transform="translate(448.144531 0)"/>
      <use xlink:href="#DejaVuSans-69" transform="translate(487.353516 0)"/>
      <use xlink:href="#DejaVuSans-6f" transform="translate(515.136719 0)"/>
      <use xlink:href="#DejaVuSans-6e" transform="translate(576.318359 0)"/>
     </g>
    </g>
    <g id="line2d_24"/>
    <g id="text_20">
     <!-- Mode -->
     <g transform="translate(131.980938 71.632031) scale(0.1 -0.1)">
      <defs>
       <path id="DejaVuSans-4d" d="M 628 4666 
L 1569 4666 
L 2759 1491 
L 3956 4666 
L 4897 4666 
L 4897 0 
L 4281 0 
L 4281 4097 
L 3078 897 
L 2444 897 
L 1241 4097 
L 1241 0 
L 628 0 
L 628 4666 
z
" transform="scale(0.015625)"/>
       <path id="DejaVuSans-64" d="M 2906 2969 
L 2906 4863 
L 3481 4863 
L 3481 0 
L 2906 0 
L 2906 525 
Q 2725 213 2448 61 
Q 2172 -91 1784 -91 
Q 1150 -91 751 415 
Q 353 922 353 1747 
Q 353 2572 751 3078 
Q 1150 3584 1784 3584 
Q 2172 3584 2448 3432 
Q 2725 3281 2906 2969 
z
M 947 1747 
Q 947 1113 1208 752 
Q 1469 391 1925 391 
Q 2381 391 2643 752 
Q 2906 1113 2906 1747 
Q 2906 2381 2643 2742 
Q 2381 3103 1925 3103 
Q 1469 3103 1208 2742 
Q 947 2381 947 1747 
z
" transform="scale(0.015625)"/>
      </defs>
      <use xlink:href="#DejaVuSans-4d"/>
      <use xlink:href="#DejaVuSans-6f" transform="translate(86.279297 0)"/>
      <use xlink:href="#DejaVuSans-64" transform="translate(147.460938 0)"/>
      <use xlink:href="#DejaVuSans-65" transform="translate(210.9375 0)"/>
     </g>
    </g>
    <g id="line2d_25">
     <defs>
      <path id="m14d157d240" d="M 0 3 
C 0.795609 3 1.55874 2.683901 2.12132 2.12132 
C 2.683901 1.55874 3 0.795609 3 0 
C 3 -0.795609 2.683901 -1.55874 2.12132 -2.12132 
C 1.55874 -2.683901 0.795609 -3 0 -3 
C -0.795609 -3 -1.55874 -2.683901 -2.12132 -2.12132 
C -2.683901 -1.55874 -3 -0.795609 -3 0 
C -3 0.795609 -2.683901 1.55874 -2.12132 2.12132 
C -1.55874 2.683901 -0.795609 3 0 3 
z
" style="stroke: #ffffff; stroke-width: 0.48"/>
     </defs>
     <g>
      <use xlink:href="#m14d157d240" x="113.980938" y="82.810156" style="fill: #333333; stroke: #ffffff; stroke-width: 0.48"/>
     </g>
    </g>
    <g id="text_21">
     <!-- No Service Mesh -->
     <g transform="translate(131.980938 86.310156) scale(0.1 -0.1)">
      <defs>
       <path id="DejaVuSans-4e" d="M 628 4666 
L 1478 4666 
L 3547 763 
L 3547 4666 
L 4159 4666 
L 4159 0 
L 3309 0 
L 1241 3903 
L 1241 0 
L 628 0 
L 628 4666 
z
" transform="scale(0.015625)"/>
       <path id="DejaVuSans-76" d="M 191 3500 
L 800 3500 
L 1894 563 
L 2988 3500 
L 3597 3500 
L 2284 0 
L 1503 0 
L 191 3500 
z
" transform="scale(0.015625)"/>
       <path id="DejaVuSans-68" d="M 3513 2113 
L 3513 0 
L 2938 0 
L 2938 2094 
Q 2938 2591 2744 2837 
Q 2550 3084 2163 3084 
Q 1697 3084 1428 2787 
Q 1159 2491 1159 1978 
L 1159 0 
L 581 0 
L 581 4863 
L 1159 4863 
L 1159 2956 
Q 1366 3272 1645 3428 
Q 1925 3584 2291 3584 
Q 2894 3584 3203 3211 
Q 3513 2838 3513 2113 
z
" transform="scale(0.015625)"/>
      </defs>
      <use xlink:href="#DejaVuSans-4e"/>
      <use xlink:href="#DejaVuSans-6f" transform="translate(74.804688 0)"/>
      <use xlink:href="#DejaVuSans-20" transform="translate(135.986328 0)"/>
      <use xlink:href="#DejaVuSans-53" transform="translate(167.773438 0)"/>
      <use xlink:href="#DejaVuSans-65" transform="translate(231.25 0)"/>
      <use xlink:href="#DejaVuSans-72" transform="translate(292.773438 0)"/>
      <use xlink:href="#DejaVuSans-76" transform="translate(333.886719 0)"/>
      <use xlink:href="#DejaVuSans-69" transform="translate(393.066406 0)"/>
      <use xlink:href="#DejaVuSans-63" transform="translate(420.849609 0)"/>
      <use xlink:href="#DejaVuSans-65" transform="translate(475.830078 0)"/>
      <use xlink:href="#DejaVuSans-20" transform="translate(537.353516 0)"/>
      <use xlink:href="#DejaVuSans-4d" transform="translate(569.140625 0)"/>
      <use xlink:href="#DejaVuSans-65" transform="translate(655.419922 0)"/>
      <use xlink:href="#DejaVuSans-73" transform="translate(716.943359 0)"/>
      <use xlink:href="#DejaVuSans-68" transform="translate(769.042969 0)"/>
     </g>
    </g>
    <g id="line2d_26">
     <defs>
      <path id="mf7085990e5" d="M -1.5 3 
L 0 1.5 
L 1.5 3 
L 3 1.5 
L 1.5 0 
L 3 -1.5 
L 1.5 -3 
L 0 -1.5 
L -1.5 -3 
L -3 -1.5 
L -1.5 0 
L -3 1.5 
z
" style="stroke: #ffffff; stroke-width: 0.48; stroke-linejoin: miter"/>
     </defs>
     <g>
      <use xlink:href="#mf7085990e5" x="113.980938" y="97.488281" style="fill: #333333; stroke: #ffffff; stroke-width: 0.48; stroke-linejoin: miter"/>
     </g>
    </g>
    <g id="text_22">
     <!-- Ambient Mesh -->
     <g transform="translate(131.980938 100.988281) scale(0.1 -0.1)">
      <defs>
       <path id="DejaVuSans-41" d="M 2188 4044 
L 1331 1722 
L 3047 1722 
L 2188 4044 
z
M 1831 4666 
L 2547 4666 
L 4325 0 
L 3669 0 
L 3244 1197 
L 1141 1197 
L 716 0 
L 50 0 
L 1831 4666 
z
" transform="scale(0.015625)"/>
       <path id="DejaVuSans-62" d="M 3116 1747 
Q 3116 2381 2855 2742 
Q 2594 3103 2138 3103 
Q 1681 3103 1420 2742 
Q 1159 2381 1159 1747 
Q 1159 1113 1420 752 
Q 1681 391 2138 391 
Q 2594 391 2855 752 
Q 3116 1113 3116 1747 
z
M 1159 2969 
Q 1341 3281 1617 3432 
Q 1894 3584 2278 3584 
Q 2916 3584 3314 3078 
Q 3713 2572 3713 1747 
Q 3713 922 3314 415 
Q 2916 -91 2278 -91 
Q 1894 -91 1617 61 
Q 1341 213 1159 525 
L 1159 0 
L 581 0 
L 581 4863 
L 1159 4863 
L 1159 2969 
z
" transform="scale(0.015625)"/>
      </defs>
      <use xlink:href="#DejaVuSans-41"/>
      <use xlink:href="#DejaVuSans-6d" transform="translate(68.408203 0)"/>
      <use xlink:href="#DejaVuSans-62" transform="translate(165.820312 0)"/>
      <use xlink:href="#DejaVuSans-69" transform="translate(229.296875 0)"/>
      <use xlink:href="#DejaVuSans-65" transform="translate(257.080078 0)"/>
      <use xlink:href="#DejaVuSans-6e" transform="translate(318.603516 0)"/>
      <use xlink:href="#DejaVuSans-74" transform="translate(381.982422 0)"/>
      <use xlink:href="#DejaVuSans-20" transform="translate(421.191406 0)"/>
      <use xlink:href="#DejaVuSans-4d" transform="translate(452.978516 0)"/>
      <use xlink:href="#DejaVuSans-65" transform="translate(539.257812 0)"/>
      <use xlink:href="#DejaVuSans-73" transform="translate(600.78125 0)"/>
      <use xlink:href="#DejaVuSans-68" transform="translate(652.880859 0)"/>
     </g>
    </g>
   </g>
  </g>
 </g>
 <defs>
  <clipPath id="pf43169f485">
   <rect x="94.980938" y="10.999219" width="357.12" height="266.112"/>
  </clipPath>
 </defs>
</svg>
