<?xml version="1.0" encoding="utf-8" standalone="no"?>
<!DOCTYPE svg PUBLIC "-//W3C//DTD SVG 1.1//EN"
  "http://www.w3.org/Graphics/SVG/1.1/DTD/svg11.dtd">
<svg xmlns:xlink="http://www.w3.org/1999/xlink" width="484.987188pt" height="310.86825pt" viewBox="0 0 484.987188 310.86825" xmlns="http://www.w3.org/2000/svg" version="1.1">
 <metadata>
  <rdf:RDF xmlns:dc="http://purl.org/dc/elements/1.1/" xmlns:cc="http://creativecommons.org/ns#" xmlns:rdf="http://www.w3.org/1999/02/22-rdf-syntax-ns#">
   <cc:Work>
    <dc:type rdf:resource="http://purl.org/dc/dcmitype/StillImage"/>
    <dc:date>2025-02-04T01:17:49.647201</dc:date>
    <dc:format>image/svg+xml</dc:format>
    <dc:creator>
     <cc:Agent>
      <dc:title>Matplotlib v3.10.0, https://matplotlib.org/</dc:title>
     </cc:Agent>
    </dc:creator>
   </cc:Work>
  </rdf:RDF>
 </metadata>
 <defs>
  <style type="text/css">*{stroke-linejoin: round; stroke-linecap: butt}</style>
 </defs>
 <g id="figure_1">
  <g id="patch_1">
   <path d="M -0 310.86825 
L 484.987188 310.86825 
L 484.987188 0 
L -0 0 
z
" style="fill: #ffffff"/>
  </g>
  <g id="axes_1">
   <g id="patch_2">
    <path d="M 111.123438 273.312 
L 468.243438 273.312 
L 468.243438 7.2 
L 111.123438 7.2 
z
" style="fill: #ffffff"/>
   </g>
   <g id="FillBetweenPolyCollection_1">
    <defs>
     <path id="m48a4cc2705" d="M 171.665991 -237.14025 
L 171.665991 -237.290046 
L 174.346267 -237.327071 
L 177.026543 -237.366954 
L 179.706818 -237.406731 
L 182.387094 -237.44157 
L 185.06737 -237.466111 
L 187.747646 -237.476871 
L 190.427922 -237.474475 
L 193.108197 -237.464352 
L 195.788473 -237.455307 
L 198.468749 -237.456737 
L 201.149025 -237.47607 
L 203.8293 -237.517832 
L 206.509576 -237.584695 
L 209.189852 -237.679567 
L 211.870128 -237.807189 
L 214.550404 -237.974083 
L 217.230679 -238.186787 
L 219.910955 -238.44946 
L 222.591231 -238.762451 
L 225.271507 -239.122969 
L 227.951783 -239.528098 
L 230.632058 -239.979366 
L 233.312334 -240.487235 
L 235.99261 -241.073392 
L 238.672886 -241.768761 
L 241.353161 -242.606621 
L 244.033437 -243.612969 
L 246.713713 -244.799061 
L 249.393989 -246.161359 
L 252.074265 -247.690442 
L 254.75454 -249.384331 
L 257.434816 -251.257596 
L 260.115092 -253.339196 
L 262.795368 -255.659 
L 265.475643 -258.23034 
L 268.155919 -261.038429 
L 270.836195 -264.040383 
L 273.516471 -267.175175 
L 276.196747 -270.376127 
L 278.877022 -273.577894 
L 281.557298 -276.714528 
L 284.237574 -279.712405 
L 286.91785 -282.486679 
L 289.598126 -284.948049 
L 292.278401 -287.01758 
L 294.958677 -288.637834 
L 297.638953 -289.767957 
L 300.319229 -290.36265 
L 302.999504 -290.351993 
L 305.67978 -289.645732 
L 308.360056 -288.172362 
L 311.040332 -285.936901 
L 313.720608 -283.061446 
L 316.400883 -279.776801 
L 319.081159 -276.361365 
L 321.761435 -273.056007 
L 324.441711 -269.998242 
L 327.121986 -267.206309 
L 329.802262 -264.614434 
L 332.482538 -262.134361 
L 335.162814 -259.709993 
L 337.84309 -257.342579 
L 340.523365 -255.083197 
L 343.203641 -253.004823 
L 345.883917 -251.171509 
L 348.564193 -249.617816 
L 351.244468 -248.343266 
L 353.924744 -247.319356 
L 356.60502 -246.503084 
L 359.285296 -245.850771 
L 361.965572 -245.327846 
L 364.645847 -244.912771 
L 367.326123 -244.595566 
L 370.006399 -244.373146 
L 372.686675 -244.244558 
L 375.366951 -244.208805 
L 378.047226 -244.265981 
L 380.727502 -244.419715 
L 383.407778 -244.677131 
L 386.088054 -245.043195 
L 388.768329 -245.509685 
L 391.448605 -246.043331 
L 394.128881 -246.580379 
L 396.809157 -247.033572 
L 399.489433 -247.312183 
L 402.169708 -247.348662 
L 404.849984 -247.1208 
L 407.53026 -246.659118 
L 410.210536 -246.035425 
L 412.890811 -245.33701 
L 415.571087 -244.637287 
L 418.251363 -243.97499 
L 420.931639 -243.349766 
L 423.611915 -242.734319 
L 426.29219 -242.095927 
L 428.972466 -241.416674 
L 431.652742 -240.703803 
L 434.333018 -239.987509 
L 437.013294 -239.309623 
L 437.013294 -237.14025 
L 437.013294 -237.14025 
L 434.333018 -237.14025 
L 431.652742 -237.14025 
L 428.972466 -237.14025 
L 426.29219 -237.14025 
L 423.611915 -237.14025 
L 420.931639 -237.14025 
L 418.251363 -237.14025 
L 415.571087 -237.14025 
L 412.890811 -237.14025 
L 410.210536 -237.14025 
L 407.53026 -237.14025 
L 404.849984 -237.14025 
L 402.169708 -237.14025 
L 399.489433 -237.14025 
L 396.809157 -237.14025 
L 394.128881 -237.14025 
L 391.448605 -237.14025 
L 388.768329 -237.14025 
L 386.088054 -237.14025 
L 383.407778 -237.14025 
L 380.727502 -237.14025 
L 378.047226 -237.14025 
L 375.366951 -237.14025 
L 372.686675 -237.14025 
L 370.006399 -237.14025 
L 367.326123 -237.14025 
L 364.645847 -237.14025 
L 361.965572 -237.14025 
L 359.285296 -237.14025 
L 356.60502 -237.14025 
L 353.924744 -237.14025 
L 351.244468 -237.14025 
L 348.564193 -237.14025 
L 345.883917 -237.14025 
L 343.203641 -237.14025 
L 340.523365 -237.14025 
L 337.84309 -237.14025 
L 335.162814 -237.14025 
L 332.482538 -237.14025 
L 329.802262 -237.14025 
L 327.121986 -237.14025 
L 324.441711 -237.14025 
L 321.761435 -237.14025 
L 319.081159 -237.14025 
L 316.400883 -237.14025 
L 313.720608 -237.14025 
L 311.040332 -237.14025 
L 308.360056 -237.14025 
L 305.67978 -237.14025 
L 302.999504 -237.14025 
L 300.319229 -237.14025 
L 297.638953 -237.14025 
L 294.958677 -237.14025 
L 292.278401 -237.14025 
L 289.598126 -237.14025 
L 286.91785 -237.14025 
L 284.237574 -237.14025 
L 281.557298 -237.14025 
L 278.877022 -237.14025 
L 276.196747 -237.14025 
L 273.516471 -237.14025 
L 270.836195 -237.14025 
L 268.155919 -237.14025 
L 265.475643 -237.14025 
L 262.795368 -237.14025 
L 260.115092 -237.14025 
L 257.434816 -237.14025 
L 254.75454 -237.14025 
L 252.074265 -237.14025 
L 249.393989 -237.14025 
L 246.713713 -237.14025 
L 244.033437 -237.14025 
L 241.353161 -237.14025 
L 238.672886 -237.14025 
L 235.99261 -237.14025 
L 233.312334 -237.14025 
L 230.632058 -237.14025 
L 227.951783 -237.14025 
L 225.271507 -237.14025 
L 222.591231 -237.14025 
L 219.910955 -237.14025 
L 217.230679 -237.14025 
L 214.550404 -237.14025 
L 211.870128 -237.14025 
L 209.189852 -237.14025 
L 206.509576 -237.14025 
L 203.8293 -237.14025 
L 201.149025 -237.14025 
L 198.468749 -237.14025 
L 195.788473 -237.14025 
L 193.108197 -237.14025 
L 190.427922 -237.14025 
L 187.747646 -237.14025 
L 185.06737 -237.14025 
L 182.387094 -237.14025 
L 179.706818 -237.14025 
L 177.026543 -237.14025 
L 174.346267 -237.14025 
L 171.665991 -237.14025 
z
" style="stroke: #3f3f3f; stroke-width: 1.25"/>
    </defs>
    <g clip-path="url(#p7b3653caa0)">
     <use xlink:href="#m48a4cc2705" x="0" y="310.86825" style="fill: #3274a1; stroke: #3f3f3f; stroke-width: 1.25"/>
    </g>
   </g>
   <g id="FillBetweenPolyCollection_2">
    <defs>
     <path id="mfb4dd9f112" d="M 147.43744 -236.921307 
L 147.43744 -237.14025 
L 150.251947 -237.14025 
L 153.066455 -237.14025 
L 155.880962 -237.14025 
L 158.69547 -237.14025 
L 161.509978 -237.14025 
L 164.324485 -237.14025 
L 167.138993 -237.14025 
L 169.9535 -237.14025 
L 172.768008 -237.14025 
L 175.582515 -237.14025 
L 178.397023 -237.14025 
L 181.21153 -237.14025 
L 184.026038 -237.14025 
L 186.840546 -237.14025 
L 189.655053 -237.14025 
L 192.469561 -237.14025 
L 195.284068 -237.14025 
L 198.098576 -237.14025 
L 200.913083 -237.14025 
L 203.727591 -237.14025 
L 206.542098 -237.14025 
L 209.356606 -237.14025 
L 212.171114 -237.14025 
L 214.985621 -237.14025 
L 217.800129 -237.14025 
L 220.614636 -237.14025 
L 223.429144 -237.14025 
L 226.243651 -237.14025 
L 229.058159 -237.14025 
L 231.872666 -237.14025 
L 234.687174 -237.14025 
L 237.501681 -237.14025 
L 240.316189 -237.14025 
L 243.130697 -237.14025 
L 245.945204 -237.14025 
L 248.759712 -237.14025 
L 251.574219 -237.14025 
L 254.388727 -237.14025 
L 257.203234 -237.14025 
L 260.017742 -237.14025 
L 262.832249 -237.14025 
L 265.646757 -237.14025 
L 268.461265 -237.14025 
L 271.275772 -237.14025 
L 274.09028 -237.14025 
L 276.904787 -237.14025 
L 279.719295 -237.14025 
L 282.533802 -237.14025 
L 285.34831 -237.14025 
L 288.162817 -237.14025 
L 290.977325 -237.14025 
L 293.791833 -237.14025 
L 296.60634 -237.14025 
L 299.420848 -237.14025 
L 302.235355 -237.14025 
L 305.049863 -237.14025 
L 307.86437 -237.14025 
L 310.678878 -237.14025 
L 313.493385 -237.14025 
L 316.307893 -237.14025 
L 319.122401 -237.14025 
L 321.936908 -237.14025 
L 324.751416 -237.14025 
L 327.565923 -237.14025 
L 330.380431 -237.14025 
L 333.194938 -237.14025 
L 336.009446 -237.14025 
L 338.823953 -237.14025 
L 341.638461 -237.14025 
L 344.452969 -237.14025 
L 347.267476 -237.14025 
L 350.081984 -237.14025 
L 352.896491 -237.14025 
L 355.710999 -237.14025 
L 358.525506 -237.14025 
L 361.340014 -237.14025 
L 364.154521 -237.14025 
L 366.969029 -237.14025 
L 369.783536 -237.14025 
L 372.598044 -237.14025 
L 375.412552 -237.14025 
L 378.227059 -237.14025 
L 381.041567 -237.14025 
L 383.856074 -237.14025 
L 386.670582 -237.14025 
L 389.485089 -237.14025 
L 392.299597 -237.14025 
L 395.114104 -237.14025 
L 397.928612 -237.14025 
L 400.74312 -237.14025 
L 403.557627 -237.14025 
L 406.372135 -237.14025 
L 409.186642 -237.14025 
L 412.00115 -237.14025 
L 414.815657 -237.14025 
L 417.630165 -237.14025 
L 420.444672 -237.14025 
L 423.25918 -237.14025 
L 426.073688 -237.14025 
L 426.073688 -236.80592 
L 426.073688 -236.80592 
L 423.25918 -236.774494 
L 420.444672 -236.758076 
L 417.630165 -236.749652 
L 414.815657 -236.740409 
L 412.00115 -236.723041 
L 409.186642 -236.692021 
L 406.372135 -236.640886 
L 403.557627 -236.559543 
L 400.74312 -236.435215 
L 397.928612 -236.258127 
L 395.114104 -236.029085 
L 392.299597 -235.763443 
L 389.485089 -235.486705 
L 386.670582 -235.221155 
L 383.856074 -234.968573 
L 381.041567 -234.697964 
L 378.227059 -234.346769 
L 375.412552 -233.838902 
L 372.598044 -233.115405 
L 369.783536 -232.16675 
L 366.969029 -231.052483 
L 364.154521 -229.895783 
L 361.340014 -228.848679 
L 358.525506 -228.037025 
L 355.710999 -227.507159 
L 352.896491 -227.200251 
L 350.081984 -226.970607 
L 347.267476 -226.644618 
L 344.452969 -226.097768 
L 341.638461 -225.317541 
L 338.823953 -224.423579 
L 336.009446 -223.632068 
L 333.194938 -223.1749 
L 330.380431 -223.207073 
L 327.565923 -223.744843 
L 324.751416 -224.663038 
L 321.936908 -225.748248 
L 319.122401 -226.775396 
L 316.307893 -227.568377 
L 313.493385 -228.022981 
L 310.678878 -228.095978 
L 307.86437 -227.778784 
L 305.049863 -227.07235 
L 302.235355 -225.971197 
L 299.420848 -224.459791 
L 296.60634 -222.524133 
L 293.791833 -220.177069 
L 290.977325 -217.483619 
L 288.162817 -214.56168 
L 285.34831 -211.540411 
L 282.533802 -208.48873 
L 279.719295 -205.361808 
L 276.904787 -202.021595 
L 274.09028 -198.34864 
L 271.275772 -194.39352 
L 268.461265 -190.467185 
L 265.646757 -187.088258 
L 262.832249 -184.793665 
L 260.017742 -183.91785 
L 257.203234 -184.475626 
L 254.388727 -186.213355 
L 251.574219 -188.775811 
L 248.759712 -191.866583 
L 245.945204 -195.309017 
L 243.130697 -199.0058 
L 240.316189 -202.86584 
L 237.501681 -206.767012 
L 234.687174 -210.571758 
L 231.872666 -214.164941 
L 229.058159 -217.475975 
L 226.243651 -220.472773 
L 223.429144 -223.142015 
L 220.614636 -225.476242 
L 217.800129 -227.475468 
L 214.985621 -229.155731 
L 212.171114 -230.552484 
L 209.356606 -231.713285 
L 206.542098 -232.683625 
L 203.727591 -233.494402 
L 200.913083 -234.157717 
L 198.098576 -234.672393 
L 195.284068 -235.035628 
L 192.469561 -235.254697 
L 189.655053 -235.353239 
L 186.840546 -235.369639 
L 184.026038 -235.348915 
L 181.21153 -235.33247 
L 178.397023 -235.350289 
L 175.582515 -235.417864 
L 172.768008 -235.537233 
L 169.9535 -235.700081 
L 167.138993 -235.891438 
L 164.324485 -236.093536 
L 161.509978 -236.289623 
L 158.69547 -236.46706 
L 155.880962 -236.618861 
L 153.066455 -236.74341 
L 150.251947 -236.842891 
L 147.43744 -236.921307 
z
" style="stroke: #3f3f3f; stroke-width: 1.25"/>
    </defs>
    <g clip-path="url(#p7b3653caa0)">
     <use xlink:href="#mfb4dd9f112" x="0" y="310.86825" style="fill: #e1812c; stroke: #3f3f3f; stroke-width: 1.25"/>
    </g>
   </g>
   <g id="FillBetweenPolyCollection_3">
    <defs>
     <path id="m6a2f763ef2" d="M 168.817194 -104.08425 
L 168.817194 -104.25259 
L 171.559355 -104.285997 
L 174.301516 -104.319632 
L 177.043677 -104.354034 
L 179.785838 -104.390927 
L 182.527999 -104.432893 
L 185.270161 -104.482421 
L 188.012322 -104.540553 
L 190.754483 -104.605654 
L 193.496644 -104.672995 
L 196.238805 -104.735601 
L 198.980966 -104.786275 
L 201.723127 -104.820226 
L 204.465288 -104.837455 
L 207.20745 -104.844174 
L 209.949611 -104.852842 
L 212.691772 -104.88073 
L 215.433933 -104.947319 
L 218.176094 -105.071071 
L 220.918255 -105.26649 
L 223.660416 -105.542523 
L 226.402577 -105.903239 
L 229.144739 -106.350946 
L 231.8869 -106.890689 
L 234.629061 -107.534015 
L 237.371222 -108.29983 
L 240.113383 -109.211634 
L 242.855544 -110.292579 
L 245.597705 -111.561145 
L 248.339866 -113.029578 
L 251.082028 -114.704803 
L 253.824189 -116.589325 
L 256.56635 -118.679615 
L 259.308511 -120.961851 
L 262.050672 -123.407776 
L 264.792833 -125.974395 
L 267.534994 -128.609257 
L 270.277155 -131.259567 
L 273.019316 -133.880842 
L 275.761478 -136.440849 
L 278.503639 -138.916947 
L 281.2458 -141.288381 
L 283.987961 -143.527678 
L 286.730122 -145.596087 
L 289.472283 -147.445854 
L 292.214444 -149.027722 
L 294.956605 -150.297598 
L 297.698767 -151.215812 
L 300.440928 -151.738003 
L 303.183089 -151.805705 
L 305.92525 -151.349791 
L 308.667411 -150.314559 
L 311.409572 -148.695348 
L 314.151733 -146.568302 
L 316.893894 -144.089495 
L 319.636056 -141.456 
L 322.378217 -138.844797 
L 325.120378 -136.360412 
L 327.862539 -134.018063 
L 330.6047 -131.768353 
L 333.346861 -129.546267 
L 336.089022 -127.316293 
L 338.831183 -125.092149 
L 341.573345 -122.927386 
L 344.315506 -120.889261 
L 347.057667 -119.033786 
L 349.799828 -117.393866 
L 352.541989 -115.981605 
L 355.28415 -114.797817 
L 358.026311 -113.840372 
L 360.768472 -113.106851 
L 363.510634 -112.591913 
L 366.252795 -112.282652 
L 368.994956 -112.155344 
L 371.737117 -112.175733 
L 374.479278 -112.303478 
L 377.221439 -112.499903 
L 379.9636 -112.736462 
L 382.705761 -112.999947 
L 385.447922 -113.290697 
L 388.190084 -113.612866 
L 390.932245 -113.960288 
L 393.674406 -114.305137 
L 396.416567 -114.596594 
L 399.158728 -114.772468 
L 401.900889 -114.77983 
L 404.64305 -114.595262 
L 407.385211 -114.234565 
L 410.127373 -113.746653 
L 412.869534 -113.194191 
L 415.611695 -112.630042 
L 418.353856 -112.08009 
L 421.096017 -111.53919 
L 423.838178 -110.98038 
L 426.580339 -110.371765 
L 429.3225 -109.693215 
L 432.064662 -108.946501 
L 434.806823 -108.15626 
L 437.548984 -107.363144 
L 440.291145 -106.612901 
L 440.291145 -104.08425 
L 440.291145 -104.08425 
L 437.548984 -104.08425 
L 434.806823 -104.08425 
L 432.064662 -104.08425 
L 429.3225 -104.08425 
L 426.580339 -104.08425 
L 423.838178 -104.08425 
L 421.096017 -104.08425 
L 418.353856 -104.08425 
L 415.611695 -104.08425 
L 412.869534 -104.08425 
L 410.127373 -104.08425 
L 407.385211 -104.08425 
L 404.64305 -104.08425 
L 401.900889 -104.08425 
L 399.158728 -104.08425 
L 396.416567 -104.08425 
L 393.674406 -104.08425 
L 390.932245 -104.08425 
L 388.190084 -104.08425 
L 385.447922 -104.08425 
L 382.705761 -104.08425 
L 379.9636 -104.08425 
L 377.221439 -104.08425 
L 374.479278 -104.08425 
L 371.737117 -104.08425 
L 368.994956 -104.08425 
L 366.252795 -104.08425 
L 363.510634 -104.08425 
L 360.768472 -104.08425 
L 358.026311 -104.08425 
L 355.28415 -104.08425 
L 352.541989 -104.08425 
L 349.799828 -104.08425 
L 347.057667 -104.08425 
L 344.315506 -104.08425 
L 341.573345 -104.08425 
L 338.831183 -104.08425 
L 336.089022 -104.08425 
L 333.346861 -104.08425 
L 330.6047 -104.08425 
L 327.862539 -104.08425 
L 325.120378 -104.08425 
L 322.378217 -104.08425 
L 319.636056 -104.08425 
L 316.893894 -104.08425 
L 314.151733 -104.08425 
L 311.409572 -104.08425 
L 308.667411 -104.08425 
L 305.92525 -104.08425 
L 303.183089 -104.08425 
L 300.440928 -104.08425 
L 297.698767 -104.08425 
L 294.956605 -104.08425 
L 292.214444 -104.08425 
L 289.472283 -104.08425 
L 286.730122 -104.08425 
L 283.987961 -104.08425 
L 281.2458 -104.08425 
L 278.503639 -104.08425 
L 275.761478 -104.08425 
L 273.019316 -104.08425 
L 270.277155 -104.08425 
L 267.534994 -104.08425 
L 264.792833 -104.08425 
L 262.050672 -104.08425 
L 259.308511 -104.08425 
L 256.56635 -104.08425 
L 253.824189 -104.08425 
L 251.082028 -104.08425 
L 248.339866 -104.08425 
L 245.597705 -104.08425 
L 242.855544 -104.08425 
L 240.113383 -104.08425 
L 237.371222 -104.08425 
L 234.629061 -104.08425 
L 231.8869 -104.08425 
L 229.144739 -104.08425 
L 226.402577 -104.08425 
L 223.660416 -104.08425 
L 220.918255 -104.08425 
L 218.176094 -104.08425 
L 215.433933 -104.08425 
L 212.691772 -104.08425 
L 209.949611 -104.08425 
L 207.20745 -104.08425 
L 204.465288 -104.08425 
L 201.723127 -104.08425 
L 198.980966 -104.08425 
L 196.238805 -104.08425 
L 193.496644 -104.08425 
L 190.754483 -104.08425 
L 188.012322 -104.08425 
L 185.270161 -104.08425 
L 182.527999 -104.08425 
L 179.785838 -104.08425 
L 177.043677 -104.08425 
L 174.301516 -104.08425 
L 171.559355 -104.08425 
L 168.817194 -104.08425 
z
" style="stroke: #3f3f3f; stroke-width: 1.25"/>
    </defs>
    <g clip-path="url(#p7b3653caa0)">
     <use xlink:href="#m6a2f763ef2" x="0" y="310.86825" style="fill: #3274a1; stroke: #3f3f3f; stroke-width: 1.25"/>
    </g>
   </g>
   <g id="FillBetweenPolyCollection_4">
    <defs>
     <path id="m89392c5338" d="M 154.493621 -103.79286 
L 154.493621 -104.08425 
L 157.372544 -104.08425 
L 160.251467 -104.08425 
L 163.13039 -104.08425 
L 166.009313 -104.08425 
L 168.888237 -104.08425 
L 171.76716 -104.08425 
L 174.646083 -104.08425 
L 177.525006 -104.08425 
L 180.403929 -104.08425 
L 183.282852 -104.08425 
L 186.161775 -104.08425 
L 189.040698 -104.08425 
L 191.919622 -104.08425 
L 194.798545 -104.08425 
L 197.677468 -104.08425 
L 200.556391 -104.08425 
L 203.435314 -104.08425 
L 206.314237 -104.08425 
L 209.19316 -104.08425 
L 212.072084 -104.08425 
L 214.951007 -104.08425 
L 217.82993 -104.08425 
L 220.708853 -104.08425 
L 223.587776 -104.08425 
L 226.466699 -104.08425 
L 229.345622 -104.08425 
L 232.224546 -104.08425 
L 235.103469 -104.08425 
L 237.982392 -104.08425 
L 240.861315 -104.08425 
L 243.740238 -104.08425 
L 246.619161 -104.08425 
L 249.498084 -104.08425 
L 252.377007 -104.08425 
L 255.255931 -104.08425 
L 258.134854 -104.08425 
L 261.013777 -104.08425 
L 263.8927 -104.08425 
L 266.771623 -104.08425 
L 269.650546 -104.08425 
L 272.529469 -104.08425 
L 275.408393 -104.08425 
L 278.287316 -104.08425 
L 281.166239 -104.08425 
L 284.045162 -104.08425 
L 286.924085 -104.08425 
L 289.803008 -104.08425 
L 292.681931 -104.08425 
L 295.560855 -104.08425 
L 298.439778 -104.08425 
L 301.318701 -104.08425 
L 304.197624 -104.08425 
L 307.076547 -104.08425 
L 309.95547 -104.08425 
L 312.834393 -104.08425 
L 315.713317 -104.08425 
L 318.59224 -104.08425 
L 321.471163 -104.08425 
L 324.350086 -104.08425 
L 327.229009 -104.08425 
L 330.107932 -104.08425 
L 332.986855 -104.08425 
L 335.865778 -104.08425 
L 338.744702 -104.08425 
L 341.623625 -104.08425 
L 344.502548 -104.08425 
L 347.381471 -104.08425 
L 350.260394 -104.08425 
L 353.139317 -104.08425 
L 356.01824 -104.08425 
L 358.897164 -104.08425 
L 361.776087 -104.08425 
L 364.65501 -104.08425 
L 367.533933 -104.08425 
L 370.412856 -104.08425 
L 373.291779 -104.08425 
L 376.170702 -104.08425 
L 379.049626 -104.08425 
L 381.928549 -104.08425 
L 384.807472 -104.08425 
L 387.686395 -104.08425 
L 390.565318 -104.08425 
L 393.444241 -104.08425 
L 396.323164 -104.08425 
L 399.202088 -104.08425 
L 402.081011 -104.08425 
L 404.959934 -104.08425 
L 407.838857 -104.08425 
L 410.71778 -104.08425 
L 413.596703 -104.08425 
L 416.475626 -104.08425 
L 419.354549 -104.08425 
L 422.233473 -104.08425 
L 425.112396 -104.08425 
L 427.991319 -104.08425 
L 430.870242 -104.08425 
L 433.749165 -104.08425 
L 436.628088 -104.08425 
L 439.507011 -104.08425 
L 439.507011 -103.822933 
L 439.507011 -103.822933 
L 436.628088 -103.739921 
L 433.749165 -103.646795 
L 430.870242 -103.546599 
L 427.991319 -103.444867 
L 425.112396 -103.349868 
L 422.233473 -103.270998 
L 419.354549 -103.21533 
L 416.475626 -103.184018 
L 413.596703 -103.171023 
L 410.71778 -103.165396 
L 407.838857 -103.155733 
L 404.959934 -103.133696 
L 402.081011 -103.09451 
L 399.202088 -103.035238 
L 396.323164 -102.95346 
L 393.444241 -102.848161 
L 390.565318 -102.722038 
L 387.686395 -102.582734 
L 384.807472 -102.441024 
L 381.928549 -102.305836 
L 379.049626 -102.177837 
L 376.170702 -102.044256 
L 373.291779 -101.877915 
L 370.412856 -101.642739 
L 367.533933 -101.30573 
L 364.65501 -100.851648 
L 361.776087 -100.293303 
L 358.897164 -99.67054 
L 356.01824 -99.036473 
L 353.139317 -98.437789 
L 350.260394 -97.901101 
L 347.381471 -97.433836 
L 344.502548 -97.037277 
L 341.623625 -96.719569 
L 338.744702 -96.496966 
L 335.865778 -96.38238 
L 332.986855 -96.371802 
L 330.107932 -96.440755 
L 327.229009 -96.553388 
L 324.350086 -96.675555 
L 321.471163 -96.780529 
L 318.59224 -96.844104 
L 315.713317 -96.836544 
L 312.834393 -96.721775 
L 309.95547 -96.466089 
L 307.076547 -96.047476 
L 304.197624 -95.454158 
L 301.318701 -94.671025 
L 298.439778 -93.666194 
L 295.560855 -92.392693 
L 292.681931 -90.807503 
L 289.803008 -88.892386 
L 286.924085 -86.655694 
L 284.045162 -84.109713 
L 281.166239 -81.243229 
L 278.287316 -78.021268 
L 275.408393 -74.427792 
L 272.529469 -70.530281 
L 269.650546 -66.516342 
L 266.771623 -62.660798 
L 263.8927 -59.229439 
L 261.013777 -56.37992 
L 258.134854 -54.133864 
L 255.255931 -52.446379 
L 252.377007 -51.321607 
L 249.498084 -50.880317 
L 246.619161 -51.319839 
L 243.740238 -52.793563 
L 240.861315 -55.302543 
L 237.982392 -58.678418 
L 235.103469 -62.658997 
L 232.224546 -66.987237 
L 229.345622 -71.460786 
L 226.466699 -75.916045 
L 223.587776 -80.188792 
L 220.708853 -84.103133 
L 217.82993 -87.504223 
L 214.951007 -90.308247 
L 212.072084 -92.529894 
L 209.19316 -94.266377 
L 206.314237 -95.647566 
L 203.435314 -96.781876 
L 200.556391 -97.726889 
L 197.677468 -98.495729 
L 194.798545 -99.087696 
L 191.919622 -99.519031 
L 189.040698 -99.834273 
L 186.161775 -100.095263 
L 183.282852 -100.360013 
L 180.403929 -100.666645 
L 177.525006 -101.029224 
L 174.646083 -101.442121 
L 171.76716 -101.886256 
L 168.888237 -102.334167 
L 166.009313 -102.755147 
L 163.13039 -103.12192 
L 160.251467 -103.417395 
L 157.372544 -103.638168 
L 154.493621 -103.79286 
z
" style="stroke: #3f3f3f; stroke-width: 1.25"/>
    </defs>
    <g clip-path="url(#p7b3653caa0)">
     <use xlink:href="#m89392c5338" x="0" y="310.86825" style="fill: #e1812c; stroke: #3f3f3f; stroke-width: 1.25"/>
    </g>
   </g>
   <g id="patch_3">
    <path d="M 60.106295 73.728 
L 60.106295 73.728 
L 60.106295 73.728 
L 60.106295 73.728 
z
" clip-path="url(#p7b3653caa0)" style="fill: #3274a1; stroke: #3f3f3f; stroke-width: 1.25; stroke-linejoin: miter"/>
   </g>
   <g id="patch_4">
    <path d="M 60.106295 73.728 
L 60.106295 73.728 
L 60.106295 73.728 
L 60.106295 73.728 
z
" clip-path="url(#p7b3653caa0)" style="fill: #e1812c; stroke: #3f3f3f; stroke-width: 1.25; stroke-linejoin: miter"/>
   </g>
   <g id="matplotlib.axis_1">
    <g id="xtick_1">
     <g id="line2d_1">
      <defs>
       <path id="m8e116ec025" d="M 0 0 
L 0 3.5 
" style="stroke: #000000; stroke-width: 0.8"/>
      </defs>
      <g>
       <use xlink:href="#m8e116ec025" x="111.123438" y="273.312" style="stroke: #000000; stroke-width: 0.8"/>
      </g>
     </g>
     <g id="text_1">
      <!-- 100 -->
      <g transform="translate(101.579688 287.910437) scale(0.1 -0.1)">
       <defs>
        <path id="DejaVuSans-31" d="M 794 531 
L 1825 531 
L 1825 4091 
L 703 3866 
L 703 4441 
L 1819 4666 
L 2450 4666 
L 2450 531 
L 3481 531 
L 3481 0 
L 794 0 
L 794 531 
z
" transform="scale(0.015625)"/>
        <path id="DejaVuSans-30" d="M 2034 4250 
Q 1547 4250 1301 3770 
Q 1056 3291 1056 2328 
Q 1056 1369 1301 889 
Q 1547 409 2034 409 
Q 2525 409 2770 889 
Q 3016 1369 3016 2328 
Q 3016 3291 2770 3770 
Q 2525 4250 2034 4250 
z
M 2034 4750 
Q 2819 4750 3233 4129 
Q 3647 3509 3647 2328 
Q 3647 1150 3233 529 
Q 2819 -91 2034 -91 
Q 1250 -91 836 529 
Q 422 1150 422 2328 
Q 422 3509 836 4129 
Q 1250 4750 2034 4750 
z
" transform="scale(0.015625)"/>
       </defs>
       <use xlink:href="#DejaVuSans-31"/>
       <use xlink:href="#DejaVuSans-30" transform="translate(63.623047 0)"/>
       <use xlink:href="#DejaVuSans-30" transform="translate(127.246094 0)"/>
      </g>
     </g>
    </g>
    <g id="xtick_2">
     <g id="line2d_2">
      <g>
       <use xlink:href="#m8e116ec025" x="162.14058" y="273.312" style="stroke: #000000; stroke-width: 0.8"/>
      </g>
     </g>
     <g id="text_2">
      <!-- 200 -->
      <g transform="translate(152.59683 287.910437) scale(0.1 -0.1)">
       <defs>
        <path id="DejaVuSans-32" d="M 1228 531 
L 3431 531 
L 3431 0 
L 469 0 
L 469 531 
Q 828 903 1448 1529 
Q 2069 2156 2228 2338 
Q 2531 2678 2651 2914 
Q 2772 3150 2772 3378 
Q 2772 3750 2511 3984 
Q 2250 4219 1831 4219 
Q 1534 4219 1204 4116 
Q 875 4013 500 3803 
L 500 4441 
Q 881 4594 1212 4672 
Q 1544 4750 1819 4750 
Q 2544 4750 2975 4387 
Q 3406 4025 3406 3419 
Q 3406 3131 3298 2873 
Q 3191 2616 2906 2266 
Q 2828 2175 2409 1742 
Q 1991 1309 1228 531 
z
" transform="scale(0.015625)"/>
       </defs>
       <use xlink:href="#DejaVuSans-32"/>
       <use xlink:href="#DejaVuSans-30" transform="translate(63.623047 0)"/>
       <use xlink:href="#DejaVuSans-30" transform="translate(127.246094 0)"/>
      </g>
     </g>
    </g>
    <g id="xtick_3">
     <g id="line2d_3">
      <g>
       <use xlink:href="#m8e116ec025" x="213.157723" y="273.312" style="stroke: #000000; stroke-width: 0.8"/>
      </g>
     </g>
     <g id="text_3">
      <!-- 300 -->
      <g transform="translate(203.613973 287.910437) scale(0.1 -0.1)">
       <defs>
        <path id="DejaVuSans-33" d="M 2597 2516 
Q 3050 2419 3304 2112 
Q 3559 1806 3559 1356 
Q 3559 666 3084 287 
Q 2609 -91 1734 -91 
Q 1441 -91 1130 -33 
Q 819 25 488 141 
L 488 750 
Q 750 597 1062 519 
Q 1375 441 1716 441 
Q 2309 441 2620 675 
Q 2931 909 2931 1356 
Q 2931 1769 2642 2001 
Q 2353 2234 1838 2234 
L 1294 2234 
L 1294 2753 
L 1863 2753 
Q 2328 2753 2575 2939 
Q 2822 3125 2822 3475 
Q 2822 3834 2567 4026 
Q 2313 4219 1838 4219 
Q 1578 4219 1281 4162 
Q 984 4106 628 3988 
L 628 4550 
Q 988 4650 1302 4700 
Q 1616 4750 1894 4750 
Q 2613 4750 3031 4423 
Q 3450 4097 3450 3541 
Q 3450 3153 3228 2886 
Q 3006 2619 2597 2516 
z
" transform="scale(0.015625)"/>
       </defs>
       <use xlink:href="#DejaVuSans-33"/>
       <use xlink:href="#DejaVuSans-30" transform="translate(63.623047 0)"/>
       <use xlink:href="#DejaVuSans-30" transform="translate(127.246094 0)"/>
      </g>
     </g>
    </g>
    <g id="xtick_4">
     <g id="line2d_4">
      <g>
       <use xlink:href="#m8e116ec025" x="264.174866" y="273.312" style="stroke: #000000; stroke-width: 0.8"/>
      </g>
     </g>
     <g id="text_4">
      <!-- 400 -->
      <g transform="translate(254.631116 287.910437) scale(0.1 -0.1)">
       <defs>
        <path id="DejaVuSans-34" d="M 2419 4116 
L 825 1625 
L 2419 1625 
L 2419 4116 
z
M 2253 4666 
L 3047 4666 
L 3047 1625 
L 3713 1625 
L 3713 1100 
L 3047 1100 
L 3047 0 
L 2419 0 
L 2419 1100 
L 313 1100 
L 313 1709 
L 2253 4666 
z
" transform="scale(0.015625)"/>
       </defs>
       <use xlink:href="#DejaVuSans-34"/>
       <use xlink:href="#DejaVuSans-30" transform="translate(63.623047 0)"/>
       <use xlink:href="#DejaVuSans-30" transform="translate(127.246094 0)"/>
      </g>
     </g>
    </g>
    <g id="xtick_5">
     <g id="line2d_5">
      <g>
       <use xlink:href="#m8e116ec025" x="315.192009" y="273.312" style="stroke: #000000; stroke-width: 0.8"/>
      </g>
     </g>
     <g id="text_5">
      <!-- 500 -->
      <g transform="translate(305.648259 287.910437) scale(0.1 -0.1)">
       <defs>
        <path id="DejaVuSans-35" d="M 691 4666 
L 3169 4666 
L 3169 4134 
L 1269 4134 
L 1269 2991 
Q 1406 3038 1543 3061 
Q 1681 3084 1819 3084 
Q 2600 3084 3056 2656 
Q 3513 2228 3513 1497 
Q 3513 744 3044 326 
Q 2575 -91 1722 -91 
Q 1428 -91 1123 -41 
Q 819 9 494 109 
L 494 744 
Q 775 591 1075 516 
Q 1375 441 1709 441 
Q 2250 441 2565 725 
Q 2881 1009 2881 1497 
Q 2881 1984 2565 2268 
Q 2250 2553 1709 2553 
Q 1456 2553 1204 2497 
Q 953 2441 691 2322 
L 691 4666 
z
" transform="scale(0.015625)"/>
       </defs>
       <use xlink:href="#DejaVuSans-35"/>
       <use xlink:href="#DejaVuSans-30" transform="translate(63.623047 0)"/>
       <use xlink:href="#DejaVuSans-30" transform="translate(127.246094 0)"/>
      </g>
     </g>
    </g>
    <g id="xtick_6">
     <g id="line2d_6">
      <g>
       <use xlink:href="#m8e116ec025" x="366.209152" y="273.312" style="stroke: #000000; stroke-width: 0.8"/>
      </g>
     </g>
     <g id="text_6">
      <!-- 600 -->
      <g transform="translate(356.665402 287.910437) scale(0.1 -0.1)">
       <defs>
        <path id="DejaVuSans-36" d="M 2113 2584 
Q 1688 2584 1439 2293 
Q 1191 2003 1191 1497 
Q 1191 994 1439 701 
Q 1688 409 2113 409 
Q 2538 409 2786 701 
Q 3034 994 3034 1497 
Q 3034 2003 2786 2293 
Q 2538 2584 2113 2584 
z
M 3366 4563 
L 3366 3988 
Q 3128 4100 2886 4159 
Q 2644 4219 2406 4219 
Q 1781 4219 1451 3797 
Q 1122 3375 1075 2522 
Q 1259 2794 1537 2939 
Q 1816 3084 2150 3084 
Q 2853 3084 3261 2657 
Q 3669 2231 3669 1497 
Q 3669 778 3244 343 
Q 2819 -91 2113 -91 
Q 1303 -91 875 529 
Q 447 1150 447 2328 
Q 447 3434 972 4092 
Q 1497 4750 2381 4750 
Q 2619 4750 2861 4703 
Q 3103 4656 3366 4563 
z
" transform="scale(0.015625)"/>
       </defs>
       <use xlink:href="#DejaVuSans-36"/>
       <use xlink:href="#DejaVuSans-30" transform="translate(63.623047 0)"/>
       <use xlink:href="#DejaVuSans-30" transform="translate(127.246094 0)"/>
      </g>
     </g>
    </g>
    <g id="xtick_7">
     <g id="line2d_7">
      <g>
       <use xlink:href="#m8e116ec025" x="417.226295" y="273.312" style="stroke: #000000; stroke-width: 0.8"/>
      </g>
     </g>
     <g id="text_7">
      <!-- 700 -->
      <g transform="translate(407.682545 287.910437) scale(0.1 -0.1)">
       <defs>
        <path id="DejaVuSans-37" d="M 525 4666 
L 3525 4666 
L 3525 4397 
L 1831 0 
L 1172 0 
L 2766 4134 
L 525 4134 
L 525 4666 
z
" transform="scale(0.015625)"/>
       </defs>
       <use xlink:href="#DejaVuSans-37"/>
       <use xlink:href="#DejaVuSans-30" transform="translate(63.623047 0)"/>
       <use xlink:href="#DejaVuSans-30" transform="translate(127.246094 0)"/>
      </g>
     </g>
    </g>
    <g id="xtick_8">
     <g id="line2d_8">
      <g>
       <use xlink:href="#m8e116ec025" x="468.243438" y="273.312" style="stroke: #000000; stroke-width: 0.8"/>
      </g>
     </g>
     <g id="text_8">
      <!-- 800 -->
      <g transform="translate(458.699688 287.910437) scale(0.1 -0.1)">
       <defs>
        <path id="DejaVuSans-38" d="M 2034 2216 
Q 1584 2216 1326 1975 
Q 1069 1734 1069 1313 
Q 1069 891 1326 650 
Q 1584 409 2034 409 
Q 2484 409 2743 651 
Q 3003 894 3003 1313 
Q 3003 1734 2745 1975 
Q 2488 2216 2034 2216 
z
M 1403 2484 
Q 997 2584 770 2862 
Q 544 3141 544 3541 
Q 544 4100 942 4425 
Q 1341 4750 2034 4750 
Q 2731 4750 3128 4425 
Q 3525 4100 3525 3541 
Q 3525 3141 3298 2862 
Q 3072 2584 2669 2484 
Q 3125 2378 3379 2068 
Q 3634 1759 3634 1313 
Q 3634 634 3220 271 
Q 2806 -91 2034 -91 
Q 1263 -91 848 271 
Q 434 634 434 1313 
Q 434 1759 690 2068 
Q 947 2378 1403 2484 
z
M 1172 3481 
Q 1172 3119 1398 2916 
Q 1625 2713 2034 2713 
Q 2441 2713 2670 2916 
Q 2900 3119 2900 3481 
Q 2900 3844 2670 4047 
Q 2441 4250 2034 4250 
Q 1625 4250 1398 4047 
Q 1172 3844 1172 3481 
z
" transform="scale(0.015625)"/>
       </defs>
       <use xlink:href="#DejaVuSans-38"/>
       <use xlink:href="#DejaVuSans-30" transform="translate(63.623047 0)"/>
       <use xlink:href="#DejaVuSans-30" transform="translate(127.246094 0)"/>
      </g>
     </g>
    </g>
    <g id="text_9">
     <!-- Latency (µs) -->
     <g transform="translate(258.642813 301.588562) scale(0.1 -0.1)">
      <defs>
       <path id="DejaVuSans-4c" d="M 628 4666 
L 1259 4666 
L 1259 531 
L 3531 531 
L 3531 0 
L 628 0 
L 628 4666 
z
" transform="scale(0.015625)"/>
       <path id="DejaVuSans-61" d="M 2194 1759 
Q 1497 1759 1228 1600 
Q 959 1441 959 1056 
Q 959 750 1161 570 
Q 1363 391 1709 391 
Q 2188 391 2477 730 
Q 2766 1069 2766 1631 
L 2766 1759 
L 2194 1759 
z
M 3341 1997 
L 3341 0 
L 2766 0 
L 2766 531 
Q 2569 213 2275 61 
Q 1981 -91 1556 -91 
Q 1019 -91 701 211 
Q 384 513 384 1019 
Q 384 1609 779 1909 
Q 1175 2209 1959 2209 
L 2766 2209 
L 2766 2266 
Q 2766 2663 2505 2880 
Q 2244 3097 1772 3097 
Q 1472 3097 1187 3025 
Q 903 2953 641 2809 
L 641 3341 
Q 956 3463 1253 3523 
Q 1550 3584 1831 3584 
Q 2591 3584 2966 3190 
Q 3341 2797 3341 1997 
z
" transform="scale(0.015625)"/>
       <path id="DejaVuSans-74" d="M 1172 4494 
L 1172 3500 
L 2356 3500 
L 2356 3053 
L 1172 3053 
L 1172 1153 
Q 1172 725 1289 603 
Q 1406 481 1766 481 
L 2356 481 
L 2356 0 
L 1766 0 
Q 1100 0 847 248 
Q 594 497 594 1153 
L 594 3053 
L 172 3053 
L 172 3500 
L 594 3500 
L 594 4494 
L 1172 4494 
z
" transform="scale(0.015625)"/>
       <path id="DejaVuSans-65" d="M 3597 1894 
L 3597 1613 
L 953 1613 
Q 991 1019 1311 708 
Q 1631 397 2203 397 
Q 2534 397 2845 478 
Q 3156 559 3463 722 
L 3463 178 
Q 3153 47 2828 -22 
Q 2503 -91 2169 -91 
Q 1331 -91 842 396 
Q 353 884 353 1716 
Q 353 2575 817 3079 
Q 1281 3584 2069 3584 
Q 2775 3584 3186 3129 
Q 3597 2675 3597 1894 
z
M 3022 2063 
Q 3016 2534 2758 2815 
Q 2500 3097 2075 3097 
Q 1594 3097 1305 2825 
Q 1016 2553 972 2059 
L 3022 2063 
z
" transform="scale(0.015625)"/>
       <path id="DejaVuSans-6e" d="M 3513 2113 
L 3513 0 
L 2938 0 
L 2938 2094 
Q 2938 2591 2744 2837 
Q 2550 3084 2163 3084 
Q 1697 3084 1428 2787 
Q 1159 2491 1159 1978 
L 1159 0 
L 581 0 
L 581 3500 
L 1159 3500 
L 1159 2956 
Q 1366 3272 1645 3428 
Q 1925 3584 2291 3584 
Q 2894 3584 3203 3211 
Q 3513 2838 3513 2113 
z
" transform="scale(0.015625)"/>
       <path id="DejaVuSans-63" d="M 3122 3366 
L 3122 2828 
Q 2878 2963 2633 3030 
Q 2388 3097 2138 3097 
Q 1578 3097 1268 2742 
Q 959 2388 959 1747 
Q 959 1106 1268 751 
Q 1578 397 2138 397 
Q 2388 397 2633 464 
Q 2878 531 3122 666 
L 3122 134 
Q 2881 22 2623 -34 
Q 2366 -91 2075 -91 
Q 1284 -91 818 406 
Q 353 903 353 1747 
Q 353 2603 823 3093 
Q 1294 3584 2113 3584 
Q 2378 3584 2631 3529 
Q 2884 3475 3122 3366 
z
" transform="scale(0.015625)"/>
       <path id="DejaVuSans-79" d="M 2059 -325 
Q 1816 -950 1584 -1140 
Q 1353 -1331 966 -1331 
L 506 -1331 
L 506 -850 
L 844 -850 
Q 1081 -850 1212 -737 
Q 1344 -625 1503 -206 
L 1606 56 
L 191 3500 
L 800 3500 
L 1894 763 
L 2988 3500 
L 3597 3500 
L 2059 -325 
z
" transform="scale(0.015625)"/>
       <path id="DejaVuSans-20" transform="scale(0.015625)"/>
       <path id="DejaVuSans-28" d="M 1984 4856 
Q 1566 4138 1362 3434 
Q 1159 2731 1159 2009 
Q 1159 1288 1364 580 
Q 1569 -128 1984 -844 
L 1484 -844 
Q 1016 -109 783 600 
Q 550 1309 550 2009 
Q 550 2706 781 3412 
Q 1013 4119 1484 4856 
L 1984 4856 
z
" transform="scale(0.015625)"/>
       <path id="DejaVuSans-b5" d="M 544 -1331 
L 544 3500 
L 1119 3500 
L 1119 1325 
Q 1119 872 1334 640 
Q 1550 409 1972 409 
Q 2434 409 2667 671 
Q 2900 934 2900 1459 
L 2900 3500 
L 3475 3500 
L 3475 806 
Q 3475 619 3529 530 
Q 3584 441 3700 441 
Q 3728 441 3778 458 
Q 3828 475 3916 513 
L 3916 50 
Q 3788 -22 3673 -56 
Q 3559 -91 3450 -91 
Q 3234 -91 3106 31 
Q 2978 153 2931 403 
Q 2775 156 2548 32 
Q 2322 -91 2016 -91 
Q 1697 -91 1473 31 
Q 1250 153 1119 397 
L 1119 -1331 
L 544 -1331 
z
" transform="scale(0.015625)"/>
       <path id="DejaVuSans-73" d="M 2834 3397 
L 2834 2853 
Q 2591 2978 2328 3040 
Q 2066 3103 1784 3103 
Q 1356 3103 1142 2972 
Q 928 2841 928 2578 
Q 928 2378 1081 2264 
Q 1234 2150 1697 2047 
L 1894 2003 
Q 2506 1872 2764 1633 
Q 3022 1394 3022 966 
Q 3022 478 2636 193 
Q 2250 -91 1575 -91 
Q 1294 -91 989 -36 
Q 684 19 347 128 
L 347 722 
Q 666 556 975 473 
Q 1284 391 1588 391 
Q 1994 391 2212 530 
Q 2431 669 2431 922 
Q 2431 1156 2273 1281 
Q 2116 1406 1581 1522 
L 1381 1569 
Q 847 1681 609 1914 
Q 372 2147 372 2553 
Q 372 3047 722 3315 
Q 1072 3584 1716 3584 
Q 2034 3584 2315 3537 
Q 2597 3491 2834 3397 
z
" transform="scale(0.015625)"/>
       <path id="DejaVuSans-29" d="M 513 4856 
L 1013 4856 
Q 1481 4119 1714 3412 
Q 1947 2706 1947 2009 
Q 1947 1309 1714 600 
Q 1481 -109 1013 -844 
L 513 -844 
Q 928 -128 1133 580 
Q 1338 1288 1338 2009 
Q 1338 2731 1133 3434 
Q 928 4138 513 4856 
z
" transform="scale(0.015625)"/>
      </defs>
      <use xlink:href="#DejaVuSans-4c"/>
      <use xlink:href="#DejaVuSans-61" transform="translate(55.712891 0)"/>
      <use xlink:href="#DejaVuSans-74" transform="translate(116.992188 0)"/>
      <use xlink:href="#DejaVuSans-65" transform="translate(156.201172 0)"/>
      <use xlink:href="#DejaVuSans-6e" transform="translate(217.724609 0)"/>
      <use xlink:href="#DejaVuSans-63" transform="translate(281.103516 0)"/>
      <use xlink:href="#DejaVuSans-79" transform="translate(336.083984 0)"/>
      <use xlink:href="#DejaVuSans-20" transform="translate(395.263672 0)"/>
      <use xlink:href="#DejaVuSans-28" transform="translate(427.050781 0)"/>
      <use xlink:href="#DejaVuSans-b5" transform="translate(466.064453 0)"/>
      <use xlink:href="#DejaVuSans-73" transform="translate(529.6875 0)"/>
      <use xlink:href="#DejaVuSans-29" transform="translate(581.787109 0)"/>
     </g>
    </g>
   </g>
   <g id="matplotlib.axis_2">
    <g id="ytick_1">
     <g id="line2d_9">
      <defs>
       <path id="m260b138f71" d="M 0 0 
L -3.5 0 
" style="stroke: #000000; stroke-width: 0.8"/>
      </defs>
      <g>
       <use xlink:href="#m260b138f71" x="111.123438" y="73.728" style="stroke: #000000; stroke-width: 0.8"/>
      </g>
     </g>
     <g id="text_10">
      <!-- No Service Mesh -->
      <g transform="translate(20.878125 77.527219) scale(0.1 -0.1)">
       <defs>
        <path id="DejaVuSans-4e" d="M 628 4666 
L 1478 4666 
L 3547 763 
L 3547 4666 
L 4159 4666 
L 4159 0 
L 3309 0 
L 1241 3903 
L 1241 0 
L 628 0 
L 628 4666 
z
" transform="scale(0.015625)"/>
        <path id="DejaVuSans-6f" d="M 1959 3097 
Q 1497 3097 1228 2736 
Q 959 2375 959 1747 
Q 959 1119 1226 758 
Q 1494 397 1959 397 
Q 2419 397 2687 759 
Q 2956 1122 2956 1747 
Q 2956 2369 2687 2733 
Q 2419 3097 1959 3097 
z
M 1959 3584 
Q 2709 3584 3137 3096 
Q 3566 2609 3566 1747 
Q 3566 888 3137 398 
Q 2709 -91 1959 -91 
Q 1206 -91 779 398 
Q 353 888 353 1747 
Q 353 2609 779 3096 
Q 1206 3584 1959 3584 
z
" transform="scale(0.015625)"/>
        <path id="DejaVuSans-53" d="M 3425 4513 
L 3425 3897 
Q 3066 4069 2747 4153 
Q 2428 4238 2131 4238 
Q 1616 4238 1336 4038 
Q 1056 3838 1056 3469 
Q 1056 3159 1242 3001 
Q 1428 2844 1947 2747 
L 2328 2669 
Q 3034 2534 3370 2195 
Q 3706 1856 3706 1288 
Q 3706 609 3251 259 
Q 2797 -91 1919 -91 
Q 1588 -91 1214 -16 
Q 841 59 441 206 
L 441 856 
Q 825 641 1194 531 
Q 1563 422 1919 422 
Q 2459 422 2753 634 
Q 3047 847 3047 1241 
Q 3047 1584 2836 1778 
Q 2625 1972 2144 2069 
L 1759 2144 
Q 1053 2284 737 2584 
Q 422 2884 422 3419 
Q 422 4038 858 4394 
Q 1294 4750 2059 4750 
Q 2388 4750 2728 4690 
Q 3069 4631 3425 4513 
z
" transform="scale(0.015625)"/>
        <path id="DejaVuSans-72" d="M 2631 2963 
Q 2534 3019 2420 3045 
Q 2306 3072 2169 3072 
Q 1681 3072 1420 2755 
Q 1159 2438 1159 1844 
L 1159 0 
L 581 0 
L 581 3500 
L 1159 3500 
L 1159 2956 
Q 1341 3275 1631 3429 
Q 1922 3584 2338 3584 
Q 2397 3584 2469 3576 
Q 2541 3569 2628 3553 
L 2631 2963 
z
" transform="scale(0.015625)"/>
        <path id="DejaVuSans-76" d="M 191 3500 
L 800 3500 
L 1894 563 
L 2988 3500 
L 3597 3500 
L 2284 0 
L 1503 0 
L 191 3500 
z
" transform="scale(0.015625)"/>
        <path id="DejaVuSans-69" d="M 603 3500 
L 1178 3500 
L 1178 0 
L 603 0 
L 603 3500 
z
M 603 4863 
L 1178 4863 
L 1178 4134 
L 603 4134 
L 603 4863 
z
" transform="scale(0.015625)"/>
        <path id="DejaVuSans-4d" d="M 628 4666 
L 1569 4666 
L 2759 1491 
L 3956 4666 
L 4897 4666 
L 4897 0 
L 4281 0 
L 4281 4097 
L 3078 897 
L 2444 897 
L 1241 4097 
L 1241 0 
L 628 0 
L 628 4666 
z
" transform="scale(0.015625)"/>
        <path id="DejaVuSans-68" d="M 3513 2113 
L 3513 0 
L 2938 0 
L 2938 2094 
Q 2938 2591 2744 2837 
Q 2550 3084 2163 3084 
Q 1697 3084 1428 2787 
Q 1159 2491 1159 1978 
L 1159 0 
L 581 0 
L 581 4863 
L 1159 4863 
L 1159 2956 
Q 1366 3272 1645 3428 
Q 1925 3584 2291 3584 
Q 2894 3584 3203 3211 
Q 3513 2838 3513 2113 
z
" transform="scale(0.015625)"/>
       </defs>
       <use xlink:href="#DejaVuSans-4e"/>
       <use xlink:href="#DejaVuSans-6f" transform="translate(74.804688 0)"/>
       <use xlink:href="#DejaVuSans-20" transform="translate(135.986328 0)"/>
       <use xlink:href="#DejaVuSans-53" transform="translate(167.773438 0)"/>
       <use xlink:href="#DejaVuSans-65" transform="translate(231.25 0)"/>
       <use xlink:href="#DejaVuSans-72" transform="translate(292.773438 0)"/>
       <use xlink:href="#DejaVuSans-76" transform="translate(333.886719 0)"/>
       <use xlink:href="#DejaVuSans-69" transform="translate(393.066406 0)"/>
       <use xlink:href="#DejaVuSans-63" transform="translate(420.849609 0)"/>
       <use xlink:href="#DejaVuSans-65" transform="translate(475.830078 0)"/>
       <use xlink:href="#DejaVuSans-20" transform="translate(537.353516 0)"/>
       <use xlink:href="#DejaVuSans-4d" transform="translate(569.140625 0)"/>
       <use xlink:href="#DejaVuSans-65" transform="translate(655.419922 0)"/>
       <use xlink:href="#DejaVuSans-73" transform="translate(716.943359 0)"/>
       <use xlink:href="#DejaVuSans-68" transform="translate(769.042969 0)"/>
      </g>
     </g>
    </g>
    <g id="ytick_2">
     <g id="line2d_10">
      <g>
       <use xlink:href="#m260b138f71" x="111.123438" y="206.784" style="stroke: #000000; stroke-width: 0.8"/>
      </g>
     </g>
     <g id="text_11">
      <!-- Ambient Mesh -->
      <g transform="translate(32.498438 210.583219) scale(0.1 -0.1)">
       <defs>
        <path id="DejaVuSans-41" d="M 2188 4044 
L 1331 1722 
L 3047 1722 
L 2188 4044 
z
M 1831 4666 
L 2547 4666 
L 4325 0 
L 3669 0 
L 3244 1197 
L 1141 1197 
L 716 0 
L 50 0 
L 1831 4666 
z
" transform="scale(0.015625)"/>
        <path id="DejaVuSans-6d" d="M 3328 2828 
Q 3544 3216 3844 3400 
Q 4144 3584 4550 3584 
Q 5097 3584 5394 3201 
Q 5691 2819 5691 2113 
L 5691 0 
L 5113 0 
L 5113 2094 
Q 5113 2597 4934 2840 
Q 4756 3084 4391 3084 
Q 3944 3084 3684 2787 
Q 3425 2491 3425 1978 
L 3425 0 
L 2847 0 
L 2847 2094 
Q 2847 2600 2669 2842 
Q 2491 3084 2119 3084 
Q 1678 3084 1418 2786 
Q 1159 2488 1159 1978 
L 1159 0 
L 581 0 
L 581 3500 
L 1159 3500 
L 1159 2956 
Q 1356 3278 1631 3431 
Q 1906 3584 2284 3584 
Q 2666 3584 2933 3390 
Q 3200 3197 3328 2828 
z
" transform="scale(0.015625)"/>
        <path id="DejaVuSans-62" d="M 3116 1747 
Q 3116 2381 2855 2742 
Q 2594 3103 2138 3103 
Q 1681 3103 1420 2742 
Q 1159 2381 1159 1747 
Q 1159 1113 1420 752 
Q 1681 391 2138 391 
Q 2594 391 2855 752 
Q 3116 1113 3116 1747 
z
M 1159 2969 
Q 1341 3281 1617 3432 
Q 1894 3584 2278 3584 
Q 2916 3584 3314 3078 
Q 3713 2572 3713 1747 
Q 3713 922 3314 415 
Q 2916 -91 2278 -91 
Q 1894 -91 1617 61 
Q 1341 213 1159 525 
L 1159 0 
L 581 0 
L 581 4863 
L 1159 4863 
L 1159 2969 
z
" transform="scale(0.015625)"/>
       </defs>
       <use xlink:href="#DejaVuSans-41"/>
       <use xlink:href="#DejaVuSans-6d" transform="translate(68.408203 0)"/>
       <use xlink:href="#DejaVuSans-62" transform="translate(165.820312 0)"/>
       <use xlink:href="#DejaVuSans-69" transform="translate(229.296875 0)"/>
       <use xlink:href="#DejaVuSans-65" transform="translate(257.080078 0)"/>
       <use xlink:href="#DejaVuSans-6e" transform="translate(318.603516 0)"/>
       <use xlink:href="#DejaVuSans-74" transform="translate(381.982422 0)"/>
       <use xlink:href="#DejaVuSans-20" transform="translate(421.191406 0)"/>
       <use xlink:href="#DejaVuSans-4d" transform="translate(452.978516 0)"/>
       <use xlink:href="#DejaVuSans-65" transform="translate(539.257812 0)"/>
       <use xlink:href="#DejaVuSans-73" transform="translate(600.78125 0)"/>
       <use xlink:href="#DejaVuSans-68" transform="translate(652.880859 0)"/>
      </g>
     </g>
    </g>
    <g id="text_12">
     <!-- Mode -->
     <g transform="translate(14.798438 153.880219) rotate(-90) scale(0.1 -0.1)">
      <defs>
       <path id="DejaVuSans-64" d="M 2906 2969 
L 2906 4863 
L 3481 4863 
L 3481 0 
L 2906 0 
L 2906 525 
Q 2725 213 2448 61 
Q 2172 -91 1784 -91 
Q 1150 -91 751 415 
Q 353 922 353 1747 
Q 353 2572 751 3078 
Q 1150 3584 1784 3584 
Q 2172 3584 2448 3432 
Q 2725 3281 2906 2969 
z
M 947 1747 
Q 947 1113 1208 752 
Q 1469 391 1925 391 
Q 2381 391 2643 752 
Q 2906 1113 2906 1747 
Q 2906 2381 2643 2742 
Q 2381 3103 1925 3103 
Q 1469 3103 1208 2742 
Q 947 2381 947 1747 
z
" transform="scale(0.015625)"/>
      </defs>
      <use xlink:href="#DejaVuSans-4d"/>
      <use xlink:href="#DejaVuSans-6f" transform="translate(86.279297 0)"/>
      <use xlink:href="#DejaVuSans-64" transform="translate(147.460938 0)"/>
      <use xlink:href="#DejaVuSans-65" transform="translate(210.9375 0)"/>
     </g>
    </g>
   </g>
   <g id="line2d_11">
    <path d="M 286.613736 28.69635 
L 286.613736 73.728 
" clip-path="url(#p7b3653caa0)" style="fill: none; stroke-dasharray: 1.5625,0.9375; stroke-dashoffset: 0; stroke: #3f3f3f; stroke-width: 1.25"/>
   </g>
   <g id="line2d_12">
    <path d="M 305.923214 21.356336 
L 305.923214 73.728 
" clip-path="url(#p7b3653caa0)" style="fill: none; stroke-dasharray: 3.125,1.25; stroke-dashoffset: 0; stroke: #3f3f3f; stroke-width: 1.25"/>
   </g>
   <g id="line2d_13">
    <path d="M 330.350988 46.761554 
L 330.350988 73.728 
" clip-path="url(#p7b3653caa0)" style="fill: none; stroke-dasharray: 1.5625,0.9375; stroke-dashoffset: 0; stroke: #3f3f3f; stroke-width: 1.25"/>
   </g>
   <g id="line2d_14">
    <path d="M 248.158289 73.728 
L 248.158289 118.266065 
" clip-path="url(#p7b3653caa0)" style="fill: none; stroke-dasharray: 1.5625,0.9375; stroke-dashoffset: 0; stroke: #3f3f3f; stroke-width: 1.25"/>
   </g>
   <g id="line2d_15">
    <path d="M 263.73867 73.728 
L 263.73867 125.335605 
" clip-path="url(#p7b3653caa0)" style="fill: none; stroke-dasharray: 3.125,1.25; stroke-dashoffset: 0; stroke: #3f3f3f; stroke-width: 1.25"/>
   </g>
   <g id="line2d_16">
    <path d="M 290.994451 73.728 
L 290.994451 93.368242 
" clip-path="url(#p7b3653caa0)" style="fill: none; stroke-dasharray: 1.5625,0.9375; stroke-dashoffset: 0; stroke: #3f3f3f; stroke-width: 1.25"/>
   </g>
   <g id="line2d_17">
    <path d="M 285.954595 165.857142 
L 285.954595 206.784 
" clip-path="url(#p7b3653caa0)" style="fill: none; stroke-dasharray: 1.5625,0.9375; stroke-dashoffset: 0; stroke: #3f3f3f; stroke-width: 1.25"/>
   </g>
   <g id="line2d_18">
    <path d="M 307.956758 160.285402 
L 307.956758 206.784 
" clip-path="url(#p7b3653caa0)" style="fill: none; stroke-dasharray: 3.125,1.25; stroke-dashoffset: 0; stroke: #3f3f3f; stroke-width: 1.25"/>
   </g>
   <g id="line2d_19">
    <path d="M 334.127787 181.957045 
L 334.127787 206.784 
" clip-path="url(#p7b3653caa0)" style="fill: none; stroke-dasharray: 1.5625,0.9375; stroke-dashoffset: 0; stroke: #3f3f3f; stroke-width: 1.25"/>
   </g>
   <g id="line2d_20">
    <path d="M 239.438184 206.784 
L 239.438184 253.896919 
" clip-path="url(#p7b3653caa0)" style="fill: none; stroke-dasharray: 1.5625,0.9375; stroke-dashoffset: 0; stroke: #3f3f3f; stroke-width: 1.25"/>
   </g>
   <g id="line2d_21">
    <path d="M 255.044328 206.784 
L 255.044328 258.504543 
" clip-path="url(#p7b3653caa0)" style="fill: none; stroke-dasharray: 3.125,1.25; stroke-dashoffset: 0; stroke: #3f3f3f; stroke-width: 1.25"/>
   </g>
   <g id="line2d_22">
    <path d="M 276.245012 206.784 
L 276.245012 235.396188 
" clip-path="url(#p7b3653caa0)" style="fill: none; stroke-dasharray: 1.5625,0.9375; stroke-dashoffset: 0; stroke: #3f3f3f; stroke-width: 1.25"/>
   </g>
   <g id="patch_5">
    <path d="M 111.123438 273.312 
L 111.123438 7.2 
" style="fill: none; stroke: #000000; stroke-width: 0.8; stroke-linejoin: miter; stroke-linecap: square"/>
   </g>
   <g id="patch_6">
    <path d="M 468.243438 273.312 
L 468.243438 7.2 
" style="fill: none; stroke: #000000; stroke-width: 0.8; stroke-linejoin: miter; stroke-linecap: square"/>
   </g>
   <g id="patch_7">
    <path d="M 111.123438 273.312 
L 468.243438 273.312 
" style="fill: none; stroke: #000000; stroke-width: 0.8; stroke-linejoin: miter; stroke-linecap: square"/>
   </g>
   <g id="patch_8">
    <path d="M 111.123438 7.2 
L 468.243438 7.2 
" style="fill: none; stroke: #000000; stroke-width: 0.8; stroke-linejoin: miter; stroke-linecap: square"/>
   </g>
   <g id="legend_1">
    <g id="patch_9">
     <path d="M 365.274688 59.234375 
L 461.243438 59.234375 
Q 463.243438 59.234375 463.243438 57.234375 
L 463.243438 14.2 
Q 463.243438 12.2 461.243438 12.2 
L 365.274688 12.2 
Q 363.274688 12.2 363.274688 14.2 
L 363.274688 57.234375 
Q 363.274688 59.234375 365.274688 59.234375 
z
" style="fill: #ffffff; opacity: 0.8; stroke: #cccccc; stroke-linejoin: miter"/>
    </g>
    <g id="text_13">
     <!-- Scenario -->
     <g transform="translate(391.522344 23.798437) scale(0.1 -0.1)">
      <use xlink:href="#DejaVuSans-53"/>
      <use xlink:href="#DejaVuSans-63" transform="translate(63.476562 0)"/>
      <use xlink:href="#DejaVuSans-65" transform="translate(118.457031 0)"/>
      <use xlink:href="#DejaVuSans-6e" transform="translate(179.980469 0)"/>
      <use xlink:href="#DejaVuSans-61" transform="translate(243.359375 0)"/>
      <use xlink:href="#DejaVuSans-72" transform="translate(304.638672 0)"/>
      <use xlink:href="#DejaVuSans-69" transform="translate(345.751953 0)"/>
      <use xlink:href="#DejaVuSans-6f" transform="translate(373.535156 0)"/>
     </g>
    </g>
    <g id="patch_10">
     <path d="M 367.274688 38.476562 
L 387.274688 38.476562 
L 387.274688 31.476562 
L 367.274688 31.476562 
z
" style="fill: #3274a1; stroke: #3f3f3f; stroke-width: 1.25; stroke-linejoin: miter"/>
    </g>
    <g id="text_14">
     <!-- Baseline -->
     <g transform="translate(395.274688 38.476562) scale(0.1 -0.1)">
      <defs>
       <path id="DejaVuSans-42" d="M 1259 2228 
L 1259 519 
L 2272 519 
Q 2781 519 3026 730 
Q 3272 941 3272 1375 
Q 3272 1813 3026 2020 
Q 2781 2228 2272 2228 
L 1259 2228 
z
M 1259 4147 
L 1259 2741 
L 2194 2741 
Q 2656 2741 2882 2914 
Q 3109 3088 3109 3444 
Q 3109 3797 2882 3972 
Q 2656 4147 2194 4147 
L 1259 4147 
z
M 628 4666 
L 2241 4666 
Q 2963 4666 3353 4366 
Q 3744 4066 3744 3513 
Q 3744 3084 3544 2831 
Q 3344 2578 2956 2516 
Q 3422 2416 3680 2098 
Q 3938 1781 3938 1306 
Q 3938 681 3513 340 
Q 3088 0 2303 0 
L 628 0 
L 628 4666 
z
" transform="scale(0.015625)"/>
       <path id="DejaVuSans-6c" d="M 603 4863 
L 1178 4863 
L 1178 0 
L 603 0 
L 603 4863 
z
" transform="scale(0.015625)"/>
      </defs>
      <use xlink:href="#DejaVuSans-42"/>
      <use xlink:href="#DejaVuSans-61" transform="translate(68.603516 0)"/>
      <use xlink:href="#DejaVuSans-73" transform="translate(129.882812 0)"/>
      <use xlink:href="#DejaVuSans-65" transform="translate(181.982422 0)"/>
      <use xlink:href="#DejaVuSans-6c" transform="translate(243.505859 0)"/>
      <use xlink:href="#DejaVuSans-69" transform="translate(271.289062 0)"/>
      <use xlink:href="#DejaVuSans-6e" transform="translate(299.072266 0)"/>
      <use xlink:href="#DejaVuSans-65" transform="translate(362.451172 0)"/>
     </g>
    </g>
    <g id="patch_11">
     <path d="M 367.274688 53.154688 
L 387.274688 53.154688 
L 387.274688 46.154688 
L 367.274688 46.154688 
z
" style="fill: #e1812c; stroke: #3f3f3f; stroke-width: 1.25; stroke-linejoin: miter"/>
    </g>
    <g id="text_15">
     <!-- Optimization -->
     <g transform="translate(395.274688 53.154688) scale(0.1 -0.1)">
      <defs>
       <path id="DejaVuSans-4f" d="M 2522 4238 
Q 1834 4238 1429 3725 
Q 1025 3213 1025 2328 
Q 1025 1447 1429 934 
Q 1834 422 2522 422 
Q 3209 422 3611 934 
Q 4013 1447 4013 2328 
Q 4013 3213 3611 3725 
Q 3209 4238 2522 4238 
z
M 2522 4750 
Q 3503 4750 4090 4092 
Q 4678 3434 4678 2328 
Q 4678 1225 4090 567 
Q 3503 -91 2522 -91 
Q 1538 -91 948 565 
Q 359 1222 359 2328 
Q 359 3434 948 4092 
Q 1538 4750 2522 4750 
z
" transform="scale(0.015625)"/>
       <path id="DejaVuSans-70" d="M 1159 525 
L 1159 -1331 
L 581 -1331 
L 581 3500 
L 1159 3500 
L 1159 2969 
Q 1341 3281 1617 3432 
Q 1894 3584 2278 3584 
Q 2916 3584 3314 3078 
Q 3713 2572 3713 1747 
Q 3713 922 3314 415 
Q 2916 -91 2278 -91 
Q 1894 -91 1617 61 
Q 1341 213 1159 525 
z
M 3116 1747 
Q 3116 2381 2855 2742 
Q 2594 3103 2138 3103 
Q 1681 3103 1420 2742 
Q 1159 2381 1159 1747 
Q 1159 1113 1420 752 
Q 1681 391 2138 391 
Q 2594 391 2855 752 
Q 3116 1113 3116 1747 
z
" transform="scale(0.015625)"/>
       <path id="DejaVuSans-7a" d="M 353 3500 
L 3084 3500 
L 3084 2975 
L 922 459 
L 3084 459 
L 3084 0 
L 275 0 
L 275 525 
L 2438 3041 
L 353 3041 
L 353 3500 
z
" transform="scale(0.015625)"/>
      </defs>
      <use xlink:href="#DejaVuSans-4f"/>
      <use xlink:href="#DejaVuSans-70" transform="translate(78.710938 0)"/>
      <use xlink:href="#DejaVuSans-74" transform="translate(142.1875 0)"/>
      <use xlink:href="#DejaVuSans-69" transform="translate(181.396484 0)"/>
      <use xlink:href="#DejaVuSans-6d" transform="translate(209.179688 0)"/>
      <use xlink:href="#DejaVuSans-69" transform="translate(306.591797 0)"/>
      <use xlink:href="#DejaVuSans-7a" transform="translate(334.375 0)"/>
      <use xlink:href="#DejaVuSans-61" transform="translate(386.865234 0)"/>
      <use xlink:href="#DejaVuSans-74" transform="translate(448.144531 0)"/>
      <use xlink:href="#DejaVuSans-69" transform="translate(487.353516 0)"/>
      <use xlink:href="#DejaVuSans-6f" transform="translate(515.136719 0)"/>
      <use xlink:href="#DejaVuSans-6e" transform="translate(576.318359 0)"/>
     </g>
    </g>
   </g>
  </g>
 </g>
 <defs>
  <clipPath id="p7b3653caa0">
   <rect x="111.123438" y="7.2" width="357.12" height="266.112"/>
  </clipPath>
 </defs>
</svg>
